<?xml version="1.0" encoding="utf-8" standalone="no"?>
<!DOCTYPE svg PUBLIC "-//W3C//DTD SVG 1.1//EN"
  "http://www.w3.org/Graphics/SVG/1.1/DTD/svg11.dtd">
<svg xmlns:xlink="http://www.w3.org/1999/xlink" width="564.447701pt" height="349.07805pt" viewBox="0 0 564.447701 349.07805" xmlns="http://www.w3.org/2000/svg" version="1.1">
 <metadata>
  <rdf:RDF xmlns:dc="http://purl.org/dc/elements/1.1/" xmlns:cc="http://creativecommons.org/ns#" xmlns:rdf="http://www.w3.org/1999/02/22-rdf-syntax-ns#">
   <cc:Work>
    <dc:type rdf:resource="http://purl.org/dc/dcmitype/StillImage"/>
    <dc:date>2025-04-07T20:52:34.935611</dc:date>
    <dc:format>image/svg+xml</dc:format>
    <dc:creator>
     <cc:Agent>
      <dc:title>Matplotlib v3.10.0, https://matplotlib.org/</dc:title>
     </cc:Agent>
    </dc:creator>
   </cc:Work>
  </rdf:RDF>
 </metadata>
 <defs>
  <style type="text/css">*{stroke-linejoin: round; stroke-linecap: butt}</style>
 </defs>
 <g id="figure_1">
  <g id="patch_1">
   <path d="M 0 349.07805 
L 564.447701 349.07805 
L 564.447701 0 
L 0 0 
z
" style="fill: #ffffff"/>
  </g>
  <g id="axes_1">
   <g id="patch_2">
    <path d="M 47.883125 303.458362 
L 515.252289 303.458362 
L 515.252289 37.391562 
L 47.883125 37.391562 
z
" style="fill: #ffffff"/>
   </g>
   <g id="matplotlib.axis_1">
    <g id="xtick_1">
     <g id="line2d_1">
      <path d="M 114.650148 303.458362 
L 114.650148 37.391562 
" clip-path="url(#p6971b1a31a)" style="fill: none; stroke: #cccccc; stroke-width: 0.8; stroke-linecap: round"/>
     </g>
     <g id="text_1">
      <!-- 2000 -->
      <g style="fill: #262626" transform="translate(103.528273 318.916175) scale(0.1 -0.1)">
       <defs>
        <path id="ArialMT-32" d="M 3222 541 
L 3222 0 
L 194 0 
Q 188 203 259 391 
Q 375 700 629 1000 
Q 884 1300 1366 1694 
Q 2113 2306 2375 2664 
Q 2638 3022 2638 3341 
Q 2638 3675 2398 3904 
Q 2159 4134 1775 4134 
Q 1369 4134 1125 3890 
Q 881 3647 878 3216 
L 300 3275 
Q 359 3922 746 4261 
Q 1134 4600 1788 4600 
Q 2447 4600 2831 4234 
Q 3216 3869 3216 3328 
Q 3216 3053 3103 2787 
Q 2991 2522 2730 2228 
Q 2469 1934 1863 1422 
Q 1356 997 1212 845 
Q 1069 694 975 541 
L 3222 541 
z
" transform="scale(0.015625)"/>
        <path id="ArialMT-30" d="M 266 2259 
Q 266 3072 433 3567 
Q 600 4063 929 4331 
Q 1259 4600 1759 4600 
Q 2128 4600 2406 4451 
Q 2684 4303 2865 4023 
Q 3047 3744 3150 3342 
Q 3253 2941 3253 2259 
Q 3253 1453 3087 958 
Q 2922 463 2592 192 
Q 2263 -78 1759 -78 
Q 1097 -78 719 397 
Q 266 969 266 2259 
z
M 844 2259 
Q 844 1131 1108 757 
Q 1372 384 1759 384 
Q 2147 384 2411 759 
Q 2675 1134 2675 2259 
Q 2675 3391 2411 3762 
Q 2147 4134 1753 4134 
Q 1366 4134 1134 3806 
Q 844 3388 844 2259 
z
" transform="scale(0.015625)"/>
       </defs>
       <use xlink:href="#ArialMT-32"/>
       <use xlink:href="#ArialMT-30" transform="translate(55.615234 0)"/>
       <use xlink:href="#ArialMT-30" transform="translate(111.230469 0)"/>
       <use xlink:href="#ArialMT-30" transform="translate(166.845703 0)"/>
      </g>
     </g>
    </g>
    <g id="xtick_2">
     <g id="line2d_2">
      <path d="M 190.521766 303.458362 
L 190.521766 37.391562 
" clip-path="url(#p6971b1a31a)" style="fill: none; stroke: #cccccc; stroke-width: 0.8; stroke-linecap: round"/>
     </g>
     <g id="text_2">
      <!-- 2005 -->
      <g style="fill: #262626" transform="translate(179.399891 318.916175) scale(0.1 -0.1)">
       <defs>
        <path id="ArialMT-35" d="M 266 1200 
L 856 1250 
Q 922 819 1161 601 
Q 1400 384 1738 384 
Q 2144 384 2425 690 
Q 2706 997 2706 1503 
Q 2706 1984 2436 2262 
Q 2166 2541 1728 2541 
Q 1456 2541 1237 2417 
Q 1019 2294 894 2097 
L 366 2166 
L 809 4519 
L 3088 4519 
L 3088 3981 
L 1259 3981 
L 1013 2750 
Q 1425 3038 1878 3038 
Q 2478 3038 2890 2622 
Q 3303 2206 3303 1553 
Q 3303 931 2941 478 
Q 2500 -78 1738 -78 
Q 1113 -78 717 272 
Q 322 622 266 1200 
z
" transform="scale(0.015625)"/>
       </defs>
       <use xlink:href="#ArialMT-32"/>
       <use xlink:href="#ArialMT-30" transform="translate(55.615234 0)"/>
       <use xlink:href="#ArialMT-30" transform="translate(111.230469 0)"/>
       <use xlink:href="#ArialMT-35" transform="translate(166.845703 0)"/>
      </g>
     </g>
    </g>
    <g id="xtick_3">
     <g id="line2d_3">
      <path d="M 266.393384 303.458362 
L 266.393384 37.391562 
" clip-path="url(#p6971b1a31a)" style="fill: none; stroke: #cccccc; stroke-width: 0.8; stroke-linecap: round"/>
     </g>
     <g id="text_3">
      <!-- 2010 -->
      <g style="fill: #262626" transform="translate(255.271509 318.916175) scale(0.1 -0.1)">
       <defs>
        <path id="ArialMT-31" d="M 2384 0 
L 1822 0 
L 1822 3584 
Q 1619 3391 1289 3197 
Q 959 3003 697 2906 
L 697 3450 
Q 1169 3672 1522 3987 
Q 1875 4303 2022 4600 
L 2384 4600 
L 2384 0 
z
" transform="scale(0.015625)"/>
       </defs>
       <use xlink:href="#ArialMT-32"/>
       <use xlink:href="#ArialMT-30" transform="translate(55.615234 0)"/>
       <use xlink:href="#ArialMT-31" transform="translate(111.230469 0)"/>
       <use xlink:href="#ArialMT-30" transform="translate(166.845703 0)"/>
      </g>
     </g>
    </g>
    <g id="xtick_4">
     <g id="line2d_4">
      <path d="M 342.265001 303.458362 
L 342.265001 37.391562 
" clip-path="url(#p6971b1a31a)" style="fill: none; stroke: #cccccc; stroke-width: 0.8; stroke-linecap: round"/>
     </g>
     <g id="text_4">
      <!-- 2015 -->
      <g style="fill: #262626" transform="translate(331.143126 318.916175) scale(0.1 -0.1)">
       <use xlink:href="#ArialMT-32"/>
       <use xlink:href="#ArialMT-30" transform="translate(55.615234 0)"/>
       <use xlink:href="#ArialMT-31" transform="translate(111.230469 0)"/>
       <use xlink:href="#ArialMT-35" transform="translate(166.845703 0)"/>
      </g>
     </g>
    </g>
    <g id="xtick_5">
     <g id="line2d_5">
      <path d="M 418.136619 303.458362 
L 418.136619 37.391562 
" clip-path="url(#p6971b1a31a)" style="fill: none; stroke: #cccccc; stroke-width: 0.8; stroke-linecap: round"/>
     </g>
     <g id="text_5">
      <!-- 2020 -->
      <g style="fill: #262626" transform="translate(407.014744 318.916175) scale(0.1 -0.1)">
       <use xlink:href="#ArialMT-32"/>
       <use xlink:href="#ArialMT-30" transform="translate(55.615234 0)"/>
       <use xlink:href="#ArialMT-32" transform="translate(111.230469 0)"/>
       <use xlink:href="#ArialMT-30" transform="translate(166.845703 0)"/>
      </g>
     </g>
    </g>
    <g id="xtick_6">
     <g id="line2d_6">
      <path d="M 494.008236 303.458362 
L 494.008236 37.391562 
" clip-path="url(#p6971b1a31a)" style="fill: none; stroke: #cccccc; stroke-width: 0.8; stroke-linecap: round"/>
     </g>
     <g id="text_6">
      <!-- 2025 -->
      <g style="fill: #262626" transform="translate(482.886361 318.916175) scale(0.1 -0.1)">
       <use xlink:href="#ArialMT-32"/>
       <use xlink:href="#ArialMT-30" transform="translate(55.615234 0)"/>
       <use xlink:href="#ArialMT-32" transform="translate(111.230469 0)"/>
       <use xlink:href="#ArialMT-35" transform="translate(166.845703 0)"/>
      </g>
     </g>
    </g>
    <g id="text_7">
     <!-- Year -->
     <g style="fill: #262626" transform="translate(269.442082 339.49305) scale(0.12 -0.12)">
      <defs>
       <path id="ArialMT-59" d="M 1784 0 
L 1784 1941 
L 19 4581 
L 756 4581 
L 1659 3200 
Q 1909 2813 2125 2425 
Q 2331 2784 2625 3234 
L 3513 4581 
L 4219 4581 
L 2391 1941 
L 2391 0 
L 1784 0 
z
" transform="scale(0.015625)"/>
       <path id="ArialMT-65" d="M 2694 1069 
L 3275 997 
Q 3138 488 2766 206 
Q 2394 -75 1816 -75 
Q 1088 -75 661 373 
Q 234 822 234 1631 
Q 234 2469 665 2931 
Q 1097 3394 1784 3394 
Q 2450 3394 2872 2941 
Q 3294 2488 3294 1666 
Q 3294 1616 3291 1516 
L 816 1516 
Q 847 969 1125 678 
Q 1403 388 1819 388 
Q 2128 388 2347 550 
Q 2566 713 2694 1069 
z
M 847 1978 
L 2700 1978 
Q 2663 2397 2488 2606 
Q 2219 2931 1791 2931 
Q 1403 2931 1139 2672 
Q 875 2413 847 1978 
z
" transform="scale(0.015625)"/>
       <path id="ArialMT-61" d="M 2588 409 
Q 2275 144 1986 34 
Q 1697 -75 1366 -75 
Q 819 -75 525 192 
Q 231 459 231 875 
Q 231 1119 342 1320 
Q 453 1522 633 1644 
Q 813 1766 1038 1828 
Q 1203 1872 1538 1913 
Q 2219 1994 2541 2106 
Q 2544 2222 2544 2253 
Q 2544 2597 2384 2738 
Q 2169 2928 1744 2928 
Q 1347 2928 1158 2789 
Q 969 2650 878 2297 
L 328 2372 
Q 403 2725 575 2942 
Q 747 3159 1072 3276 
Q 1397 3394 1825 3394 
Q 2250 3394 2515 3294 
Q 2781 3194 2906 3042 
Q 3031 2891 3081 2659 
Q 3109 2516 3109 2141 
L 3109 1391 
Q 3109 606 3145 398 
Q 3181 191 3288 0 
L 2700 0 
Q 2613 175 2588 409 
z
M 2541 1666 
Q 2234 1541 1622 1453 
Q 1275 1403 1131 1340 
Q 988 1278 909 1158 
Q 831 1038 831 891 
Q 831 666 1001 516 
Q 1172 366 1500 366 
Q 1825 366 2078 508 
Q 2331 650 2450 897 
Q 2541 1088 2541 1459 
L 2541 1666 
z
" transform="scale(0.015625)"/>
       <path id="ArialMT-72" d="M 416 0 
L 416 3319 
L 922 3319 
L 922 2816 
Q 1116 3169 1280 3281 
Q 1444 3394 1641 3394 
Q 1925 3394 2219 3213 
L 2025 2691 
Q 1819 2813 1613 2813 
Q 1428 2813 1281 2702 
Q 1134 2591 1072 2394 
Q 978 2094 978 1738 
L 978 0 
L 416 0 
z
" transform="scale(0.015625)"/>
      </defs>
      <use xlink:href="#ArialMT-59"/>
      <use xlink:href="#ArialMT-65" transform="translate(57.574219 0)"/>
      <use xlink:href="#ArialMT-61" transform="translate(113.189453 0)"/>
      <use xlink:href="#ArialMT-72" transform="translate(168.804688 0)"/>
     </g>
    </g>
   </g>
   <g id="matplotlib.axis_2">
    <g id="ytick_1">
     <g id="line2d_7">
      <path d="M 47.883125 282.259762 
L 515.252289 282.259762 
" clip-path="url(#p6971b1a31a)" style="fill: none; stroke-dasharray: 2.96,1.28; stroke-dashoffset: 0; stroke: #cccccc; stroke-opacity: 0.7; stroke-width: 0.8"/>
     </g>
     <g id="text_8">
      <!-- 0 -->
      <g style="fill: #262626" transform="translate(34.022188 285.838668) scale(0.1 -0.1)">
       <use xlink:href="#ArialMT-30"/>
      </g>
     </g>
    </g>
    <g id="ytick_2">
     <g id="line2d_8">
      <path d="M 47.883125 248.767064 
L 515.252289 248.767064 
" clip-path="url(#p6971b1a31a)" style="fill: none; stroke-dasharray: 2.96,1.28; stroke-dashoffset: 0; stroke: #cccccc; stroke-opacity: 0.7; stroke-width: 0.8"/>
     </g>
     <g id="text_9">
      <!-- 5 -->
      <g style="fill: #262626" transform="translate(34.022188 252.34597) scale(0.1 -0.1)">
       <use xlink:href="#ArialMT-35"/>
      </g>
     </g>
    </g>
    <g id="ytick_3">
     <g id="line2d_9">
      <path d="M 47.883125 215.274365 
L 515.252289 215.274365 
" clip-path="url(#p6971b1a31a)" style="fill: none; stroke-dasharray: 2.96,1.28; stroke-dashoffset: 0; stroke: #cccccc; stroke-opacity: 0.7; stroke-width: 0.8"/>
     </g>
     <g id="text_10">
      <!-- 10 -->
      <g style="fill: #262626" transform="translate(28.46125 218.853271) scale(0.1 -0.1)">
       <use xlink:href="#ArialMT-31"/>
       <use xlink:href="#ArialMT-30" transform="translate(55.615234 0)"/>
      </g>
     </g>
    </g>
    <g id="ytick_4">
     <g id="line2d_10">
      <path d="M 47.883125 181.781667 
L 515.252289 181.781667 
" clip-path="url(#p6971b1a31a)" style="fill: none; stroke-dasharray: 2.96,1.28; stroke-dashoffset: 0; stroke: #cccccc; stroke-opacity: 0.7; stroke-width: 0.8"/>
     </g>
     <g id="text_11">
      <!-- 15 -->
      <g style="fill: #262626" transform="translate(28.46125 185.360573) scale(0.1 -0.1)">
       <use xlink:href="#ArialMT-31"/>
       <use xlink:href="#ArialMT-35" transform="translate(55.615234 0)"/>
      </g>
     </g>
    </g>
    <g id="ytick_5">
     <g id="line2d_11">
      <path d="M 47.883125 148.288968 
L 515.252289 148.288968 
" clip-path="url(#p6971b1a31a)" style="fill: none; stroke-dasharray: 2.96,1.28; stroke-dashoffset: 0; stroke: #cccccc; stroke-opacity: 0.7; stroke-width: 0.8"/>
     </g>
     <g id="text_12">
      <!-- 20 -->
      <g style="fill: #262626" transform="translate(28.46125 151.867875) scale(0.1 -0.1)">
       <use xlink:href="#ArialMT-32"/>
       <use xlink:href="#ArialMT-30" transform="translate(55.615234 0)"/>
      </g>
     </g>
    </g>
    <g id="ytick_6">
     <g id="line2d_12">
      <path d="M 47.883125 114.79627 
L 515.252289 114.79627 
" clip-path="url(#p6971b1a31a)" style="fill: none; stroke-dasharray: 2.96,1.28; stroke-dashoffset: 0; stroke: #cccccc; stroke-opacity: 0.7; stroke-width: 0.8"/>
     </g>
     <g id="text_13">
      <!-- 25 -->
      <g style="fill: #262626" transform="translate(28.46125 118.375176) scale(0.1 -0.1)">
       <use xlink:href="#ArialMT-32"/>
       <use xlink:href="#ArialMT-35" transform="translate(55.615234 0)"/>
      </g>
     </g>
    </g>
    <g id="ytick_7">
     <g id="line2d_13">
      <path d="M 47.883125 81.303571 
L 515.252289 81.303571 
" clip-path="url(#p6971b1a31a)" style="fill: none; stroke-dasharray: 2.96,1.28; stroke-dashoffset: 0; stroke: #cccccc; stroke-opacity: 0.7; stroke-width: 0.8"/>
     </g>
     <g id="text_14">
      <!-- 30 -->
      <g style="fill: #262626" transform="translate(28.46125 84.882478) scale(0.1 -0.1)">
       <defs>
        <path id="ArialMT-33" d="M 269 1209 
L 831 1284 
Q 928 806 1161 595 
Q 1394 384 1728 384 
Q 2125 384 2398 659 
Q 2672 934 2672 1341 
Q 2672 1728 2419 1979 
Q 2166 2231 1775 2231 
Q 1616 2231 1378 2169 
L 1441 2663 
Q 1497 2656 1531 2656 
Q 1891 2656 2178 2843 
Q 2466 3031 2466 3422 
Q 2466 3731 2256 3934 
Q 2047 4138 1716 4138 
Q 1388 4138 1169 3931 
Q 950 3725 888 3313 
L 325 3413 
Q 428 3978 793 4289 
Q 1159 4600 1703 4600 
Q 2078 4600 2393 4439 
Q 2709 4278 2876 4000 
Q 3044 3722 3044 3409 
Q 3044 3113 2884 2869 
Q 2725 2625 2413 2481 
Q 2819 2388 3044 2092 
Q 3269 1797 3269 1353 
Q 3269 753 2831 336 
Q 2394 -81 1725 -81 
Q 1122 -81 723 278 
Q 325 638 269 1209 
z
" transform="scale(0.015625)"/>
       </defs>
       <use xlink:href="#ArialMT-33"/>
       <use xlink:href="#ArialMT-30" transform="translate(55.615234 0)"/>
      </g>
     </g>
    </g>
    <g id="ytick_8">
     <g id="line2d_14">
      <path d="M 47.883125 47.810873 
L 515.252289 47.810873 
" clip-path="url(#p6971b1a31a)" style="fill: none; stroke-dasharray: 2.96,1.28; stroke-dashoffset: 0; stroke: #cccccc; stroke-opacity: 0.7; stroke-width: 0.8"/>
     </g>
     <g id="text_15">
      <!-- 35 -->
      <g style="fill: #262626" transform="translate(28.46125 51.389779) scale(0.1 -0.1)">
       <use xlink:href="#ArialMT-33"/>
       <use xlink:href="#ArialMT-35" transform="translate(55.615234 0)"/>
      </g>
     </g>
    </g>
    <g id="text_16">
     <!-- Ratio (National:International) -->
     <g style="fill: #262626" transform="translate(15.935625 246.793712) rotate(-90) scale(0.12 -0.12)">
      <defs>
       <path id="ArialMT-52" d="M 503 0 
L 503 4581 
L 2534 4581 
Q 3147 4581 3465 4457 
Q 3784 4334 3975 4021 
Q 4166 3709 4166 3331 
Q 4166 2844 3850 2509 
Q 3534 2175 2875 2084 
Q 3116 1969 3241 1856 
Q 3506 1613 3744 1247 
L 4541 0 
L 3778 0 
L 3172 953 
Q 2906 1366 2734 1584 
Q 2563 1803 2427 1890 
Q 2291 1978 2150 2013 
Q 2047 2034 1813 2034 
L 1109 2034 
L 1109 0 
L 503 0 
z
M 1109 2559 
L 2413 2559 
Q 2828 2559 3062 2645 
Q 3297 2731 3419 2920 
Q 3541 3109 3541 3331 
Q 3541 3656 3305 3865 
Q 3069 4075 2559 4075 
L 1109 4075 
L 1109 2559 
z
" transform="scale(0.015625)"/>
       <path id="ArialMT-74" d="M 1650 503 
L 1731 6 
Q 1494 -44 1306 -44 
Q 1000 -44 831 53 
Q 663 150 594 308 
Q 525 466 525 972 
L 525 2881 
L 113 2881 
L 113 3319 
L 525 3319 
L 525 4141 
L 1084 4478 
L 1084 3319 
L 1650 3319 
L 1650 2881 
L 1084 2881 
L 1084 941 
Q 1084 700 1114 631 
Q 1144 563 1211 522 
Q 1278 481 1403 481 
Q 1497 481 1650 503 
z
" transform="scale(0.015625)"/>
       <path id="ArialMT-69" d="M 425 3934 
L 425 4581 
L 988 4581 
L 988 3934 
L 425 3934 
z
M 425 0 
L 425 3319 
L 988 3319 
L 988 0 
L 425 0 
z
" transform="scale(0.015625)"/>
       <path id="ArialMT-6f" d="M 213 1659 
Q 213 2581 725 3025 
Q 1153 3394 1769 3394 
Q 2453 3394 2887 2945 
Q 3322 2497 3322 1706 
Q 3322 1066 3130 698 
Q 2938 331 2570 128 
Q 2203 -75 1769 -75 
Q 1072 -75 642 372 
Q 213 819 213 1659 
z
M 791 1659 
Q 791 1022 1069 705 
Q 1347 388 1769 388 
Q 2188 388 2466 706 
Q 2744 1025 2744 1678 
Q 2744 2294 2464 2611 
Q 2184 2928 1769 2928 
Q 1347 2928 1069 2612 
Q 791 2297 791 1659 
z
" transform="scale(0.015625)"/>
       <path id="ArialMT-20" transform="scale(0.015625)"/>
       <path id="ArialMT-28" d="M 1497 -1347 
Q 1031 -759 709 28 
Q 388 816 388 1659 
Q 388 2403 628 3084 
Q 909 3875 1497 4659 
L 1900 4659 
Q 1522 4009 1400 3731 
Q 1209 3300 1100 2831 
Q 966 2247 966 1656 
Q 966 153 1900 -1347 
L 1497 -1347 
z
" transform="scale(0.015625)"/>
       <path id="ArialMT-4e" d="M 488 0 
L 488 4581 
L 1109 4581 
L 3516 984 
L 3516 4581 
L 4097 4581 
L 4097 0 
L 3475 0 
L 1069 3600 
L 1069 0 
L 488 0 
z
" transform="scale(0.015625)"/>
       <path id="ArialMT-6e" d="M 422 0 
L 422 3319 
L 928 3319 
L 928 2847 
Q 1294 3394 1984 3394 
Q 2284 3394 2536 3286 
Q 2788 3178 2913 3003 
Q 3038 2828 3088 2588 
Q 3119 2431 3119 2041 
L 3119 0 
L 2556 0 
L 2556 2019 
Q 2556 2363 2490 2533 
Q 2425 2703 2258 2804 
Q 2091 2906 1866 2906 
Q 1506 2906 1245 2678 
Q 984 2450 984 1813 
L 984 0 
L 422 0 
z
" transform="scale(0.015625)"/>
       <path id="ArialMT-6c" d="M 409 0 
L 409 4581 
L 972 4581 
L 972 0 
L 409 0 
z
" transform="scale(0.015625)"/>
       <path id="ArialMT-3a" d="M 578 2678 
L 578 3319 
L 1219 3319 
L 1219 2678 
L 578 2678 
z
M 578 0 
L 578 641 
L 1219 641 
L 1219 0 
L 578 0 
z
" transform="scale(0.015625)"/>
       <path id="ArialMT-49" d="M 597 0 
L 597 4581 
L 1203 4581 
L 1203 0 
L 597 0 
z
" transform="scale(0.015625)"/>
       <path id="ArialMT-29" d="M 791 -1347 
L 388 -1347 
Q 1322 153 1322 1656 
Q 1322 2244 1188 2822 
Q 1081 3291 891 3722 
Q 769 4003 388 4659 
L 791 4659 
Q 1378 3875 1659 3084 
Q 1900 2403 1900 1659 
Q 1900 816 1576 28 
Q 1253 -759 791 -1347 
z
" transform="scale(0.015625)"/>
      </defs>
      <use xlink:href="#ArialMT-52"/>
      <use xlink:href="#ArialMT-61" transform="translate(72.216797 0)"/>
      <use xlink:href="#ArialMT-74" transform="translate(127.832031 0)"/>
      <use xlink:href="#ArialMT-69" transform="translate(155.615234 0)"/>
      <use xlink:href="#ArialMT-6f" transform="translate(177.832031 0)"/>
      <use xlink:href="#ArialMT-20" transform="translate(233.447266 0)"/>
      <use xlink:href="#ArialMT-28" transform="translate(261.230469 0)"/>
      <use xlink:href="#ArialMT-4e" transform="translate(294.53125 0)"/>
      <use xlink:href="#ArialMT-61" transform="translate(366.748047 0)"/>
      <use xlink:href="#ArialMT-74" transform="translate(422.363281 0)"/>
      <use xlink:href="#ArialMT-69" transform="translate(450.146484 0)"/>
      <use xlink:href="#ArialMT-6f" transform="translate(472.363281 0)"/>
      <use xlink:href="#ArialMT-6e" transform="translate(527.978516 0)"/>
      <use xlink:href="#ArialMT-61" transform="translate(583.59375 0)"/>
      <use xlink:href="#ArialMT-6c" transform="translate(639.208984 0)"/>
      <use xlink:href="#ArialMT-3a" transform="translate(661.425781 0)"/>
      <use xlink:href="#ArialMT-49" transform="translate(689.208984 0)"/>
      <use xlink:href="#ArialMT-6e" transform="translate(716.992188 0)"/>
      <use xlink:href="#ArialMT-74" transform="translate(772.607422 0)"/>
      <use xlink:href="#ArialMT-65" transform="translate(800.390625 0)"/>
      <use xlink:href="#ArialMT-72" transform="translate(856.005859 0)"/>
      <use xlink:href="#ArialMT-6e" transform="translate(889.306641 0)"/>
      <use xlink:href="#ArialMT-61" transform="translate(944.921875 0)"/>
      <use xlink:href="#ArialMT-74" transform="translate(1000.537109 0)"/>
      <use xlink:href="#ArialMT-69" transform="translate(1028.320312 0)"/>
      <use xlink:href="#ArialMT-6f" transform="translate(1050.537109 0)"/>
      <use xlink:href="#ArialMT-6e" transform="translate(1106.152344 0)"/>
      <use xlink:href="#ArialMT-61" transform="translate(1161.767578 0)"/>
      <use xlink:href="#ArialMT-6c" transform="translate(1217.382812 0)"/>
      <use xlink:href="#ArialMT-29" transform="translate(1239.599609 0)"/>
     </g>
    </g>
   </g>
   <g id="line2d_15">
    <path d="M 69.127178 272.09646 
L 84.301501 268.253725 
L 99.475825 270.738274 
L 114.650148 259.931296 
L 129.824472 267.427281 
L 144.998795 255.465603 
L 160.173119 252.116333 
L 175.347442 256.238512 
L 190.521766 206.661957 
L 205.696089 227.125628 
L 220.870413 246.661808 
L 236.044736 252.444693 
L 251.21906 261.80206 
L 266.393384 248.767064 
L 281.567707 217.584206 
L 296.742031 251.091047 
L 311.916354 236.039838 
L 327.090678 219.943044 
L 342.265001 224.205751 
L 357.439325 242.847424 
L 372.613648 213.59973 
L 387.787972 194.485794 
L 402.962295 169.625058 
L 418.136619 159.274573 
L 433.310942 153.240063 
L 448.485266 155.278749 
L 463.659589 135.664797 
L 478.833913 49.485508 
L 494.008236 137.124736 
" clip-path="url(#p6971b1a31a)" style="fill: none; stroke: #e32f27; stroke-width: 2; stroke-linecap: round"/>
    <defs>
     <path id="m4966f25e77" d="M 0 2.4 
C 0.636487 2.4 1.246992 2.147121 1.697056 1.697056 
C 2.147121 1.246992 2.4 0.636487 2.4 0 
C 2.4 -0.636487 2.147121 -1.246992 1.697056 -1.697056 
C 1.246992 -2.147121 0.636487 -2.4 0 -2.4 
C -0.636487 -2.4 -1.246992 -2.147121 -1.697056 -1.697056 
C -2.147121 -1.246992 -2.4 -0.636487 -2.4 0 
C -2.4 0.636487 -2.147121 1.246992 -1.697056 1.697056 
C -1.246992 2.147121 -0.636487 2.4 0 2.4 
z
" style="stroke: #e32f27"/>
    </defs>
    <g clip-path="url(#p6971b1a31a)">
     <use xlink:href="#m4966f25e77" x="69.127178" y="272.09646" style="fill: #e32f27; stroke: #e32f27"/>
     <use xlink:href="#m4966f25e77" x="84.301501" y="268.253725" style="fill: #e32f27; stroke: #e32f27"/>
     <use xlink:href="#m4966f25e77" x="99.475825" y="270.738274" style="fill: #e32f27; stroke: #e32f27"/>
     <use xlink:href="#m4966f25e77" x="114.650148" y="259.931296" style="fill: #e32f27; stroke: #e32f27"/>
     <use xlink:href="#m4966f25e77" x="129.824472" y="267.427281" style="fill: #e32f27; stroke: #e32f27"/>
     <use xlink:href="#m4966f25e77" x="144.998795" y="255.465603" style="fill: #e32f27; stroke: #e32f27"/>
     <use xlink:href="#m4966f25e77" x="160.173119" y="252.116333" style="fill: #e32f27; stroke: #e32f27"/>
     <use xlink:href="#m4966f25e77" x="175.347442" y="256.238512" style="fill: #e32f27; stroke: #e32f27"/>
     <use xlink:href="#m4966f25e77" x="190.521766" y="206.661957" style="fill: #e32f27; stroke: #e32f27"/>
     <use xlink:href="#m4966f25e77" x="205.696089" y="227.125628" style="fill: #e32f27; stroke: #e32f27"/>
     <use xlink:href="#m4966f25e77" x="220.870413" y="246.661808" style="fill: #e32f27; stroke: #e32f27"/>
     <use xlink:href="#m4966f25e77" x="236.044736" y="252.444693" style="fill: #e32f27; stroke: #e32f27"/>
     <use xlink:href="#m4966f25e77" x="251.21906" y="261.80206" style="fill: #e32f27; stroke: #e32f27"/>
     <use xlink:href="#m4966f25e77" x="266.393384" y="248.767064" style="fill: #e32f27; stroke: #e32f27"/>
     <use xlink:href="#m4966f25e77" x="281.567707" y="217.584206" style="fill: #e32f27; stroke: #e32f27"/>
     <use xlink:href="#m4966f25e77" x="296.742031" y="251.091047" style="fill: #e32f27; stroke: #e32f27"/>
     <use xlink:href="#m4966f25e77" x="311.916354" y="236.039838" style="fill: #e32f27; stroke: #e32f27"/>
     <use xlink:href="#m4966f25e77" x="327.090678" y="219.943044" style="fill: #e32f27; stroke: #e32f27"/>
     <use xlink:href="#m4966f25e77" x="342.265001" y="224.205751" style="fill: #e32f27; stroke: #e32f27"/>
     <use xlink:href="#m4966f25e77" x="357.439325" y="242.847424" style="fill: #e32f27; stroke: #e32f27"/>
     <use xlink:href="#m4966f25e77" x="372.613648" y="213.59973" style="fill: #e32f27; stroke: #e32f27"/>
     <use xlink:href="#m4966f25e77" x="387.787972" y="194.485794" style="fill: #e32f27; stroke: #e32f27"/>
     <use xlink:href="#m4966f25e77" x="402.962295" y="169.625058" style="fill: #e32f27; stroke: #e32f27"/>
     <use xlink:href="#m4966f25e77" x="418.136619" y="159.274573" style="fill: #e32f27; stroke: #e32f27"/>
     <use xlink:href="#m4966f25e77" x="433.310942" y="153.240063" style="fill: #e32f27; stroke: #e32f27"/>
     <use xlink:href="#m4966f25e77" x="448.485266" y="155.278749" style="fill: #e32f27; stroke: #e32f27"/>
     <use xlink:href="#m4966f25e77" x="463.659589" y="135.664797" style="fill: #e32f27; stroke: #e32f27"/>
     <use xlink:href="#m4966f25e77" x="478.833913" y="49.485508" style="fill: #e32f27; stroke: #e32f27"/>
     <use xlink:href="#m4966f25e77" x="494.008236" y="137.124736" style="fill: #e32f27; stroke: #e32f27"/>
    </g>
   </g>
   <g id="line2d_16">
    <path d="M 69.127178 291.364417 
L 84.301501 286.082774 
L 99.475825 280.801131 
L 114.650148 275.519488 
L 129.824472 270.237845 
L 144.998795 264.956202 
L 160.173119 259.674559 
L 175.347442 254.392916 
L 190.521766 249.111273 
L 205.696089 243.82963 
L 220.870413 238.547986 
L 236.044736 233.266343 
L 251.21906 227.9847 
L 266.393384 222.703057 
L 281.567707 217.421414 
L 296.742031 212.139771 
L 311.916354 206.858128 
L 327.090678 201.576485 
L 342.265001 196.294842 
L 357.439325 191.013199 
L 372.613648 185.731556 
L 387.787972 180.449913 
L 402.962295 175.16827 
L 418.136619 169.886627 
L 433.310942 164.604984 
L 448.485266 159.323341 
L 463.659589 154.041698 
L 478.833913 148.760055 
L 494.008236 143.478411 
" clip-path="url(#p6971b1a31a)" style="fill: none; stroke-dasharray: 7.4,3.2; stroke-dashoffset: 0; stroke: #ff0000; stroke-opacity: 0.7; stroke-width: 2"/>
   </g>
   <g id="patch_3">
    <path d="M 47.883125 303.458362 
L 47.883125 37.391562 
" style="fill: none; stroke: #cccccc; stroke-linejoin: miter; stroke-linecap: square"/>
   </g>
   <g id="patch_4">
    <path d="M 47.883125 303.458362 
L 515.252289 303.458362 
" style="fill: none; stroke: #cccccc; stroke-linejoin: miter; stroke-linecap: square"/>
   </g>
   <g id="patch_5">
    <path d="M 471.655703 122.404494 
Q 467.274811 127.331457 464.797999 132.902122 
" style="fill: none; stroke: #ffffff; stroke-width: 0.8; stroke-linecap: round"/>
    <path d="M 468.775378 129.627594 
L 464.797999 132.902122 
L 464.564805 127.755501 
" style="fill: none; stroke: #ffffff; stroke-width: 0.8; stroke-linecap: round"/>
   </g>
   <g id="text_17">
    <g id="patch_6">
     <path d="M 456.072427 120.54187 
L 516.277027 120.54187 
Q 519.733027 120.54187 519.733027 117.08587 
L 519.733027 106.55047 
Q 519.733027 103.09447 516.277027 103.09447 
L 456.072427 103.09447 
Q 452.616427 103.09447 452.616427 106.55047 
L 452.616427 117.08587 
Q 452.616427 120.54187 456.072427 120.54187 
z
" style="fill: #ffffff; opacity: 0.8; stroke: #ffffff; stroke-width: 0.8; stroke-linejoin: miter"/>
    </g>
    <!-- 2023: 21.9x -->
    <g style="fill: #262626" transform="translate(456.072427 114.79627) scale(0.1152 -0.1152)">
     <defs>
      <path id="ArialMT-2e" d="M 581 0 
L 581 641 
L 1222 641 
L 1222 0 
L 581 0 
z
" transform="scale(0.015625)"/>
      <path id="ArialMT-39" d="M 350 1059 
L 891 1109 
Q 959 728 1153 556 
Q 1347 384 1650 384 
Q 1909 384 2104 503 
Q 2300 622 2425 820 
Q 2550 1019 2634 1356 
Q 2719 1694 2719 2044 
Q 2719 2081 2716 2156 
Q 2547 1888 2255 1720 
Q 1963 1553 1622 1553 
Q 1053 1553 659 1965 
Q 266 2378 266 3053 
Q 266 3750 677 4175 
Q 1088 4600 1706 4600 
Q 2153 4600 2523 4359 
Q 2894 4119 3086 3673 
Q 3278 3228 3278 2384 
Q 3278 1506 3087 986 
Q 2897 466 2520 194 
Q 2144 -78 1638 -78 
Q 1100 -78 759 220 
Q 419 519 350 1059 
z
M 2653 3081 
Q 2653 3566 2395 3850 
Q 2138 4134 1775 4134 
Q 1400 4134 1122 3828 
Q 844 3522 844 3034 
Q 844 2597 1108 2323 
Q 1372 2050 1759 2050 
Q 2150 2050 2401 2323 
Q 2653 2597 2653 3081 
z
" transform="scale(0.015625)"/>
      <path id="ArialMT-78" d="M 47 0 
L 1259 1725 
L 138 3319 
L 841 3319 
L 1350 2541 
Q 1494 2319 1581 2169 
Q 1719 2375 1834 2534 
L 2394 3319 
L 3066 3319 
L 1919 1756 
L 3153 0 
L 2463 0 
L 1781 1031 
L 1600 1309 
L 728 0 
L 47 0 
z
" transform="scale(0.015625)"/>
     </defs>
     <use xlink:href="#ArialMT-32"/>
     <use xlink:href="#ArialMT-30" transform="translate(55.615234 0)"/>
     <use xlink:href="#ArialMT-32" transform="translate(111.230469 0)"/>
     <use xlink:href="#ArialMT-33" transform="translate(166.845703 0)"/>
     <use xlink:href="#ArialMT-3a" transform="translate(222.460938 0)"/>
     <use xlink:href="#ArialMT-20" transform="translate(250.244141 0)"/>
     <use xlink:href="#ArialMT-32" transform="translate(278.027344 0)"/>
     <use xlink:href="#ArialMT-31" transform="translate(333.642578 0)"/>
     <use xlink:href="#ArialMT-2e" transform="translate(389.257812 0)"/>
     <use xlink:href="#ArialMT-39" transform="translate(417.041016 0)"/>
     <use xlink:href="#ArialMT-78" transform="translate(472.65625 0)"/>
    </g>
   </g>
   <g id="patch_7">
    <path d="M 491.073215 35.089772 
Q 484.726564 40.235695 480.411374 46.721844 
" style="fill: none; stroke: #ffffff; stroke-width: 0.8; stroke-linecap: round"/>
    <path d="M 484.882042 44.16153 
L 480.411374 46.721844 
L 481.045524 41.609121 
" style="fill: none; stroke: #ffffff; stroke-width: 0.8; stroke-linecap: round"/>
   </g>
   <g id="text_18">
    <g id="patch_8">
     <path d="M 481.868777 33.460854 
L 542.073377 33.460854 
Q 545.529377 33.460854 545.529377 30.004854 
L 545.529377 19.469454 
Q 545.529377 16.013454 542.073377 16.013454 
L 481.868777 16.013454 
Q 478.412777 16.013454 478.412777 19.469454 
L 478.412777 30.004854 
Q 478.412777 33.460854 481.868777 33.460854 
z
" style="fill: #ffffff; opacity: 0.8; stroke: #ffffff; stroke-width: 0.8; stroke-linejoin: miter"/>
    </g>
    <!-- 2024: 34.8x -->
    <g style="fill: #262626" transform="translate(481.868777 27.715254) scale(0.1152 -0.1152)">
     <defs>
      <path id="ArialMT-34" d="M 2069 0 
L 2069 1097 
L 81 1097 
L 81 1613 
L 2172 4581 
L 2631 4581 
L 2631 1613 
L 3250 1613 
L 3250 1097 
L 2631 1097 
L 2631 0 
L 2069 0 
z
M 2069 1613 
L 2069 3678 
L 634 1613 
L 2069 1613 
z
" transform="scale(0.015625)"/>
      <path id="ArialMT-38" d="M 1131 2484 
Q 781 2613 612 2850 
Q 444 3088 444 3419 
Q 444 3919 803 4259 
Q 1163 4600 1759 4600 
Q 2359 4600 2725 4251 
Q 3091 3903 3091 3403 
Q 3091 3084 2923 2848 
Q 2756 2613 2416 2484 
Q 2838 2347 3058 2040 
Q 3278 1734 3278 1309 
Q 3278 722 2862 322 
Q 2447 -78 1769 -78 
Q 1091 -78 675 323 
Q 259 725 259 1325 
Q 259 1772 486 2073 
Q 713 2375 1131 2484 
z
M 1019 3438 
Q 1019 3113 1228 2906 
Q 1438 2700 1772 2700 
Q 2097 2700 2305 2904 
Q 2513 3109 2513 3406 
Q 2513 3716 2298 3927 
Q 2084 4138 1766 4138 
Q 1444 4138 1231 3931 
Q 1019 3725 1019 3438 
z
M 838 1322 
Q 838 1081 952 856 
Q 1066 631 1291 507 
Q 1516 384 1775 384 
Q 2178 384 2440 643 
Q 2703 903 2703 1303 
Q 2703 1709 2433 1975 
Q 2163 2241 1756 2241 
Q 1359 2241 1098 1978 
Q 838 1716 838 1322 
z
" transform="scale(0.015625)"/>
     </defs>
     <use xlink:href="#ArialMT-32"/>
     <use xlink:href="#ArialMT-30" transform="translate(55.615234 0)"/>
     <use xlink:href="#ArialMT-32" transform="translate(111.230469 0)"/>
     <use xlink:href="#ArialMT-34" transform="translate(166.845703 0)"/>
     <use xlink:href="#ArialMT-3a" transform="translate(222.460938 0)"/>
     <use xlink:href="#ArialMT-20" transform="translate(250.244141 0)"/>
     <use xlink:href="#ArialMT-33" transform="translate(278.027344 0)"/>
     <use xlink:href="#ArialMT-34" transform="translate(333.642578 0)"/>
     <use xlink:href="#ArialMT-2e" transform="translate(389.257812 0)"/>
     <use xlink:href="#ArialMT-38" transform="translate(417.041016 0)"/>
     <use xlink:href="#ArialMT-78" transform="translate(472.65625 0)"/>
    </g>
   </g>
   <g id="patch_9">
    <path d="M 522.993926 167.86176 
Q 514.154505 149.099629 496.494466 138.381785 
" style="fill: none; stroke: #ffffff; stroke-width: 0.8; stroke-linecap: round"/>
    <path d="M 499.238381 142.742176 
L 496.494466 138.381785 
L 501.629128 138.802888 
" style="fill: none; stroke: #ffffff; stroke-width: 0.8; stroke-linecap: round"/>
   </g>
   <g id="text_19">
    <g id="patch_10">
     <path d="M 497.043101 187.527267 
L 557.247701 187.527267 
Q 560.703701 187.527267 560.703701 184.071267 
L 560.703701 173.535867 
Q 560.703701 170.079867 557.247701 170.079867 
L 497.043101 170.079867 
Q 493.587101 170.079867 493.587101 173.535867 
L 493.587101 184.071267 
Q 493.587101 187.527267 497.043101 187.527267 
z
" style="fill: #ffffff; opacity: 0.8; stroke: #ffffff; stroke-width: 0.8; stroke-linejoin: miter"/>
    </g>
    <!-- 2025: 21.7x -->
    <g style="fill: #262626" transform="translate(497.043101 181.781667) scale(0.1152 -0.1152)">
     <defs>
      <path id="ArialMT-37" d="M 303 3981 
L 303 4522 
L 3269 4522 
L 3269 4084 
Q 2831 3619 2401 2847 
Q 1972 2075 1738 1259 
Q 1569 684 1522 0 
L 944 0 
Q 953 541 1156 1306 
Q 1359 2072 1739 2783 
Q 2119 3494 2547 3981 
L 303 3981 
z
" transform="scale(0.015625)"/>
     </defs>
     <use xlink:href="#ArialMT-32"/>
     <use xlink:href="#ArialMT-30" transform="translate(55.615234 0)"/>
     <use xlink:href="#ArialMT-32" transform="translate(111.230469 0)"/>
     <use xlink:href="#ArialMT-35" transform="translate(166.845703 0)"/>
     <use xlink:href="#ArialMT-3a" transform="translate(222.460938 0)"/>
     <use xlink:href="#ArialMT-20" transform="translate(250.244141 0)"/>
     <use xlink:href="#ArialMT-32" transform="translate(278.027344 0)"/>
     <use xlink:href="#ArialMT-31" transform="translate(333.642578 0)"/>
     <use xlink:href="#ArialMT-2e" transform="translate(389.257812 0)"/>
     <use xlink:href="#ArialMT-37" transform="translate(417.041016 0)"/>
     <use xlink:href="#ArialMT-78" transform="translate(472.65625 0)"/>
    </g>
   </g>
   <g id="text_20">
    <!-- Ratio of National to International Staff Casualties by Year -->
    <g style="fill: #262626" transform="translate(92.278957 17.391562) scale(0.14 -0.14)">
     <defs>
      <path id="Arial-BoldMT-52" d="M 469 0 
L 469 4581 
L 2416 4581 
Q 3150 4581 3483 4457 
Q 3816 4334 4016 4018 
Q 4216 3703 4216 3297 
Q 4216 2781 3912 2445 
Q 3609 2109 3006 2022 
Q 3306 1847 3501 1637 
Q 3697 1428 4028 894 
L 4588 0 
L 3481 0 
L 2813 997 
Q 2456 1531 2325 1670 
Q 2194 1809 2047 1861 
Q 1900 1913 1581 1913 
L 1394 1913 
L 1394 0 
L 469 0 
z
M 1394 2644 
L 2078 2644 
Q 2744 2644 2909 2700 
Q 3075 2756 3169 2893 
Q 3263 3031 3263 3238 
Q 3263 3469 3139 3611 
Q 3016 3753 2791 3791 
Q 2678 3806 2116 3806 
L 1394 3806 
L 1394 2644 
z
" transform="scale(0.015625)"/>
      <path id="Arial-BoldMT-61" d="M 1116 2306 
L 319 2450 
Q 453 2931 781 3162 
Q 1109 3394 1756 3394 
Q 2344 3394 2631 3255 
Q 2919 3116 3036 2902 
Q 3153 2688 3153 2116 
L 3144 1091 
Q 3144 653 3186 445 
Q 3228 238 3344 0 
L 2475 0 
Q 2441 88 2391 259 
Q 2369 338 2359 363 
Q 2134 144 1878 34 
Q 1622 -75 1331 -75 
Q 819 -75 523 203 
Q 228 481 228 906 
Q 228 1188 362 1408 
Q 497 1628 739 1745 
Q 981 1863 1438 1950 
Q 2053 2066 2291 2166 
L 2291 2253 
Q 2291 2506 2166 2614 
Q 2041 2722 1694 2722 
Q 1459 2722 1328 2630 
Q 1197 2538 1116 2306 
z
M 2291 1594 
Q 2122 1538 1756 1459 
Q 1391 1381 1278 1306 
Q 1106 1184 1106 997 
Q 1106 813 1243 678 
Q 1381 544 1594 544 
Q 1831 544 2047 700 
Q 2206 819 2256 991 
Q 2291 1103 2291 1419 
L 2291 1594 
z
" transform="scale(0.015625)"/>
      <path id="Arial-BoldMT-74" d="M 1981 3319 
L 1981 2619 
L 1381 2619 
L 1381 1281 
Q 1381 875 1398 808 
Q 1416 741 1477 697 
Q 1538 653 1625 653 
Q 1747 653 1978 738 
L 2053 56 
Q 1747 -75 1359 -75 
Q 1122 -75 931 4 
Q 741 84 652 211 
Q 563 338 528 553 
Q 500 706 500 1172 
L 500 2619 
L 97 2619 
L 97 3319 
L 500 3319 
L 500 3978 
L 1381 4491 
L 1381 3319 
L 1981 3319 
z
" transform="scale(0.015625)"/>
      <path id="Arial-BoldMT-69" d="M 459 3769 
L 459 4581 
L 1338 4581 
L 1338 3769 
L 459 3769 
z
M 459 0 
L 459 3319 
L 1338 3319 
L 1338 0 
L 459 0 
z
" transform="scale(0.015625)"/>
      <path id="Arial-BoldMT-6f" d="M 256 1706 
Q 256 2144 472 2553 
Q 688 2963 1083 3178 
Q 1478 3394 1966 3394 
Q 2719 3394 3200 2905 
Q 3681 2416 3681 1669 
Q 3681 916 3195 420 
Q 2709 -75 1972 -75 
Q 1516 -75 1102 131 
Q 688 338 472 736 
Q 256 1134 256 1706 
z
M 1156 1659 
Q 1156 1166 1390 903 
Q 1625 641 1969 641 
Q 2313 641 2545 903 
Q 2778 1166 2778 1666 
Q 2778 2153 2545 2415 
Q 2313 2678 1969 2678 
Q 1625 2678 1390 2415 
Q 1156 2153 1156 1659 
z
" transform="scale(0.015625)"/>
      <path id="Arial-BoldMT-20" transform="scale(0.015625)"/>
      <path id="Arial-BoldMT-66" d="M 75 3319 
L 563 3319 
L 563 3569 
Q 563 3988 652 4194 
Q 741 4400 980 4529 
Q 1219 4659 1584 4659 
Q 1959 4659 2319 4547 
L 2200 3934 
Q 1991 3984 1797 3984 
Q 1606 3984 1523 3895 
Q 1441 3806 1441 3553 
L 1441 3319 
L 2097 3319 
L 2097 2628 
L 1441 2628 
L 1441 0 
L 563 0 
L 563 2628 
L 75 2628 
L 75 3319 
z
" transform="scale(0.015625)"/>
      <path id="Arial-BoldMT-4e" d="M 475 0 
L 475 4581 
L 1375 4581 
L 3250 1522 
L 3250 4581 
L 4109 4581 
L 4109 0 
L 3181 0 
L 1334 2988 
L 1334 0 
L 475 0 
z
" transform="scale(0.015625)"/>
      <path id="Arial-BoldMT-6e" d="M 3478 0 
L 2600 0 
L 2600 1694 
Q 2600 2231 2544 2389 
Q 2488 2547 2361 2634 
Q 2234 2722 2056 2722 
Q 1828 2722 1647 2597 
Q 1466 2472 1398 2265 
Q 1331 2059 1331 1503 
L 1331 0 
L 453 0 
L 453 3319 
L 1269 3319 
L 1269 2831 
Q 1703 3394 2363 3394 
Q 2653 3394 2893 3289 
Q 3134 3184 3257 3021 
Q 3381 2859 3429 2653 
Q 3478 2447 3478 2063 
L 3478 0 
z
" transform="scale(0.015625)"/>
      <path id="Arial-BoldMT-6c" d="M 459 0 
L 459 4581 
L 1338 4581 
L 1338 0 
L 459 0 
z
" transform="scale(0.015625)"/>
      <path id="Arial-BoldMT-49" d="M 438 0 
L 438 4581 
L 1363 4581 
L 1363 0 
L 438 0 
z
" transform="scale(0.015625)"/>
      <path id="Arial-BoldMT-65" d="M 2381 1056 
L 3256 909 
Q 3088 428 2723 176 
Q 2359 -75 1813 -75 
Q 947 -75 531 491 
Q 203 944 203 1634 
Q 203 2459 634 2926 
Q 1066 3394 1725 3394 
Q 2466 3394 2894 2905 
Q 3322 2416 3303 1406 
L 1103 1406 
Q 1113 1016 1316 798 
Q 1519 581 1822 581 
Q 2028 581 2168 693 
Q 2309 806 2381 1056 
z
M 2431 1944 
Q 2422 2325 2234 2523 
Q 2047 2722 1778 2722 
Q 1491 2722 1303 2513 
Q 1116 2303 1119 1944 
L 2431 1944 
z
" transform="scale(0.015625)"/>
      <path id="Arial-BoldMT-72" d="M 1300 0 
L 422 0 
L 422 3319 
L 1238 3319 
L 1238 2847 
Q 1447 3181 1614 3287 
Q 1781 3394 1994 3394 
Q 2294 3394 2572 3228 
L 2300 2463 
Q 2078 2606 1888 2606 
Q 1703 2606 1575 2504 
Q 1447 2403 1373 2137 
Q 1300 1872 1300 1025 
L 1300 0 
z
" transform="scale(0.015625)"/>
      <path id="Arial-BoldMT-53" d="M 231 1491 
L 1131 1578 
Q 1213 1125 1461 912 
Q 1709 700 2131 700 
Q 2578 700 2804 889 
Q 3031 1078 3031 1331 
Q 3031 1494 2936 1608 
Q 2841 1722 2603 1806 
Q 2441 1863 1863 2006 
Q 1119 2191 819 2459 
Q 397 2838 397 3381 
Q 397 3731 595 4036 
Q 794 4341 1167 4500 
Q 1541 4659 2069 4659 
Q 2931 4659 3367 4281 
Q 3803 3903 3825 3272 
L 2900 3231 
Q 2841 3584 2645 3739 
Q 2450 3894 2059 3894 
Q 1656 3894 1428 3728 
Q 1281 3622 1281 3444 
Q 1281 3281 1419 3166 
Q 1594 3019 2269 2859 
Q 2944 2700 3267 2529 
Q 3591 2359 3773 2064 
Q 3956 1769 3956 1334 
Q 3956 941 3737 597 
Q 3519 253 3119 86 
Q 2719 -81 2122 -81 
Q 1253 -81 787 320 
Q 322 722 231 1491 
z
" transform="scale(0.015625)"/>
      <path id="Arial-BoldMT-43" d="M 3397 1684 
L 4294 1400 
Q 4088 650 3608 286 
Q 3128 -78 2391 -78 
Q 1478 -78 890 545 
Q 303 1169 303 2250 
Q 303 3394 893 4026 
Q 1484 4659 2447 4659 
Q 3288 4659 3813 4163 
Q 4125 3869 4281 3319 
L 3366 3100 
Q 3284 3456 3026 3662 
Q 2769 3869 2400 3869 
Q 1891 3869 1573 3503 
Q 1256 3138 1256 2319 
Q 1256 1450 1568 1081 
Q 1881 713 2381 713 
Q 2750 713 3015 947 
Q 3281 1181 3397 1684 
z
" transform="scale(0.015625)"/>
      <path id="Arial-BoldMT-73" d="M 150 947 
L 1031 1081 
Q 1088 825 1259 692 
Q 1431 559 1741 559 
Q 2081 559 2253 684 
Q 2369 772 2369 919 
Q 2369 1019 2306 1084 
Q 2241 1147 2013 1200 
Q 950 1434 666 1628 
Q 272 1897 272 2375 
Q 272 2806 612 3100 
Q 953 3394 1669 3394 
Q 2350 3394 2681 3172 
Q 3013 2950 3138 2516 
L 2309 2363 
Q 2256 2556 2107 2659 
Q 1959 2763 1684 2763 
Q 1338 2763 1188 2666 
Q 1088 2597 1088 2488 
Q 1088 2394 1175 2328 
Q 1294 2241 1995 2081 
Q 2697 1922 2975 1691 
Q 3250 1456 3250 1038 
Q 3250 581 2869 253 
Q 2488 -75 1741 -75 
Q 1063 -75 667 200 
Q 272 475 150 947 
z
" transform="scale(0.015625)"/>
      <path id="Arial-BoldMT-75" d="M 2644 0 
L 2644 497 
Q 2463 231 2167 78 
Q 1872 -75 1544 -75 
Q 1209 -75 943 72 
Q 678 219 559 484 
Q 441 750 441 1219 
L 441 3319 
L 1319 3319 
L 1319 1794 
Q 1319 1094 1367 936 
Q 1416 778 1544 686 
Q 1672 594 1869 594 
Q 2094 594 2272 717 
Q 2450 841 2515 1023 
Q 2581 1206 2581 1919 
L 2581 3319 
L 3459 3319 
L 3459 0 
L 2644 0 
z
" transform="scale(0.015625)"/>
      <path id="Arial-BoldMT-62" d="M 422 0 
L 422 4581 
L 1300 4581 
L 1300 2931 
Q 1706 3394 2263 3394 
Q 2869 3394 3266 2955 
Q 3663 2516 3663 1694 
Q 3663 844 3258 384 
Q 2853 -75 2275 -75 
Q 1991 -75 1714 67 
Q 1438 209 1238 488 
L 1238 0 
L 422 0 
z
M 1294 1731 
Q 1294 1216 1456 969 
Q 1684 619 2063 619 
Q 2353 619 2558 867 
Q 2763 1116 2763 1650 
Q 2763 2219 2556 2470 
Q 2350 2722 2028 2722 
Q 1713 2722 1503 2476 
Q 1294 2231 1294 1731 
z
" transform="scale(0.015625)"/>
      <path id="Arial-BoldMT-79" d="M 44 3319 
L 978 3319 
L 1772 963 
L 2547 3319 
L 3456 3319 
L 2284 125 
L 2075 -453 
Q 1959 -744 1854 -897 
Q 1750 -1050 1614 -1145 
Q 1478 -1241 1279 -1294 
Q 1081 -1347 831 -1347 
Q 578 -1347 334 -1294 
L 256 -606 
Q 463 -647 628 -647 
Q 934 -647 1081 -467 
Q 1228 -288 1306 -9 
L 44 3319 
z
" transform="scale(0.015625)"/>
      <path id="Arial-BoldMT-59" d="M 1669 0 
L 1669 1928 
L -9 4581 
L 1075 4581 
L 2153 2769 
L 3209 4581 
L 4275 4581 
L 2591 1922 
L 2591 0 
L 1669 0 
z
" transform="scale(0.015625)"/>
     </defs>
     <use xlink:href="#Arial-BoldMT-52"/>
     <use xlink:href="#Arial-BoldMT-61" transform="translate(72.216797 0)"/>
     <use xlink:href="#Arial-BoldMT-74" transform="translate(127.832031 0)"/>
     <use xlink:href="#Arial-BoldMT-69" transform="translate(161.132812 0)"/>
     <use xlink:href="#Arial-BoldMT-6f" transform="translate(188.916016 0)"/>
     <use xlink:href="#Arial-BoldMT-20" transform="translate(250 0)"/>
     <use xlink:href="#Arial-BoldMT-6f" transform="translate(277.783203 0)"/>
     <use xlink:href="#Arial-BoldMT-66" transform="translate(338.867188 0)"/>
     <use xlink:href="#Arial-BoldMT-20" transform="translate(372.167969 0)"/>
     <use xlink:href="#Arial-BoldMT-4e" transform="translate(399.951172 0)"/>
     <use xlink:href="#Arial-BoldMT-61" transform="translate(472.167969 0)"/>
     <use xlink:href="#Arial-BoldMT-74" transform="translate(527.783203 0)"/>
     <use xlink:href="#Arial-BoldMT-69" transform="translate(561.083984 0)"/>
     <use xlink:href="#Arial-BoldMT-6f" transform="translate(588.867188 0)"/>
     <use xlink:href="#Arial-BoldMT-6e" transform="translate(649.951172 0)"/>
     <use xlink:href="#Arial-BoldMT-61" transform="translate(711.035156 0)"/>
     <use xlink:href="#Arial-BoldMT-6c" transform="translate(766.650391 0)"/>
     <use xlink:href="#Arial-BoldMT-20" transform="translate(794.433594 0)"/>
     <use xlink:href="#Arial-BoldMT-74" transform="translate(822.216797 0)"/>
     <use xlink:href="#Arial-BoldMT-6f" transform="translate(855.517578 0)"/>
     <use xlink:href="#Arial-BoldMT-20" transform="translate(916.601562 0)"/>
     <use xlink:href="#Arial-BoldMT-49" transform="translate(944.384766 0)"/>
     <use xlink:href="#Arial-BoldMT-6e" transform="translate(972.167969 0)"/>
     <use xlink:href="#Arial-BoldMT-74" transform="translate(1033.251953 0)"/>
     <use xlink:href="#Arial-BoldMT-65" transform="translate(1066.552734 0)"/>
     <use xlink:href="#Arial-BoldMT-72" transform="translate(1122.167969 0)"/>
     <use xlink:href="#Arial-BoldMT-6e" transform="translate(1161.083984 0)"/>
     <use xlink:href="#Arial-BoldMT-61" transform="translate(1222.167969 0)"/>
     <use xlink:href="#Arial-BoldMT-74" transform="translate(1277.783203 0)"/>
     <use xlink:href="#Arial-BoldMT-69" transform="translate(1311.083984 0)"/>
     <use xlink:href="#Arial-BoldMT-6f" transform="translate(1338.867188 0)"/>
     <use xlink:href="#Arial-BoldMT-6e" transform="translate(1399.951172 0)"/>
     <use xlink:href="#Arial-BoldMT-61" transform="translate(1461.035156 0)"/>
     <use xlink:href="#Arial-BoldMT-6c" transform="translate(1516.650391 0)"/>
     <use xlink:href="#Arial-BoldMT-20" transform="translate(1544.433594 0)"/>
     <use xlink:href="#Arial-BoldMT-53" transform="translate(1572.216797 0)"/>
     <use xlink:href="#Arial-BoldMT-74" transform="translate(1638.916016 0)"/>
     <use xlink:href="#Arial-BoldMT-61" transform="translate(1672.216797 0)"/>
     <use xlink:href="#Arial-BoldMT-66" transform="translate(1727.832031 0)"/>
     <use xlink:href="#Arial-BoldMT-66" transform="translate(1761.132812 0)"/>
     <use xlink:href="#Arial-BoldMT-20" transform="translate(1794.433594 0)"/>
     <use xlink:href="#Arial-BoldMT-43" transform="translate(1822.216797 0)"/>
     <use xlink:href="#Arial-BoldMT-61" transform="translate(1894.433594 0)"/>
     <use xlink:href="#Arial-BoldMT-73" transform="translate(1950.048828 0)"/>
     <use xlink:href="#Arial-BoldMT-75" transform="translate(2005.664062 0)"/>
     <use xlink:href="#Arial-BoldMT-61" transform="translate(2066.748047 0)"/>
     <use xlink:href="#Arial-BoldMT-6c" transform="translate(2122.363281 0)"/>
     <use xlink:href="#Arial-BoldMT-74" transform="translate(2150.146484 0)"/>
     <use xlink:href="#Arial-BoldMT-69" transform="translate(2183.447266 0)"/>
     <use xlink:href="#Arial-BoldMT-65" transform="translate(2211.230469 0)"/>
     <use xlink:href="#Arial-BoldMT-73" transform="translate(2266.845703 0)"/>
     <use xlink:href="#Arial-BoldMT-20" transform="translate(2322.460938 0)"/>
     <use xlink:href="#Arial-BoldMT-62" transform="translate(2350.244141 0)"/>
     <use xlink:href="#Arial-BoldMT-79" transform="translate(2411.328125 0)"/>
     <use xlink:href="#Arial-BoldMT-20" transform="translate(2466.943359 0)"/>
     <use xlink:href="#Arial-BoldMT-59" transform="translate(2492.976562 0)"/>
     <use xlink:href="#Arial-BoldMT-65" transform="translate(2554.175781 0)"/>
     <use xlink:href="#Arial-BoldMT-61" transform="translate(2609.791016 0)"/>
     <use xlink:href="#Arial-BoldMT-72" transform="translate(2665.40625 0)"/>
    </g>
   </g>
  </g>
 </g>
 <defs>
  <clipPath id="p6971b1a31a">
   <rect x="47.883125" y="37.391562" width="467.369164" height="266.0668"/>
  </clipPath>
 </defs>
</svg>
