<?xml version="1.0" encoding="utf-8" standalone="no"?>
<!DOCTYPE svg PUBLIC "-//W3C//DTD SVG 1.1//EN"
  "http://www.w3.org/Graphics/SVG/1.1/DTD/svg11.dtd">
<svg xmlns:xlink="http://www.w3.org/1999/xlink" width="565.236487pt" height="349.299769pt" viewBox="0 0 565.236487 349.299769" xmlns="http://www.w3.org/2000/svg" version="1.1">
 <metadata>
  <rdf:RDF xmlns:dc="http://purl.org/dc/elements/1.1/" xmlns:cc="http://creativecommons.org/ns#" xmlns:rdf="http://www.w3.org/1999/02/22-rdf-syntax-ns#">
   <cc:Work>
    <dc:type rdf:resource="http://purl.org/dc/dcmitype/StillImage"/>
    <dc:date>2025-04-07T22:37:26.964027</dc:date>
    <dc:format>image/svg+xml</dc:format>
    <dc:creator>
     <cc:Agent>
      <dc:title>Matplotlib v3.10.0, https://matplotlib.org/</dc:title>
     </cc:Agent>
    </dc:creator>
   </cc:Work>
  </rdf:RDF>
 </metadata>
 <defs>
  <style type="text/css">*{stroke-linejoin: round; stroke-linecap: butt}</style>
 </defs>
 <g id="figure_1">
  <g id="patch_1">
   <path d="M 0 349.299769 
L 565.236487 349.299769 
L 565.236487 0 
L 0 0 
z
" style="fill: #ffffff"/>
  </g>
  <g id="axes_1">
   <g id="patch_2">
    <path d="M 53.157188 324.415394 
L 558.036488 324.415394 
L 558.036488 37.391562 
L 53.157188 37.391562 
z
" style="fill: #ffffff"/>
   </g>
   <g id="matplotlib.axis_1">
    <g id="xtick_1">
     <g id="line2d_1">
      <path d="M 103.10514 324.415394 
L 103.10514 37.391562 
" clip-path="url(#p27ea4bdfd7)" style="fill: none; stroke: #cccccc; stroke-width: 0.8; stroke-linecap: round"/>
     </g>
     <g id="text_1">
      <!-- Monday -->
      <g style="fill: #262626" transform="translate(85.318421 339.873206) scale(0.1 -0.1)">
       <defs>
        <path id="ArialMT-4d" d="M 475 0 
L 475 4581 
L 1388 4581 
L 2472 1338 
Q 2622 884 2691 659 
Q 2769 909 2934 1394 
L 4031 4581 
L 4847 4581 
L 4847 0 
L 4263 0 
L 4263 3834 
L 2931 0 
L 2384 0 
L 1059 3900 
L 1059 0 
L 475 0 
z
" transform="scale(0.015625)"/>
        <path id="ArialMT-6f" d="M 213 1659 
Q 213 2581 725 3025 
Q 1153 3394 1769 3394 
Q 2453 3394 2887 2945 
Q 3322 2497 3322 1706 
Q 3322 1066 3130 698 
Q 2938 331 2570 128 
Q 2203 -75 1769 -75 
Q 1072 -75 642 372 
Q 213 819 213 1659 
z
M 791 1659 
Q 791 1022 1069 705 
Q 1347 388 1769 388 
Q 2188 388 2466 706 
Q 2744 1025 2744 1678 
Q 2744 2294 2464 2611 
Q 2184 2928 1769 2928 
Q 1347 2928 1069 2612 
Q 791 2297 791 1659 
z
" transform="scale(0.015625)"/>
        <path id="ArialMT-6e" d="M 422 0 
L 422 3319 
L 928 3319 
L 928 2847 
Q 1294 3394 1984 3394 
Q 2284 3394 2536 3286 
Q 2788 3178 2913 3003 
Q 3038 2828 3088 2588 
Q 3119 2431 3119 2041 
L 3119 0 
L 2556 0 
L 2556 2019 
Q 2556 2363 2490 2533 
Q 2425 2703 2258 2804 
Q 2091 2906 1866 2906 
Q 1506 2906 1245 2678 
Q 984 2450 984 1813 
L 984 0 
L 422 0 
z
" transform="scale(0.015625)"/>
        <path id="ArialMT-64" d="M 2575 0 
L 2575 419 
Q 2259 -75 1647 -75 
Q 1250 -75 917 144 
Q 584 363 401 755 
Q 219 1147 219 1656 
Q 219 2153 384 2558 
Q 550 2963 881 3178 
Q 1213 3394 1622 3394 
Q 1922 3394 2156 3267 
Q 2391 3141 2538 2938 
L 2538 4581 
L 3097 4581 
L 3097 0 
L 2575 0 
z
M 797 1656 
Q 797 1019 1065 703 
Q 1334 388 1700 388 
Q 2069 388 2326 689 
Q 2584 991 2584 1609 
Q 2584 2291 2321 2609 
Q 2059 2928 1675 2928 
Q 1300 2928 1048 2622 
Q 797 2316 797 1656 
z
" transform="scale(0.015625)"/>
        <path id="ArialMT-61" d="M 2588 409 
Q 2275 144 1986 34 
Q 1697 -75 1366 -75 
Q 819 -75 525 192 
Q 231 459 231 875 
Q 231 1119 342 1320 
Q 453 1522 633 1644 
Q 813 1766 1038 1828 
Q 1203 1872 1538 1913 
Q 2219 1994 2541 2106 
Q 2544 2222 2544 2253 
Q 2544 2597 2384 2738 
Q 2169 2928 1744 2928 
Q 1347 2928 1158 2789 
Q 969 2650 878 2297 
L 328 2372 
Q 403 2725 575 2942 
Q 747 3159 1072 3276 
Q 1397 3394 1825 3394 
Q 2250 3394 2515 3294 
Q 2781 3194 2906 3042 
Q 3031 2891 3081 2659 
Q 3109 2516 3109 2141 
L 3109 1391 
Q 3109 606 3145 398 
Q 3181 191 3288 0 
L 2700 0 
Q 2613 175 2588 409 
z
M 2541 1666 
Q 2234 1541 1622 1453 
Q 1275 1403 1131 1340 
Q 988 1278 909 1158 
Q 831 1038 831 891 
Q 831 666 1001 516 
Q 1172 366 1500 366 
Q 1825 366 2078 508 
Q 2331 650 2450 897 
Q 2541 1088 2541 1459 
L 2541 1666 
z
" transform="scale(0.015625)"/>
        <path id="ArialMT-79" d="M 397 -1278 
L 334 -750 
Q 519 -800 656 -800 
Q 844 -800 956 -737 
Q 1069 -675 1141 -563 
Q 1194 -478 1313 -144 
Q 1328 -97 1363 -6 
L 103 3319 
L 709 3319 
L 1400 1397 
Q 1534 1031 1641 628 
Q 1738 1016 1872 1384 
L 2581 3319 
L 3144 3319 
L 1881 -56 
Q 1678 -603 1566 -809 
Q 1416 -1088 1222 -1217 
Q 1028 -1347 759 -1347 
Q 597 -1347 397 -1278 
z
" transform="scale(0.015625)"/>
       </defs>
       <use xlink:href="#ArialMT-4d"/>
       <use xlink:href="#ArialMT-6f" transform="translate(83.300781 0)"/>
       <use xlink:href="#ArialMT-6e" transform="translate(138.916016 0)"/>
       <use xlink:href="#ArialMT-64" transform="translate(194.53125 0)"/>
       <use xlink:href="#ArialMT-61" transform="translate(250.146484 0)"/>
       <use xlink:href="#ArialMT-79" transform="translate(305.761719 0)"/>
      </g>
     </g>
    </g>
    <g id="xtick_2">
     <g id="line2d_2">
      <path d="M 170.602372 324.415394 
L 170.602372 37.391562 
" clip-path="url(#p27ea4bdfd7)" style="fill: none; stroke: #cccccc; stroke-width: 0.8; stroke-linecap: round"/>
     </g>
     <g id="text_2">
      <!-- Tuesday -->
      <g style="fill: #262626" transform="translate(151.614091 339.873206) scale(0.1 -0.1)">
       <defs>
        <path id="ArialMT-54" d="M 1659 0 
L 1659 4041 
L 150 4041 
L 150 4581 
L 3781 4581 
L 3781 4041 
L 2266 4041 
L 2266 0 
L 1659 0 
z
" transform="scale(0.015625)"/>
        <path id="ArialMT-75" d="M 2597 0 
L 2597 488 
Q 2209 -75 1544 -75 
Q 1250 -75 995 37 
Q 741 150 617 320 
Q 494 491 444 738 
Q 409 903 409 1263 
L 409 3319 
L 972 3319 
L 972 1478 
Q 972 1038 1006 884 
Q 1059 663 1231 536 
Q 1403 409 1656 409 
Q 1909 409 2131 539 
Q 2353 669 2445 892 
Q 2538 1116 2538 1541 
L 2538 3319 
L 3100 3319 
L 3100 0 
L 2597 0 
z
" transform="scale(0.015625)"/>
        <path id="ArialMT-65" d="M 2694 1069 
L 3275 997 
Q 3138 488 2766 206 
Q 2394 -75 1816 -75 
Q 1088 -75 661 373 
Q 234 822 234 1631 
Q 234 2469 665 2931 
Q 1097 3394 1784 3394 
Q 2450 3394 2872 2941 
Q 3294 2488 3294 1666 
Q 3294 1616 3291 1516 
L 816 1516 
Q 847 969 1125 678 
Q 1403 388 1819 388 
Q 2128 388 2347 550 
Q 2566 713 2694 1069 
z
M 847 1978 
L 2700 1978 
Q 2663 2397 2488 2606 
Q 2219 2931 1791 2931 
Q 1403 2931 1139 2672 
Q 875 2413 847 1978 
z
" transform="scale(0.015625)"/>
        <path id="ArialMT-73" d="M 197 991 
L 753 1078 
Q 800 744 1014 566 
Q 1228 388 1613 388 
Q 2000 388 2187 545 
Q 2375 703 2375 916 
Q 2375 1106 2209 1216 
Q 2094 1291 1634 1406 
Q 1016 1563 777 1677 
Q 538 1791 414 1992 
Q 291 2194 291 2438 
Q 291 2659 392 2848 
Q 494 3038 669 3163 
Q 800 3259 1026 3326 
Q 1253 3394 1513 3394 
Q 1903 3394 2198 3281 
Q 2494 3169 2634 2976 
Q 2775 2784 2828 2463 
L 2278 2388 
Q 2241 2644 2061 2787 
Q 1881 2931 1553 2931 
Q 1166 2931 1000 2803 
Q 834 2675 834 2503 
Q 834 2394 903 2306 
Q 972 2216 1119 2156 
Q 1203 2125 1616 2013 
Q 2213 1853 2448 1751 
Q 2684 1650 2818 1456 
Q 2953 1263 2953 975 
Q 2953 694 2789 445 
Q 2625 197 2315 61 
Q 2006 -75 1616 -75 
Q 969 -75 630 194 
Q 291 463 197 991 
z
" transform="scale(0.015625)"/>
       </defs>
       <use xlink:href="#ArialMT-54"/>
       <use xlink:href="#ArialMT-75" transform="translate(57.333984 0)"/>
       <use xlink:href="#ArialMT-65" transform="translate(112.949219 0)"/>
       <use xlink:href="#ArialMT-73" transform="translate(168.564453 0)"/>
       <use xlink:href="#ArialMT-64" transform="translate(218.564453 0)"/>
       <use xlink:href="#ArialMT-61" transform="translate(274.179688 0)"/>
       <use xlink:href="#ArialMT-79" transform="translate(329.794922 0)"/>
      </g>
     </g>
    </g>
    <g id="xtick_3">
     <g id="line2d_3">
      <path d="M 238.099605 324.415394 
L 238.099605 37.391562 
" clip-path="url(#p27ea4bdfd7)" style="fill: none; stroke: #cccccc; stroke-width: 0.8; stroke-linecap: round"/>
     </g>
     <g id="text_3">
      <!-- Wednesday -->
      <g style="fill: #262626" transform="translate(211.784761 339.873206) scale(0.1 -0.1)">
       <defs>
        <path id="ArialMT-57" d="M 1294 0 
L 78 4581 
L 700 4581 
L 1397 1578 
Q 1509 1106 1591 641 
Q 1766 1375 1797 1488 
L 2669 4581 
L 3400 4581 
L 4056 2263 
Q 4303 1400 4413 641 
Q 4500 1075 4641 1638 
L 5359 4581 
L 5969 4581 
L 4713 0 
L 4128 0 
L 3163 3491 
Q 3041 3928 3019 4028 
Q 2947 3713 2884 3491 
L 1913 0 
L 1294 0 
z
" transform="scale(0.015625)"/>
       </defs>
       <use xlink:href="#ArialMT-57"/>
       <use xlink:href="#ArialMT-65" transform="translate(92.634766 0)"/>
       <use xlink:href="#ArialMT-64" transform="translate(148.25 0)"/>
       <use xlink:href="#ArialMT-6e" transform="translate(203.865234 0)"/>
       <use xlink:href="#ArialMT-65" transform="translate(259.480469 0)"/>
       <use xlink:href="#ArialMT-73" transform="translate(315.095703 0)"/>
       <use xlink:href="#ArialMT-64" transform="translate(365.095703 0)"/>
       <use xlink:href="#ArialMT-61" transform="translate(420.710938 0)"/>
       <use xlink:href="#ArialMT-79" transform="translate(476.326172 0)"/>
      </g>
     </g>
    </g>
    <g id="xtick_4">
     <g id="line2d_4">
      <path d="M 305.596837 324.415394 
L 305.596837 37.391562 
" clip-path="url(#p27ea4bdfd7)" style="fill: none; stroke: #cccccc; stroke-width: 0.8; stroke-linecap: round"/>
     </g>
     <g id="text_4">
      <!-- Thursday -->
      <g style="fill: #262626" transform="translate(284.756213 339.873206) scale(0.1 -0.1)">
       <defs>
        <path id="ArialMT-68" d="M 422 0 
L 422 4581 
L 984 4581 
L 984 2938 
Q 1378 3394 1978 3394 
Q 2347 3394 2619 3248 
Q 2891 3103 3008 2847 
Q 3125 2591 3125 2103 
L 3125 0 
L 2563 0 
L 2563 2103 
Q 2563 2525 2380 2717 
Q 2197 2909 1863 2909 
Q 1613 2909 1392 2779 
Q 1172 2650 1078 2428 
Q 984 2206 984 1816 
L 984 0 
L 422 0 
z
" transform="scale(0.015625)"/>
        <path id="ArialMT-72" d="M 416 0 
L 416 3319 
L 922 3319 
L 922 2816 
Q 1116 3169 1280 3281 
Q 1444 3394 1641 3394 
Q 1925 3394 2219 3213 
L 2025 2691 
Q 1819 2813 1613 2813 
Q 1428 2813 1281 2702 
Q 1134 2591 1072 2394 
Q 978 2094 978 1738 
L 978 0 
L 416 0 
z
" transform="scale(0.015625)"/>
       </defs>
       <use xlink:href="#ArialMT-54"/>
       <use xlink:href="#ArialMT-68" transform="translate(61.083984 0)"/>
       <use xlink:href="#ArialMT-75" transform="translate(116.699219 0)"/>
       <use xlink:href="#ArialMT-72" transform="translate(172.314453 0)"/>
       <use xlink:href="#ArialMT-73" transform="translate(205.615234 0)"/>
       <use xlink:href="#ArialMT-64" transform="translate(255.615234 0)"/>
       <use xlink:href="#ArialMT-61" transform="translate(311.230469 0)"/>
       <use xlink:href="#ArialMT-79" transform="translate(366.845703 0)"/>
      </g>
     </g>
    </g>
    <g id="xtick_5">
     <g id="line2d_5">
      <path d="M 373.09407 324.415394 
L 373.09407 37.391562 
" clip-path="url(#p27ea4bdfd7)" style="fill: none; stroke: #cccccc; stroke-width: 0.8; stroke-linecap: round"/>
     </g>
     <g id="text_5">
      <!-- Friday -->
      <g style="fill: #262626" transform="translate(359.203445 339.873206) scale(0.1 -0.1)">
       <defs>
        <path id="ArialMT-46" d="M 525 0 
L 525 4581 
L 3616 4581 
L 3616 4041 
L 1131 4041 
L 1131 2622 
L 3281 2622 
L 3281 2081 
L 1131 2081 
L 1131 0 
L 525 0 
z
" transform="scale(0.015625)"/>
        <path id="ArialMT-69" d="M 425 3934 
L 425 4581 
L 988 4581 
L 988 3934 
L 425 3934 
z
M 425 0 
L 425 3319 
L 988 3319 
L 988 0 
L 425 0 
z
" transform="scale(0.015625)"/>
       </defs>
       <use xlink:href="#ArialMT-46"/>
       <use xlink:href="#ArialMT-72" transform="translate(61.083984 0)"/>
       <use xlink:href="#ArialMT-69" transform="translate(94.384766 0)"/>
       <use xlink:href="#ArialMT-64" transform="translate(116.601562 0)"/>
       <use xlink:href="#ArialMT-61" transform="translate(172.216797 0)"/>
       <use xlink:href="#ArialMT-79" transform="translate(227.832031 0)"/>
      </g>
     </g>
    </g>
    <g id="xtick_6">
     <g id="line2d_6">
      <path d="M 440.591303 324.415394 
L 440.591303 37.391562 
" clip-path="url(#p27ea4bdfd7)" style="fill: none; stroke: #cccccc; stroke-width: 0.8; stroke-linecap: round"/>
     </g>
     <g id="text_6">
      <!-- Saturday -->
      <g style="fill: #262626" transform="translate(420.580365 339.995081) scale(0.1 -0.1)">
       <defs>
        <path id="ArialMT-53" d="M 288 1472 
L 859 1522 
Q 900 1178 1048 958 
Q 1197 738 1509 602 
Q 1822 466 2213 466 
Q 2559 466 2825 569 
Q 3091 672 3220 851 
Q 3350 1031 3350 1244 
Q 3350 1459 3225 1620 
Q 3100 1781 2813 1891 
Q 2628 1963 1997 2114 
Q 1366 2266 1113 2400 
Q 784 2572 623 2826 
Q 463 3081 463 3397 
Q 463 3744 659 4045 
Q 856 4347 1234 4503 
Q 1613 4659 2075 4659 
Q 2584 4659 2973 4495 
Q 3363 4331 3572 4012 
Q 3781 3694 3797 3291 
L 3216 3247 
Q 3169 3681 2898 3903 
Q 2628 4125 2100 4125 
Q 1550 4125 1298 3923 
Q 1047 3722 1047 3438 
Q 1047 3191 1225 3031 
Q 1400 2872 2139 2705 
Q 2878 2538 3153 2413 
Q 3553 2228 3743 1945 
Q 3934 1663 3934 1294 
Q 3934 928 3725 604 
Q 3516 281 3123 101 
Q 2731 -78 2241 -78 
Q 1619 -78 1198 103 
Q 778 284 539 648 
Q 300 1013 288 1472 
z
" transform="scale(0.015625)"/>
        <path id="ArialMT-74" d="M 1650 503 
L 1731 6 
Q 1494 -44 1306 -44 
Q 1000 -44 831 53 
Q 663 150 594 308 
Q 525 466 525 972 
L 525 2881 
L 113 2881 
L 113 3319 
L 525 3319 
L 525 4141 
L 1084 4478 
L 1084 3319 
L 1650 3319 
L 1650 2881 
L 1084 2881 
L 1084 941 
Q 1084 700 1114 631 
Q 1144 563 1211 522 
Q 1278 481 1403 481 
Q 1497 481 1650 503 
z
" transform="scale(0.015625)"/>
       </defs>
       <use xlink:href="#ArialMT-53"/>
       <use xlink:href="#ArialMT-61" transform="translate(66.699219 0)"/>
       <use xlink:href="#ArialMT-74" transform="translate(122.314453 0)"/>
       <use xlink:href="#ArialMT-75" transform="translate(150.097656 0)"/>
       <use xlink:href="#ArialMT-72" transform="translate(205.712891 0)"/>
       <use xlink:href="#ArialMT-64" transform="translate(239.013672 0)"/>
       <use xlink:href="#ArialMT-61" transform="translate(294.628906 0)"/>
       <use xlink:href="#ArialMT-79" transform="translate(350.244141 0)"/>
      </g>
     </g>
    </g>
    <g id="xtick_7">
     <g id="line2d_7">
      <path d="M 508.088535 324.415394 
L 508.088535 37.391562 
" clip-path="url(#p27ea4bdfd7)" style="fill: none; stroke: #cccccc; stroke-width: 0.8; stroke-linecap: round"/>
     </g>
     <g id="text_7">
      <!-- Sunday -->
      <g style="fill: #262626" transform="translate(491.131504 339.995081) scale(0.1 -0.1)">
       <use xlink:href="#ArialMT-53"/>
       <use xlink:href="#ArialMT-75" transform="translate(66.699219 0)"/>
       <use xlink:href="#ArialMT-6e" transform="translate(122.314453 0)"/>
       <use xlink:href="#ArialMT-64" transform="translate(177.929688 0)"/>
       <use xlink:href="#ArialMT-61" transform="translate(233.544922 0)"/>
       <use xlink:href="#ArialMT-79" transform="translate(289.160156 0)"/>
      </g>
     </g>
    </g>
   </g>
   <g id="matplotlib.axis_2">
    <g id="ytick_1">
     <g id="line2d_8">
      <path d="M 53.157188 324.415394 
L 558.036488 324.415394 
" clip-path="url(#p27ea4bdfd7)" style="fill: none; stroke-dasharray: 2.96,1.28; stroke-dashoffset: 0; stroke: #cccccc; stroke-opacity: 0.7; stroke-width: 0.8"/>
     </g>
     <g id="text_8">
      <!-- 0 -->
      <g style="fill: #262626" transform="translate(39.29625 327.9943) scale(0.1 -0.1)">
       <defs>
        <path id="ArialMT-30" d="M 266 2259 
Q 266 3072 433 3567 
Q 600 4063 929 4331 
Q 1259 4600 1759 4600 
Q 2128 4600 2406 4451 
Q 2684 4303 2865 4023 
Q 3047 3744 3150 3342 
Q 3253 2941 3253 2259 
Q 3253 1453 3087 958 
Q 2922 463 2592 192 
Q 2263 -78 1759 -78 
Q 1097 -78 719 397 
Q 266 969 266 2259 
z
M 844 2259 
Q 844 1131 1108 757 
Q 1372 384 1759 384 
Q 2147 384 2411 759 
Q 2675 1134 2675 2259 
Q 2675 3391 2411 3762 
Q 2147 4134 1753 4134 
Q 1366 4134 1134 3806 
Q 844 3388 844 2259 
z
" transform="scale(0.015625)"/>
       </defs>
       <use xlink:href="#ArialMT-30"/>
      </g>
     </g>
    </g>
    <g id="ytick_2">
     <g id="line2d_9">
      <path d="M 53.157188 279.157773 
L 558.036488 279.157773 
" clip-path="url(#p27ea4bdfd7)" style="fill: none; stroke-dasharray: 2.96,1.28; stroke-dashoffset: 0; stroke: #cccccc; stroke-opacity: 0.7; stroke-width: 0.8"/>
     </g>
     <g id="text_9">
      <!-- 100 -->
      <g style="fill: #262626" transform="translate(28.174375 282.736679) scale(0.1 -0.1)">
       <defs>
        <path id="ArialMT-31" d="M 2384 0 
L 1822 0 
L 1822 3584 
Q 1619 3391 1289 3197 
Q 959 3003 697 2906 
L 697 3450 
Q 1169 3672 1522 3987 
Q 1875 4303 2022 4600 
L 2384 4600 
L 2384 0 
z
" transform="scale(0.015625)"/>
       </defs>
       <use xlink:href="#ArialMT-31"/>
       <use xlink:href="#ArialMT-30" transform="translate(55.615234 0)"/>
       <use xlink:href="#ArialMT-30" transform="translate(111.230469 0)"/>
      </g>
     </g>
    </g>
    <g id="ytick_3">
     <g id="line2d_10">
      <path d="M 53.157188 233.900152 
L 558.036488 233.900152 
" clip-path="url(#p27ea4bdfd7)" style="fill: none; stroke-dasharray: 2.96,1.28; stroke-dashoffset: 0; stroke: #cccccc; stroke-opacity: 0.7; stroke-width: 0.8"/>
     </g>
     <g id="text_10">
      <!-- 200 -->
      <g style="fill: #262626" transform="translate(28.174375 237.479058) scale(0.1 -0.1)">
       <defs>
        <path id="ArialMT-32" d="M 3222 541 
L 3222 0 
L 194 0 
Q 188 203 259 391 
Q 375 700 629 1000 
Q 884 1300 1366 1694 
Q 2113 2306 2375 2664 
Q 2638 3022 2638 3341 
Q 2638 3675 2398 3904 
Q 2159 4134 1775 4134 
Q 1369 4134 1125 3890 
Q 881 3647 878 3216 
L 300 3275 
Q 359 3922 746 4261 
Q 1134 4600 1788 4600 
Q 2447 4600 2831 4234 
Q 3216 3869 3216 3328 
Q 3216 3053 3103 2787 
Q 2991 2522 2730 2228 
Q 2469 1934 1863 1422 
Q 1356 997 1212 845 
Q 1069 694 975 541 
L 3222 541 
z
" transform="scale(0.015625)"/>
       </defs>
       <use xlink:href="#ArialMT-32"/>
       <use xlink:href="#ArialMT-30" transform="translate(55.615234 0)"/>
       <use xlink:href="#ArialMT-30" transform="translate(111.230469 0)"/>
      </g>
     </g>
    </g>
    <g id="ytick_4">
     <g id="line2d_11">
      <path d="M 53.157188 188.642531 
L 558.036488 188.642531 
" clip-path="url(#p27ea4bdfd7)" style="fill: none; stroke-dasharray: 2.96,1.28; stroke-dashoffset: 0; stroke: #cccccc; stroke-opacity: 0.7; stroke-width: 0.8"/>
     </g>
     <g id="text_11">
      <!-- 300 -->
      <g style="fill: #262626" transform="translate(28.174375 192.221438) scale(0.1 -0.1)">
       <defs>
        <path id="ArialMT-33" d="M 269 1209 
L 831 1284 
Q 928 806 1161 595 
Q 1394 384 1728 384 
Q 2125 384 2398 659 
Q 2672 934 2672 1341 
Q 2672 1728 2419 1979 
Q 2166 2231 1775 2231 
Q 1616 2231 1378 2169 
L 1441 2663 
Q 1497 2656 1531 2656 
Q 1891 2656 2178 2843 
Q 2466 3031 2466 3422 
Q 2466 3731 2256 3934 
Q 2047 4138 1716 4138 
Q 1388 4138 1169 3931 
Q 950 3725 888 3313 
L 325 3413 
Q 428 3978 793 4289 
Q 1159 4600 1703 4600 
Q 2078 4600 2393 4439 
Q 2709 4278 2876 4000 
Q 3044 3722 3044 3409 
Q 3044 3113 2884 2869 
Q 2725 2625 2413 2481 
Q 2819 2388 3044 2092 
Q 3269 1797 3269 1353 
Q 3269 753 2831 336 
Q 2394 -81 1725 -81 
Q 1122 -81 723 278 
Q 325 638 269 1209 
z
" transform="scale(0.015625)"/>
       </defs>
       <use xlink:href="#ArialMT-33"/>
       <use xlink:href="#ArialMT-30" transform="translate(55.615234 0)"/>
       <use xlink:href="#ArialMT-30" transform="translate(111.230469 0)"/>
      </g>
     </g>
    </g>
    <g id="ytick_5">
     <g id="line2d_12">
      <path d="M 53.157188 143.38491 
L 558.036488 143.38491 
" clip-path="url(#p27ea4bdfd7)" style="fill: none; stroke-dasharray: 2.96,1.28; stroke-dashoffset: 0; stroke: #cccccc; stroke-opacity: 0.7; stroke-width: 0.8"/>
     </g>
     <g id="text_12">
      <!-- 400 -->
      <g style="fill: #262626" transform="translate(28.174375 146.963817) scale(0.1 -0.1)">
       <defs>
        <path id="ArialMT-34" d="M 2069 0 
L 2069 1097 
L 81 1097 
L 81 1613 
L 2172 4581 
L 2631 4581 
L 2631 1613 
L 3250 1613 
L 3250 1097 
L 2631 1097 
L 2631 0 
L 2069 0 
z
M 2069 1613 
L 2069 3678 
L 634 1613 
L 2069 1613 
z
" transform="scale(0.015625)"/>
       </defs>
       <use xlink:href="#ArialMT-34"/>
       <use xlink:href="#ArialMT-30" transform="translate(55.615234 0)"/>
       <use xlink:href="#ArialMT-30" transform="translate(111.230469 0)"/>
      </g>
     </g>
    </g>
    <g id="ytick_6">
     <g id="line2d_13">
      <path d="M 53.157188 98.12729 
L 558.036488 98.12729 
" clip-path="url(#p27ea4bdfd7)" style="fill: none; stroke-dasharray: 2.96,1.28; stroke-dashoffset: 0; stroke: #cccccc; stroke-opacity: 0.7; stroke-width: 0.8"/>
     </g>
     <g id="text_13">
      <!-- 500 -->
      <g style="fill: #262626" transform="translate(28.174375 101.706196) scale(0.1 -0.1)">
       <defs>
        <path id="ArialMT-35" d="M 266 1200 
L 856 1250 
Q 922 819 1161 601 
Q 1400 384 1738 384 
Q 2144 384 2425 690 
Q 2706 997 2706 1503 
Q 2706 1984 2436 2262 
Q 2166 2541 1728 2541 
Q 1456 2541 1237 2417 
Q 1019 2294 894 2097 
L 366 2166 
L 809 4519 
L 3088 4519 
L 3088 3981 
L 1259 3981 
L 1013 2750 
Q 1425 3038 1878 3038 
Q 2478 3038 2890 2622 
Q 3303 2206 3303 1553 
Q 3303 931 2941 478 
Q 2500 -78 1738 -78 
Q 1113 -78 717 272 
Q 322 622 266 1200 
z
" transform="scale(0.015625)"/>
       </defs>
       <use xlink:href="#ArialMT-35"/>
       <use xlink:href="#ArialMT-30" transform="translate(55.615234 0)"/>
       <use xlink:href="#ArialMT-30" transform="translate(111.230469 0)"/>
      </g>
     </g>
    </g>
    <g id="ytick_7">
     <g id="line2d_14">
      <path d="M 53.157188 52.869669 
L 558.036488 52.869669 
" clip-path="url(#p27ea4bdfd7)" style="fill: none; stroke-dasharray: 2.96,1.28; stroke-dashoffset: 0; stroke: #cccccc; stroke-opacity: 0.7; stroke-width: 0.8"/>
     </g>
     <g id="text_14">
      <!-- 600 -->
      <g style="fill: #262626" transform="translate(28.174375 56.448575) scale(0.1 -0.1)">
       <defs>
        <path id="ArialMT-36" d="M 3184 3459 
L 2625 3416 
Q 2550 3747 2413 3897 
Q 2184 4138 1850 4138 
Q 1581 4138 1378 3988 
Q 1113 3794 959 3422 
Q 806 3050 800 2363 
Q 1003 2672 1297 2822 
Q 1591 2972 1913 2972 
Q 2475 2972 2870 2558 
Q 3266 2144 3266 1488 
Q 3266 1056 3080 686 
Q 2894 316 2569 119 
Q 2244 -78 1831 -78 
Q 1128 -78 684 439 
Q 241 956 241 2144 
Q 241 3472 731 4075 
Q 1159 4600 1884 4600 
Q 2425 4600 2770 4297 
Q 3116 3994 3184 3459 
z
M 888 1484 
Q 888 1194 1011 928 
Q 1134 663 1356 523 
Q 1578 384 1822 384 
Q 2178 384 2434 671 
Q 2691 959 2691 1453 
Q 2691 1928 2437 2201 
Q 2184 2475 1800 2475 
Q 1419 2475 1153 2201 
Q 888 1928 888 1484 
z
" transform="scale(0.015625)"/>
       </defs>
       <use xlink:href="#ArialMT-36"/>
       <use xlink:href="#ArialMT-30" transform="translate(55.615234 0)"/>
       <use xlink:href="#ArialMT-30" transform="translate(111.230469 0)"/>
      </g>
     </g>
    </g>
    <g id="text_15">
     <!-- Number of Incidents -->
     <g style="fill: #262626" transform="translate(15.789375 234.592228) rotate(-90) scale(0.12 -0.12)">
      <defs>
       <path id="ArialMT-4e" d="M 488 0 
L 488 4581 
L 1109 4581 
L 3516 984 
L 3516 4581 
L 4097 4581 
L 4097 0 
L 3475 0 
L 1069 3600 
L 1069 0 
L 488 0 
z
" transform="scale(0.015625)"/>
       <path id="ArialMT-6d" d="M 422 0 
L 422 3319 
L 925 3319 
L 925 2853 
Q 1081 3097 1340 3245 
Q 1600 3394 1931 3394 
Q 2300 3394 2536 3241 
Q 2772 3088 2869 2813 
Q 3263 3394 3894 3394 
Q 4388 3394 4653 3120 
Q 4919 2847 4919 2278 
L 4919 0 
L 4359 0 
L 4359 2091 
Q 4359 2428 4304 2576 
Q 4250 2725 4106 2815 
Q 3963 2906 3769 2906 
Q 3419 2906 3187 2673 
Q 2956 2441 2956 1928 
L 2956 0 
L 2394 0 
L 2394 2156 
Q 2394 2531 2256 2718 
Q 2119 2906 1806 2906 
Q 1569 2906 1367 2781 
Q 1166 2656 1075 2415 
Q 984 2175 984 1722 
L 984 0 
L 422 0 
z
" transform="scale(0.015625)"/>
       <path id="ArialMT-62" d="M 941 0 
L 419 0 
L 419 4581 
L 981 4581 
L 981 2947 
Q 1338 3394 1891 3394 
Q 2197 3394 2470 3270 
Q 2744 3147 2920 2923 
Q 3097 2700 3197 2384 
Q 3297 2069 3297 1709 
Q 3297 856 2875 390 
Q 2453 -75 1863 -75 
Q 1275 -75 941 416 
L 941 0 
z
M 934 1684 
Q 934 1088 1097 822 
Q 1363 388 1816 388 
Q 2184 388 2453 708 
Q 2722 1028 2722 1663 
Q 2722 2313 2464 2622 
Q 2206 2931 1841 2931 
Q 1472 2931 1203 2611 
Q 934 2291 934 1684 
z
" transform="scale(0.015625)"/>
       <path id="ArialMT-20" transform="scale(0.015625)"/>
       <path id="ArialMT-66" d="M 556 0 
L 556 2881 
L 59 2881 
L 59 3319 
L 556 3319 
L 556 3672 
Q 556 4006 616 4169 
Q 697 4388 901 4523 
Q 1106 4659 1475 4659 
Q 1713 4659 2000 4603 
L 1916 4113 
Q 1741 4144 1584 4144 
Q 1328 4144 1222 4034 
Q 1116 3925 1116 3625 
L 1116 3319 
L 1763 3319 
L 1763 2881 
L 1116 2881 
L 1116 0 
L 556 0 
z
" transform="scale(0.015625)"/>
       <path id="ArialMT-49" d="M 597 0 
L 597 4581 
L 1203 4581 
L 1203 0 
L 597 0 
z
" transform="scale(0.015625)"/>
       <path id="ArialMT-63" d="M 2588 1216 
L 3141 1144 
Q 3050 572 2676 248 
Q 2303 -75 1759 -75 
Q 1078 -75 664 370 
Q 250 816 250 1647 
Q 250 2184 428 2587 
Q 606 2991 970 3192 
Q 1334 3394 1763 3394 
Q 2303 3394 2647 3120 
Q 2991 2847 3088 2344 
L 2541 2259 
Q 2463 2594 2264 2762 
Q 2066 2931 1784 2931 
Q 1359 2931 1093 2626 
Q 828 2322 828 1663 
Q 828 994 1084 691 
Q 1341 388 1753 388 
Q 2084 388 2306 591 
Q 2528 794 2588 1216 
z
" transform="scale(0.015625)"/>
      </defs>
      <use xlink:href="#ArialMT-4e"/>
      <use xlink:href="#ArialMT-75" transform="translate(72.216797 0)"/>
      <use xlink:href="#ArialMT-6d" transform="translate(127.832031 0)"/>
      <use xlink:href="#ArialMT-62" transform="translate(211.132812 0)"/>
      <use xlink:href="#ArialMT-65" transform="translate(266.748047 0)"/>
      <use xlink:href="#ArialMT-72" transform="translate(322.363281 0)"/>
      <use xlink:href="#ArialMT-20" transform="translate(355.664062 0)"/>
      <use xlink:href="#ArialMT-6f" transform="translate(383.447266 0)"/>
      <use xlink:href="#ArialMT-66" transform="translate(439.0625 0)"/>
      <use xlink:href="#ArialMT-20" transform="translate(466.845703 0)"/>
      <use xlink:href="#ArialMT-49" transform="translate(494.628906 0)"/>
      <use xlink:href="#ArialMT-6e" transform="translate(522.412109 0)"/>
      <use xlink:href="#ArialMT-63" transform="translate(578.027344 0)"/>
      <use xlink:href="#ArialMT-69" transform="translate(628.027344 0)"/>
      <use xlink:href="#ArialMT-64" transform="translate(650.244141 0)"/>
      <use xlink:href="#ArialMT-65" transform="translate(705.859375 0)"/>
      <use xlink:href="#ArialMT-6e" transform="translate(761.474609 0)"/>
      <use xlink:href="#ArialMT-74" transform="translate(817.089844 0)"/>
      <use xlink:href="#ArialMT-73" transform="translate(844.873047 0)"/>
     </g>
    </g>
   </g>
   <g id="patch_3">
    <path d="M 76.106247 324.415394 
L 130.104033 324.415394 
L 130.104033 56.037702 
L 76.106247 56.037702 
z
" clip-path="url(#p27ea4bdfd7)" style="fill: #82bbdb; stroke: #ffffff; stroke-width: 0.8; stroke-linejoin: miter"/>
   </g>
   <g id="patch_4">
    <path d="M 143.603479 324.415394 
L 197.601265 324.415394 
L 197.601265 53.322245 
L 143.603479 53.322245 
z
" clip-path="url(#p27ea4bdfd7)" style="fill: #82bbdb; stroke: #ffffff; stroke-width: 0.8; stroke-linejoin: miter"/>
   </g>
   <g id="patch_5">
    <path d="M 211.100712 324.415394 
L 265.098498 324.415394 
L 265.098498 60.563464 
L 211.100712 60.563464 
z
" clip-path="url(#p27ea4bdfd7)" style="fill: #82bbdb; stroke: #ffffff; stroke-width: 0.8; stroke-linejoin: miter"/>
   </g>
   <g id="patch_6">
    <path d="M 278.597944 324.415394 
L 332.595731 324.415394 
L 332.595731 51.059364 
L 278.597944 51.059364 
z
" clip-path="url(#p27ea4bdfd7)" style="fill: #82bbdb; stroke: #ffffff; stroke-width: 0.8; stroke-linejoin: miter"/>
   </g>
   <g id="patch_7">
    <path d="M 346.095177 324.415394 
L 400.092963 324.415394 
L 400.092963 109.441695 
L 346.095177 109.441695 
z
" clip-path="url(#p27ea4bdfd7)" style="fill: #82bbdb; stroke: #ffffff; stroke-width: 0.8; stroke-linejoin: miter"/>
   </g>
   <g id="patch_8">
    <path d="M 413.59241 324.415394 
L 467.590196 324.415394 
L 467.590196 53.322245 
L 413.59241 53.322245 
z
" clip-path="url(#p27ea4bdfd7)" style="fill: #fb7c5c; stroke: #fb7c5c; stroke-width: 0.8; stroke-linejoin: miter"/>
   </g>
   <g id="patch_9">
    <path d="M 481.089642 324.415394 
L 535.087428 324.415394 
L 535.087428 96.316985 
L 481.089642 96.316985 
z
" clip-path="url(#p27ea4bdfd7)" style="fill: #fb7c5c; stroke: #fb7c5c; stroke-width: 0.8; stroke-linejoin: miter"/>
   </g>
   <g id="line2d_15">
    <path d="M 53.157188 68.580529 
L 558.036488 68.580529 
" clip-path="url(#p27ea4bdfd7)" style="fill: none; stroke-dasharray: 4.44,1.92; stroke-dashoffset: 0; stroke: #ff0000; stroke-opacity: 0.7; stroke-width: 1.2"/>
   </g>
   <g id="patch_10">
    <path d="M 53.157188 324.415394 
L 53.157188 37.391562 
" style="fill: none; stroke: #cccccc; stroke-linejoin: miter; stroke-linecap: square"/>
   </g>
   <g id="patch_11">
    <path d="M 53.157188 324.415394 
L 558.036488 324.415394 
" style="fill: none; stroke: #cccccc; stroke-linejoin: miter; stroke-linecap: square"/>
   </g>
   <g id="text_16">
    <path d="M 95.997249 49.855378 
L 97.227718 49.727409 
Q 97.281155 50.145065 97.539905 50.389753 
Q 97.800062 50.633034 98.137562 50.633034 
Q 98.52428 50.633034 98.792874 50.31944 
Q 99.061468 50.00444 99.061468 49.371628 
Q 99.061468 48.77819 98.79428 48.481471 
Q 98.528499 48.184753 98.102405 48.184753 
Q 97.570843 48.184753 97.148968 48.655846 
L 96.147718 48.511003 
L 96.78053 45.157096 
L 100.045843 45.157096 
L 100.045843 46.313034 
L 97.715687 46.313034 
L 97.52303 47.407096 
Q 97.936468 47.200378 98.36678 47.200378 
Q 99.18803 47.200378 99.758968 47.798034 
Q 100.331312 48.39569 100.331312 49.349128 
Q 100.331312 50.145065 99.870062 50.76944 
Q 99.241468 51.621628 98.124905 51.621628 
Q 97.233343 51.621628 96.670843 51.143503 
Q 96.108343 50.663971 95.997249 49.855378 
z
M 101.012464 50.022721 
L 102.207776 49.890534 
Q 102.25137 50.254753 102.435589 50.430534 
Q 102.619808 50.606315 102.923558 50.606315 
Q 103.306058 50.606315 103.573245 50.254753 
Q 103.841839 49.90319 103.91637 48.796471 
Q 103.450901 49.336471 102.751995 49.336471 
Q 101.99262 49.336471 101.439964 48.750065 
Q 100.888714 48.163659 100.888714 47.222878 
Q 100.888714 46.242721 101.470901 45.643659 
Q 102.053089 45.04319 102.954495 45.04319 
Q 103.934651 45.04319 104.563245 45.801159 
Q 105.191839 46.559128 105.191839 48.29444 
Q 105.191839 50.062096 104.536526 50.843971 
Q 103.881214 51.625846 102.830745 51.625846 
Q 102.075589 51.625846 101.608714 51.223659 
Q 101.143245 50.821471 101.012464 50.022721 
z
M 103.806683 47.324128 
Q 103.806683 46.726471 103.532464 46.397409 
Q 103.258245 46.06694 102.896839 46.06694 
Q 102.55512 46.06694 102.328714 46.33694 
Q 102.102308 46.60694 102.102308 47.222878 
Q 102.102308 47.847253 102.348401 48.139753 
Q 102.594495 48.430846 102.962933 48.430846 
Q 103.318714 48.430846 103.561995 48.149596 
Q 103.806683 47.868346 103.806683 47.324128 
z
M 105.947522 49.80194 
L 107.142835 49.657096 
Q 107.199085 50.114128 107.449397 50.356003 
Q 107.701116 50.597878 108.056897 50.597878 
Q 108.439397 50.597878 108.699554 50.30819 
Q 108.961116 50.017096 108.961116 49.524909 
Q 108.961116 49.05944 108.710804 48.788034 
Q 108.460491 48.515221 108.100491 48.515221 
Q 107.862835 48.515221 107.533772 48.606628 
L 107.670179 47.601159 
Q 108.170804 47.613815 108.433772 47.38319 
Q 108.698147 47.152565 108.698147 46.770065 
Q 108.698147 46.445221 108.504085 46.252565 
Q 108.311429 46.058503 107.990804 46.058503 
Q 107.674397 46.058503 107.449397 46.277878 
Q 107.225804 46.497253 107.177991 46.919128 
L 106.038929 46.726471 
Q 106.15846 46.141471 106.397522 45.792721 
Q 106.636585 45.442565 107.065491 45.242878 
Q 107.494397 45.04319 108.02596 45.04319 
Q 108.935804 45.04319 109.484241 45.622565 
Q 109.937054 46.097878 109.937054 46.695534 
Q 109.937054 47.543503 109.010335 48.048346 
Q 109.564397 48.167878 109.894866 48.581315 
Q 110.226741 48.993346 110.226741 49.578346 
Q 110.226741 50.426315 109.606585 51.023971 
Q 108.987835 51.621628 108.065335 51.621628 
Q 107.190647 51.621628 106.614085 51.11819 
Q 106.038929 50.614753 105.947522 49.80194 
z
" style="stroke: #ffffff; stroke-width: 3"/>
    <path d="M 95.997249 49.855378 
L 97.227718 49.727409 
Q 97.281155 50.145065 97.539905 50.389753 
Q 97.800062 50.633034 98.137562 50.633034 
Q 98.52428 50.633034 98.792874 50.31944 
Q 99.061468 50.00444 99.061468 49.371628 
Q 99.061468 48.77819 98.79428 48.481471 
Q 98.528499 48.184753 98.102405 48.184753 
Q 97.570843 48.184753 97.148968 48.655846 
L 96.147718 48.511003 
L 96.78053 45.157096 
L 100.045843 45.157096 
L 100.045843 46.313034 
L 97.715687 46.313034 
L 97.52303 47.407096 
Q 97.936468 47.200378 98.36678 47.200378 
Q 99.18803 47.200378 99.758968 47.798034 
Q 100.331312 48.39569 100.331312 49.349128 
Q 100.331312 50.145065 99.870062 50.76944 
Q 99.241468 51.621628 98.124905 51.621628 
Q 97.233343 51.621628 96.670843 51.143503 
Q 96.108343 50.663971 95.997249 49.855378 
z
M 101.012464 50.022721 
L 102.207776 49.890534 
Q 102.25137 50.254753 102.435589 50.430534 
Q 102.619808 50.606315 102.923558 50.606315 
Q 103.306058 50.606315 103.573245 50.254753 
Q 103.841839 49.90319 103.91637 48.796471 
Q 103.450901 49.336471 102.751995 49.336471 
Q 101.99262 49.336471 101.439964 48.750065 
Q 100.888714 48.163659 100.888714 47.222878 
Q 100.888714 46.242721 101.470901 45.643659 
Q 102.053089 45.04319 102.954495 45.04319 
Q 103.934651 45.04319 104.563245 45.801159 
Q 105.191839 46.559128 105.191839 48.29444 
Q 105.191839 50.062096 104.536526 50.843971 
Q 103.881214 51.625846 102.830745 51.625846 
Q 102.075589 51.625846 101.608714 51.223659 
Q 101.143245 50.821471 101.012464 50.022721 
z
M 103.806683 47.324128 
Q 103.806683 46.726471 103.532464 46.397409 
Q 103.258245 46.06694 102.896839 46.06694 
Q 102.55512 46.06694 102.328714 46.33694 
Q 102.102308 46.60694 102.102308 47.222878 
Q 102.102308 47.847253 102.348401 48.139753 
Q 102.594495 48.430846 102.962933 48.430846 
Q 103.318714 48.430846 103.561995 48.149596 
Q 103.806683 47.868346 103.806683 47.324128 
z
M 105.947522 49.80194 
L 107.142835 49.657096 
Q 107.199085 50.114128 107.449397 50.356003 
Q 107.701116 50.597878 108.056897 50.597878 
Q 108.439397 50.597878 108.699554 50.30819 
Q 108.961116 50.017096 108.961116 49.524909 
Q 108.961116 49.05944 108.710804 48.788034 
Q 108.460491 48.515221 108.100491 48.515221 
Q 107.862835 48.515221 107.533772 48.606628 
L 107.670179 47.601159 
Q 108.170804 47.613815 108.433772 47.38319 
Q 108.698147 47.152565 108.698147 46.770065 
Q 108.698147 46.445221 108.504085 46.252565 
Q 108.311429 46.058503 107.990804 46.058503 
Q 107.674397 46.058503 107.449397 46.277878 
Q 107.225804 46.497253 107.177991 46.919128 
L 106.038929 46.726471 
Q 106.15846 46.141471 106.397522 45.792721 
Q 106.636585 45.442565 107.065491 45.242878 
Q 107.494397 45.04319 108.02596 45.04319 
Q 108.935804 45.04319 109.484241 45.622565 
Q 109.937054 46.097878 109.937054 46.695534 
Q 109.937054 47.543503 109.010335 48.048346 
Q 109.564397 48.167878 109.894866 48.581315 
Q 110.226741 48.993346 110.226741 49.578346 
Q 110.226741 50.426315 109.606585 51.023971 
Q 108.987835 51.621628 108.065335 51.621628 
Q 107.190647 51.621628 106.614085 51.11819 
Q 106.038929 50.614753 105.947522 49.80194 
z
"/>
   </g>
   <g id="text_17">
    <path d="M 163.494482 47.13992 
L 164.72495 47.011952 
Q 164.778388 47.429608 165.037138 47.674295 
Q 165.297294 47.917577 165.634794 47.917577 
Q 166.021513 47.917577 166.290107 47.603983 
Q 166.5587 47.288983 166.5587 46.65617 
Q 166.5587 46.062733 166.291513 45.766014 
Q 166.025732 45.469295 165.599638 45.469295 
Q 165.068075 45.469295 164.6462 45.940389 
L 163.64495 45.795545 
L 164.277763 42.441639 
L 167.543075 42.441639 
L 167.543075 43.597577 
L 165.212919 43.597577 
L 165.020263 44.691639 
Q 165.4337 44.48492 165.864013 44.48492 
Q 166.685263 44.48492 167.2562 45.082577 
Q 167.828544 45.680233 167.828544 46.63367 
Q 167.828544 47.429608 167.367294 48.053983 
Q 166.7387 48.90617 165.622138 48.90617 
Q 164.730575 48.90617 164.168075 48.428045 
Q 163.605575 47.948514 163.494482 47.13992 
z
M 168.509696 47.307264 
L 169.705009 47.175077 
Q 169.748603 47.539295 169.932821 47.715077 
Q 170.11704 47.890858 170.42079 47.890858 
Q 170.80329 47.890858 171.070478 47.539295 
Q 171.339071 47.187733 171.413603 46.081014 
Q 170.948134 46.621014 170.249228 46.621014 
Q 169.489853 46.621014 168.937196 46.034608 
Q 168.385946 45.448202 168.385946 44.50742 
Q 168.385946 43.527264 168.968134 42.928202 
Q 169.550321 42.327733 170.451728 42.327733 
Q 171.431884 42.327733 172.060478 43.085702 
Q 172.689071 43.84367 172.689071 45.578983 
Q 172.689071 47.346639 172.033759 48.128514 
Q 171.378446 48.910389 170.327978 48.910389 
Q 169.572821 48.910389 169.105946 48.508202 
Q 168.640478 48.106014 168.509696 47.307264 
z
M 171.303915 44.60867 
Q 171.303915 44.011014 171.029696 43.681952 
Q 170.755478 43.351483 170.394071 43.351483 
Q 170.052353 43.351483 169.825946 43.621483 
Q 169.59954 43.891483 169.59954 44.50742 
Q 169.59954 45.131795 169.845634 45.424295 
Q 170.091728 45.715389 170.460165 45.715389 
Q 170.815946 45.715389 171.059228 45.434139 
Q 171.303915 45.152889 171.303915 44.60867 
z
M 173.515068 47.307264 
L 174.71038 47.175077 
Q 174.753974 47.539295 174.938193 47.715077 
Q 175.122411 47.890858 175.426161 47.890858 
Q 175.808661 47.890858 176.075849 47.539295 
Q 176.344443 47.187733 176.418974 46.081014 
Q 175.953505 46.621014 175.254599 46.621014 
Q 174.495224 46.621014 173.942568 46.034608 
Q 173.391318 45.448202 173.391318 44.50742 
Q 173.391318 43.527264 173.973505 42.928202 
Q 174.555693 42.327733 175.457099 42.327733 
Q 176.437255 42.327733 177.065849 43.085702 
Q 177.694443 43.84367 177.694443 45.578983 
Q 177.694443 47.346639 177.03913 48.128514 
Q 176.383818 48.910389 175.333349 48.910389 
Q 174.578193 48.910389 174.111318 48.508202 
Q 173.645849 48.106014 173.515068 47.307264 
z
M 176.309286 44.60867 
Q 176.309286 44.011014 176.035068 43.681952 
Q 175.760849 43.351483 175.399443 43.351483 
Q 175.057724 43.351483 174.831318 43.621483 
Q 174.604911 43.891483 174.604911 44.50742 
Q 174.604911 45.131795 174.851005 45.424295 
Q 175.097099 45.715389 175.465536 45.715389 
Q 175.821318 45.715389 176.064599 45.434139 
Q 176.309286 45.152889 176.309286 44.60867 
z
" style="stroke: #ffffff; stroke-width: 3"/>
    <path d="M 163.494482 47.13992 
L 164.72495 47.011952 
Q 164.778388 47.429608 165.037138 47.674295 
Q 165.297294 47.917577 165.634794 47.917577 
Q 166.021513 47.917577 166.290107 47.603983 
Q 166.5587 47.288983 166.5587 46.65617 
Q 166.5587 46.062733 166.291513 45.766014 
Q 166.025732 45.469295 165.599638 45.469295 
Q 165.068075 45.469295 164.6462 45.940389 
L 163.64495 45.795545 
L 164.277763 42.441639 
L 167.543075 42.441639 
L 167.543075 43.597577 
L 165.212919 43.597577 
L 165.020263 44.691639 
Q 165.4337 44.48492 165.864013 44.48492 
Q 166.685263 44.48492 167.2562 45.082577 
Q 167.828544 45.680233 167.828544 46.63367 
Q 167.828544 47.429608 167.367294 48.053983 
Q 166.7387 48.90617 165.622138 48.90617 
Q 164.730575 48.90617 164.168075 48.428045 
Q 163.605575 47.948514 163.494482 47.13992 
z
M 168.509696 47.307264 
L 169.705009 47.175077 
Q 169.748603 47.539295 169.932821 47.715077 
Q 170.11704 47.890858 170.42079 47.890858 
Q 170.80329 47.890858 171.070478 47.539295 
Q 171.339071 47.187733 171.413603 46.081014 
Q 170.948134 46.621014 170.249228 46.621014 
Q 169.489853 46.621014 168.937196 46.034608 
Q 168.385946 45.448202 168.385946 44.50742 
Q 168.385946 43.527264 168.968134 42.928202 
Q 169.550321 42.327733 170.451728 42.327733 
Q 171.431884 42.327733 172.060478 43.085702 
Q 172.689071 43.84367 172.689071 45.578983 
Q 172.689071 47.346639 172.033759 48.128514 
Q 171.378446 48.910389 170.327978 48.910389 
Q 169.572821 48.910389 169.105946 48.508202 
Q 168.640478 48.106014 168.509696 47.307264 
z
M 171.303915 44.60867 
Q 171.303915 44.011014 171.029696 43.681952 
Q 170.755478 43.351483 170.394071 43.351483 
Q 170.052353 43.351483 169.825946 43.621483 
Q 169.59954 43.891483 169.59954 44.50742 
Q 169.59954 45.131795 169.845634 45.424295 
Q 170.091728 45.715389 170.460165 45.715389 
Q 170.815946 45.715389 171.059228 45.434139 
Q 171.303915 45.152889 171.303915 44.60867 
z
M 173.515068 47.307264 
L 174.71038 47.175077 
Q 174.753974 47.539295 174.938193 47.715077 
Q 175.122411 47.890858 175.426161 47.890858 
Q 175.808661 47.890858 176.075849 47.539295 
Q 176.344443 47.187733 176.418974 46.081014 
Q 175.953505 46.621014 175.254599 46.621014 
Q 174.495224 46.621014 173.942568 46.034608 
Q 173.391318 45.448202 173.391318 44.50742 
Q 173.391318 43.527264 173.973505 42.928202 
Q 174.555693 42.327733 175.457099 42.327733 
Q 176.437255 42.327733 177.065849 43.085702 
Q 177.694443 43.84367 177.694443 45.578983 
Q 177.694443 47.346639 177.03913 48.128514 
Q 176.383818 48.910389 175.333349 48.910389 
Q 174.578193 48.910389 174.111318 48.508202 
Q 173.645849 48.106014 173.515068 47.307264 
z
M 176.309286 44.60867 
Q 176.309286 44.011014 176.035068 43.681952 
Q 175.760849 43.351483 175.399443 43.351483 
Q 175.057724 43.351483 174.831318 43.621483 
Q 174.604911 43.891483 174.604911 44.50742 
Q 174.604911 45.131795 174.851005 45.424295 
Q 175.097099 45.715389 175.465536 45.715389 
Q 175.821318 45.715389 176.064599 45.434139 
Q 176.309286 45.152889 176.309286 44.60867 
z
"/>
   </g>
   <g id="text_18">
    <path d="M 230.991714 54.38114 
L 232.222183 54.253171 
Q 232.275621 54.670827 232.534371 54.915515 
Q 232.794527 55.158796 233.132027 55.158796 
Q 233.518746 55.158796 233.787339 54.845202 
Q 234.055933 54.530202 234.055933 53.89739 
Q 234.055933 53.303952 233.788746 53.007234 
Q 233.522964 52.710515 233.096871 52.710515 
Q 232.565308 52.710515 232.143433 53.181609 
L 231.142183 53.036765 
L 231.774996 49.682859 
L 235.040308 49.682859 
L 235.040308 50.838796 
L 232.710152 50.838796 
L 232.517496 51.932859 
Q 232.930933 51.72614 233.361246 51.72614 
Q 234.182496 51.72614 234.753433 52.323796 
Q 235.325777 52.921452 235.325777 53.87489 
Q 235.325777 54.670827 234.864527 55.295202 
Q 234.235933 56.14739 233.119371 56.14739 
Q 232.227808 56.14739 231.665308 55.669265 
Q 231.102808 55.189734 230.991714 54.38114 
z
M 237.039117 52.561452 
Q 236.559585 52.358952 236.341617 52.005984 
Q 236.125054 51.651609 236.125054 51.229734 
Q 236.125054 50.509734 236.628492 50.040046 
Q 237.131929 49.568952 238.058648 49.568952 
Q 238.976929 49.568952 239.484585 50.040046 
Q 239.992242 50.509734 239.992242 51.229734 
Q 239.992242 51.678327 239.758804 52.028484 
Q 239.526773 52.377234 239.104898 52.561452 
Q 239.640679 52.776609 239.919117 53.190046 
Q 240.19896 53.603484 240.19896 54.143484 
Q 240.19896 55.035046 239.629429 55.593327 
Q 239.061304 56.151609 238.116304 56.151609 
Q 237.237398 56.151609 236.652398 55.690359 
Q 235.961929 55.14614 235.961929 54.196921 
Q 235.961929 53.673796 236.220679 53.236452 
Q 236.480835 52.799109 237.039117 52.561452 
z
M 237.293648 51.318327 
Q 237.293648 51.686765 237.501773 51.893484 
Q 237.711304 52.100202 238.058648 52.100202 
Q 238.41021 52.100202 238.621148 51.892077 
Q 238.832085 51.682546 238.832085 51.314109 
Q 238.832085 50.966765 238.622554 50.75864 
Q 238.414429 50.549109 238.071304 50.549109 
Q 237.715523 50.549109 237.504585 50.760046 
Q 237.293648 50.970984 237.293648 51.318327 
z
M 237.179742 54.07739 
Q 237.179742 54.587859 237.441304 54.873327 
Q 237.702867 55.158796 238.093804 55.158796 
Q 238.476304 55.158796 238.726617 54.884577 
Q 238.976929 54.608952 238.976929 54.091452 
Q 238.976929 53.63864 238.722398 53.364421 
Q 238.467867 53.088796 238.076929 53.088796 
Q 237.624117 53.088796 237.401929 53.400984 
Q 237.179742 53.713171 237.179742 54.07739 
z
M 240.941988 54.327702 
L 242.1373 54.182859 
Q 242.19355 54.63989 242.443863 54.881765 
Q 242.695581 55.12364 243.051363 55.12364 
Q 243.433863 55.12364 243.694019 54.833952 
Q 243.955581 54.542859 243.955581 54.050671 
Q 243.955581 53.585202 243.705269 53.313796 
Q 243.454956 53.040984 243.094956 53.040984 
Q 242.8573 53.040984 242.528238 53.13239 
L 242.664644 52.126921 
Q 243.165269 52.139577 243.428238 51.908952 
Q 243.692613 51.678327 243.692613 51.295827 
Q 243.692613 50.970984 243.49855 50.778327 
Q 243.305894 50.584265 242.985269 50.584265 
Q 242.668863 50.584265 242.443863 50.80364 
Q 242.220269 51.023015 242.172456 51.44489 
L 241.033394 51.252234 
Q 241.152925 50.667234 241.391988 50.318484 
Q 241.63105 49.968327 242.059956 49.76864 
Q 242.488863 49.568952 243.020425 49.568952 
Q 243.930269 49.568952 244.478706 50.148327 
Q 244.931519 50.62364 244.931519 51.221296 
Q 244.931519 52.069265 244.0048 52.574109 
Q 244.558863 52.69364 244.889331 53.107077 
Q 245.221206 53.519109 245.221206 54.104109 
Q 245.221206 54.952077 244.60105 55.549734 
Q 243.9823 56.14739 243.0598 56.14739 
Q 242.185113 56.14739 241.60855 55.643952 
Q 241.033394 55.140515 240.941988 54.327702 
z
" style="stroke: #ffffff; stroke-width: 3"/>
    <path d="M 230.991714 54.38114 
L 232.222183 54.253171 
Q 232.275621 54.670827 232.534371 54.915515 
Q 232.794527 55.158796 233.132027 55.158796 
Q 233.518746 55.158796 233.787339 54.845202 
Q 234.055933 54.530202 234.055933 53.89739 
Q 234.055933 53.303952 233.788746 53.007234 
Q 233.522964 52.710515 233.096871 52.710515 
Q 232.565308 52.710515 232.143433 53.181609 
L 231.142183 53.036765 
L 231.774996 49.682859 
L 235.040308 49.682859 
L 235.040308 50.838796 
L 232.710152 50.838796 
L 232.517496 51.932859 
Q 232.930933 51.72614 233.361246 51.72614 
Q 234.182496 51.72614 234.753433 52.323796 
Q 235.325777 52.921452 235.325777 53.87489 
Q 235.325777 54.670827 234.864527 55.295202 
Q 234.235933 56.14739 233.119371 56.14739 
Q 232.227808 56.14739 231.665308 55.669265 
Q 231.102808 55.189734 230.991714 54.38114 
z
M 237.039117 52.561452 
Q 236.559585 52.358952 236.341617 52.005984 
Q 236.125054 51.651609 236.125054 51.229734 
Q 236.125054 50.509734 236.628492 50.040046 
Q 237.131929 49.568952 238.058648 49.568952 
Q 238.976929 49.568952 239.484585 50.040046 
Q 239.992242 50.509734 239.992242 51.229734 
Q 239.992242 51.678327 239.758804 52.028484 
Q 239.526773 52.377234 239.104898 52.561452 
Q 239.640679 52.776609 239.919117 53.190046 
Q 240.19896 53.603484 240.19896 54.143484 
Q 240.19896 55.035046 239.629429 55.593327 
Q 239.061304 56.151609 238.116304 56.151609 
Q 237.237398 56.151609 236.652398 55.690359 
Q 235.961929 55.14614 235.961929 54.196921 
Q 235.961929 53.673796 236.220679 53.236452 
Q 236.480835 52.799109 237.039117 52.561452 
z
M 237.293648 51.318327 
Q 237.293648 51.686765 237.501773 51.893484 
Q 237.711304 52.100202 238.058648 52.100202 
Q 238.41021 52.100202 238.621148 51.892077 
Q 238.832085 51.682546 238.832085 51.314109 
Q 238.832085 50.966765 238.622554 50.75864 
Q 238.414429 50.549109 238.071304 50.549109 
Q 237.715523 50.549109 237.504585 50.760046 
Q 237.293648 50.970984 237.293648 51.318327 
z
M 237.179742 54.07739 
Q 237.179742 54.587859 237.441304 54.873327 
Q 237.702867 55.158796 238.093804 55.158796 
Q 238.476304 55.158796 238.726617 54.884577 
Q 238.976929 54.608952 238.976929 54.091452 
Q 238.976929 53.63864 238.722398 53.364421 
Q 238.467867 53.088796 238.076929 53.088796 
Q 237.624117 53.088796 237.401929 53.400984 
Q 237.179742 53.713171 237.179742 54.07739 
z
M 240.941988 54.327702 
L 242.1373 54.182859 
Q 242.19355 54.63989 242.443863 54.881765 
Q 242.695581 55.12364 243.051363 55.12364 
Q 243.433863 55.12364 243.694019 54.833952 
Q 243.955581 54.542859 243.955581 54.050671 
Q 243.955581 53.585202 243.705269 53.313796 
Q 243.454956 53.040984 243.094956 53.040984 
Q 242.8573 53.040984 242.528238 53.13239 
L 242.664644 52.126921 
Q 243.165269 52.139577 243.428238 51.908952 
Q 243.692613 51.678327 243.692613 51.295827 
Q 243.692613 50.970984 243.49855 50.778327 
Q 243.305894 50.584265 242.985269 50.584265 
Q 242.668863 50.584265 242.443863 50.80364 
Q 242.220269 51.023015 242.172456 51.44489 
L 241.033394 51.252234 
Q 241.152925 50.667234 241.391988 50.318484 
Q 241.63105 49.968327 242.059956 49.76864 
Q 242.488863 49.568952 243.020425 49.568952 
Q 243.930269 49.568952 244.478706 50.148327 
Q 244.931519 50.62364 244.931519 51.221296 
Q 244.931519 52.069265 244.0048 52.574109 
Q 244.558863 52.69364 244.889331 53.107077 
Q 245.221206 53.519109 245.221206 54.104109 
Q 245.221206 54.952077 244.60105 55.549734 
Q 243.9823 56.14739 243.0598 56.14739 
Q 242.185113 56.14739 241.60855 55.643952 
Q 241.033394 55.140515 240.941988 54.327702 
z
"/>
   </g>
   <g id="text_19">
    <path d="M 302.655666 41.669383 
L 301.460353 41.800164 
Q 301.416759 41.431727 301.231134 41.255946 
Q 301.046916 41.080164 300.753009 41.080164 
Q 300.362072 41.080164 300.090666 41.431727 
Q 299.820666 41.783289 299.750353 42.894227 
Q 300.211603 42.350008 300.897853 42.350008 
Q 301.671291 42.350008 302.222541 42.939227 
Q 302.773791 43.527039 302.773791 44.459383 
Q 302.773791 45.447977 302.193009 46.045633 
Q 301.613634 46.643289 300.703791 46.643289 
Q 299.729259 46.643289 299.100666 45.885321 
Q 298.472072 45.127352 298.472072 43.400477 
Q 298.472072 41.628602 299.125978 40.846727 
Q 299.781291 40.064852 300.827541 40.064852 
Q 301.561603 40.064852 302.042541 40.475477 
Q 302.523478 40.886102 302.655666 41.669383 
z
M 299.855822 44.362352 
Q 299.855822 44.964227 300.132853 45.291883 
Q 300.409884 45.619539 300.765666 45.619539 
Q 301.108791 45.619539 301.336603 45.352352 
Q 301.565822 45.083758 301.565822 44.472039 
Q 301.565822 43.843446 301.319728 43.552352 
Q 301.073634 43.259852 300.703791 43.259852 
Q 300.348009 43.259852 300.101916 43.539696 
Q 299.855822 43.818133 299.855822 44.362352 
z
M 305.564318 40.064852 
Q 306.50088 40.064852 307.028224 40.732821 
Q 307.656818 41.523133 307.656818 43.356883 
Q 307.656818 45.185008 307.024005 45.983758 
Q 306.50088 46.643289 305.564318 46.643289 
Q 304.624943 46.643289 304.04838 45.920477 
Q 303.473224 45.197664 303.473224 43.342821 
Q 303.473224 41.523133 304.106037 40.724383 
Q 304.629162 40.064852 305.564318 40.064852 
z
M 305.564318 41.088602 
Q 305.340724 41.088602 305.164943 41.232039 
Q 304.989162 41.374071 304.89213 41.743914 
Q 304.765568 42.222039 304.765568 43.356883 
Q 304.765568 44.490321 304.879474 44.915008 
Q 304.99338 45.338289 305.166349 45.478914 
Q 305.340724 45.619539 305.564318 45.619539 
Q 305.789318 45.619539 305.965099 45.477508 
Q 306.14088 45.334071 306.236505 44.964227 
Q 306.364474 44.490321 306.364474 43.356883 
Q 306.364474 42.222039 306.250568 41.798758 
Q 306.136662 41.374071 305.962287 41.232039 
Q 305.789318 41.088602 305.564318 41.088602 
z
M 310.904377 46.533602 
L 310.904377 45.237039 
L 308.267658 45.237039 
L 308.267658 44.155633 
L 311.061877 40.064852 
L 312.099689 40.064852 
L 312.099689 44.151414 
L 312.899845 44.151414 
L 312.899845 45.237039 
L 312.099689 45.237039 
L 312.099689 46.533602 
L 310.904377 46.533602 
z
M 310.904377 44.151414 
L 310.904377 41.950633 
L 309.423595 44.151414 
L 310.904377 44.151414 
z
" style="stroke: #ffffff; stroke-width: 3"/>
    <path d="M 302.655666 41.669383 
L 301.460353 41.800164 
Q 301.416759 41.431727 301.231134 41.255946 
Q 301.046916 41.080164 300.753009 41.080164 
Q 300.362072 41.080164 300.090666 41.431727 
Q 299.820666 41.783289 299.750353 42.894227 
Q 300.211603 42.350008 300.897853 42.350008 
Q 301.671291 42.350008 302.222541 42.939227 
Q 302.773791 43.527039 302.773791 44.459383 
Q 302.773791 45.447977 302.193009 46.045633 
Q 301.613634 46.643289 300.703791 46.643289 
Q 299.729259 46.643289 299.100666 45.885321 
Q 298.472072 45.127352 298.472072 43.400477 
Q 298.472072 41.628602 299.125978 40.846727 
Q 299.781291 40.064852 300.827541 40.064852 
Q 301.561603 40.064852 302.042541 40.475477 
Q 302.523478 40.886102 302.655666 41.669383 
z
M 299.855822 44.362352 
Q 299.855822 44.964227 300.132853 45.291883 
Q 300.409884 45.619539 300.765666 45.619539 
Q 301.108791 45.619539 301.336603 45.352352 
Q 301.565822 45.083758 301.565822 44.472039 
Q 301.565822 43.843446 301.319728 43.552352 
Q 301.073634 43.259852 300.703791 43.259852 
Q 300.348009 43.259852 300.101916 43.539696 
Q 299.855822 43.818133 299.855822 44.362352 
z
M 305.564318 40.064852 
Q 306.50088 40.064852 307.028224 40.732821 
Q 307.656818 41.523133 307.656818 43.356883 
Q 307.656818 45.185008 307.024005 45.983758 
Q 306.50088 46.643289 305.564318 46.643289 
Q 304.624943 46.643289 304.04838 45.920477 
Q 303.473224 45.197664 303.473224 43.342821 
Q 303.473224 41.523133 304.106037 40.724383 
Q 304.629162 40.064852 305.564318 40.064852 
z
M 305.564318 41.088602 
Q 305.340724 41.088602 305.164943 41.232039 
Q 304.989162 41.374071 304.89213 41.743914 
Q 304.765568 42.222039 304.765568 43.356883 
Q 304.765568 44.490321 304.879474 44.915008 
Q 304.99338 45.338289 305.166349 45.478914 
Q 305.340724 45.619539 305.564318 45.619539 
Q 305.789318 45.619539 305.965099 45.477508 
Q 306.14088 45.334071 306.236505 44.964227 
Q 306.364474 44.490321 306.364474 43.356883 
Q 306.364474 42.222039 306.250568 41.798758 
Q 306.136662 41.374071 305.962287 41.232039 
Q 305.789318 41.088602 305.564318 41.088602 
z
M 310.904377 46.533602 
L 310.904377 45.237039 
L 308.267658 45.237039 
L 308.267658 44.155633 
L 311.061877 40.064852 
L 312.099689 40.064852 
L 312.099689 44.151414 
L 312.899845 44.151414 
L 312.899845 45.237039 
L 312.099689 45.237039 
L 312.099689 46.533602 
L 310.904377 46.533602 
z
M 310.904377 44.151414 
L 310.904377 41.950633 
L 309.423595 44.151414 
L 310.904377 44.151414 
z
"/>
   </g>
   <g id="text_20">
    <path d="M 368.390867 104.915933 
L 368.390867 103.61937 
L 365.754148 103.61937 
L 365.754148 102.537964 
L 368.548367 98.447183 
L 369.586179 98.447183 
L 369.586179 102.533745 
L 370.386336 102.533745 
L 370.386336 103.61937 
L 369.586179 103.61937 
L 369.586179 104.915933 
L 368.390867 104.915933 
z
M 368.390867 102.533745 
L 368.390867 100.332964 
L 366.910086 102.533745 
L 368.390867 102.533745 
z
M 370.974676 99.708589 
L 370.974676 98.561089 
L 375.197644 98.561089 
L 375.197644 99.458277 
Q 374.674519 99.971558 374.133113 100.934839 
Q 373.593113 101.896714 373.309051 102.980933 
Q 373.026394 104.063745 373.030613 104.915933 
L 371.840926 104.915933 
Q 371.870457 103.579995 372.390769 102.192027 
Q 372.912488 100.802652 373.782957 99.708589 
L 370.974676 99.708589 
z
M 375.996922 103.25937 
L 377.22739 103.131402 
Q 377.280828 103.549058 377.539578 103.793745 
Q 377.799734 104.037027 378.137234 104.037027 
Q 378.523953 104.037027 378.792547 103.723433 
Q 379.06114 103.408433 379.06114 102.77562 
Q 379.06114 102.182183 378.793953 101.885464 
Q 378.528172 101.588745 378.102078 101.588745 
Q 377.570515 101.588745 377.14864 102.059839 
L 376.14739 101.914995 
L 376.780203 98.561089 
L 380.045515 98.561089 
L 380.045515 99.717027 
L 377.715359 99.717027 
L 377.522703 100.811089 
Q 377.93614 100.60437 378.366453 100.60437 
Q 379.187703 100.60437 379.75864 101.202027 
Q 380.330984 101.799683 380.330984 102.75312 
Q 380.330984 103.549058 379.869734 104.173433 
Q 379.24114 105.02562 378.124578 105.02562 
Q 377.233015 105.02562 376.670515 104.547495 
Q 376.108015 104.067964 375.996922 103.25937 
z
" style="stroke: #ffffff; stroke-width: 3"/>
    <path d="M 368.390867 104.915933 
L 368.390867 103.61937 
L 365.754148 103.61937 
L 365.754148 102.537964 
L 368.548367 98.447183 
L 369.586179 98.447183 
L 369.586179 102.533745 
L 370.386336 102.533745 
L 370.386336 103.61937 
L 369.586179 103.61937 
L 369.586179 104.915933 
L 368.390867 104.915933 
z
M 368.390867 102.533745 
L 368.390867 100.332964 
L 366.910086 102.533745 
L 368.390867 102.533745 
z
M 370.974676 99.708589 
L 370.974676 98.561089 
L 375.197644 98.561089 
L 375.197644 99.458277 
Q 374.674519 99.971558 374.133113 100.934839 
Q 373.593113 101.896714 373.309051 102.980933 
Q 373.026394 104.063745 373.030613 104.915933 
L 371.840926 104.915933 
Q 371.870457 103.579995 372.390769 102.192027 
Q 372.912488 100.802652 373.782957 99.708589 
L 370.974676 99.708589 
z
M 375.996922 103.25937 
L 377.22739 103.131402 
Q 377.280828 103.549058 377.539578 103.793745 
Q 377.799734 104.037027 378.137234 104.037027 
Q 378.523953 104.037027 378.792547 103.723433 
Q 379.06114 103.408433 379.06114 102.77562 
Q 379.06114 102.182183 378.793953 101.885464 
Q 378.528172 101.588745 378.102078 101.588745 
Q 377.570515 101.588745 377.14864 102.059839 
L 376.14739 101.914995 
L 376.780203 98.561089 
L 380.045515 98.561089 
L 380.045515 99.717027 
L 377.715359 99.717027 
L 377.522703 100.811089 
Q 377.93614 100.60437 378.366453 100.60437 
Q 379.187703 100.60437 379.75864 101.202027 
Q 380.330984 101.799683 380.330984 102.75312 
Q 380.330984 103.549058 379.869734 104.173433 
Q 379.24114 105.02562 378.124578 105.02562 
Q 377.233015 105.02562 376.670515 104.547495 
Q 376.108015 104.067964 375.996922 103.25937 
z
"/>
   </g>
   <g id="text_21">
    <path d="M 433.483412 47.13992 
L 434.713881 47.011952 
Q 434.767318 47.429608 435.026068 47.674295 
Q 435.286225 47.917577 435.623725 47.917577 
Q 436.010443 47.917577 436.279037 47.603983 
Q 436.547631 47.288983 436.547631 46.65617 
Q 436.547631 46.062733 436.280443 45.766014 
Q 436.014662 45.469295 435.588568 45.469295 
Q 435.057006 45.469295 434.635131 45.940389 
L 433.633881 45.795545 
L 434.266693 42.441639 
L 437.532006 42.441639 
L 437.532006 43.597577 
L 435.20185 43.597577 
L 435.009193 44.691639 
Q 435.422631 44.48492 435.852943 44.48492 
Q 436.674193 44.48492 437.245131 45.082577 
Q 437.817475 45.680233 437.817475 46.63367 
Q 437.817475 47.429608 437.356225 48.053983 
Q 436.727631 48.90617 435.611068 48.90617 
Q 434.719506 48.90617 434.157006 48.428045 
Q 433.594506 47.948514 433.483412 47.13992 
z
M 438.498627 47.307264 
L 439.693939 47.175077 
Q 439.737533 47.539295 439.921752 47.715077 
Q 440.105971 47.890858 440.409721 47.890858 
Q 440.792221 47.890858 441.059408 47.539295 
Q 441.328002 47.187733 441.402533 46.081014 
Q 440.937064 46.621014 440.238158 46.621014 
Q 439.478783 46.621014 438.926127 46.034608 
Q 438.374877 45.448202 438.374877 44.50742 
Q 438.374877 43.527264 438.957064 42.928202 
Q 439.539252 42.327733 440.440658 42.327733 
Q 441.420814 42.327733 442.049408 43.085702 
Q 442.678002 43.84367 442.678002 45.578983 
Q 442.678002 47.346639 442.022689 48.128514 
Q 441.367377 48.910389 440.316908 48.910389 
Q 439.561752 48.910389 439.094877 48.508202 
Q 438.629408 48.106014 438.498627 47.307264 
z
M 441.292846 44.60867 
Q 441.292846 44.011014 441.018627 43.681952 
Q 440.744408 43.351483 440.383002 43.351483 
Q 440.041283 43.351483 439.814877 43.621483 
Q 439.588471 43.891483 439.588471 44.50742 
Q 439.588471 45.131795 439.834564 45.424295 
Q 440.080658 45.715389 440.449096 45.715389 
Q 440.804877 45.715389 441.048158 45.434139 
Q 441.292846 45.152889 441.292846 44.60867 
z
M 443.503998 47.307264 
L 444.699311 47.175077 
Q 444.742904 47.539295 444.927123 47.715077 
Q 445.111342 47.890858 445.415092 47.890858 
Q 445.797592 47.890858 446.064779 47.539295 
Q 446.333373 47.187733 446.407904 46.081014 
Q 445.942436 46.621014 445.243529 46.621014 
Q 444.484154 46.621014 443.931498 46.034608 
Q 443.380248 45.448202 443.380248 44.50742 
Q 443.380248 43.527264 443.962436 42.928202 
Q 444.544623 42.327733 445.446029 42.327733 
Q 446.426186 42.327733 447.054779 43.085702 
Q 447.683373 43.84367 447.683373 45.578983 
Q 447.683373 47.346639 447.028061 48.128514 
Q 446.372748 48.910389 445.322279 48.910389 
Q 444.567123 48.910389 444.100248 48.508202 
Q 443.634779 48.106014 443.503998 47.307264 
z
M 446.298217 44.60867 
Q 446.298217 44.011014 446.023998 43.681952 
Q 445.749779 43.351483 445.388373 43.351483 
Q 445.046654 43.351483 444.820248 43.621483 
Q 444.593842 43.891483 444.593842 44.50742 
Q 444.593842 45.131795 444.839936 45.424295 
Q 445.086029 45.715389 445.454467 45.715389 
Q 445.810248 45.715389 446.053529 45.434139 
Q 446.298217 45.152889 446.298217 44.60867 
z
" style="stroke: #ffffff; stroke-width: 3"/>
    <path d="M 433.483412 47.13992 
L 434.713881 47.011952 
Q 434.767318 47.429608 435.026068 47.674295 
Q 435.286225 47.917577 435.623725 47.917577 
Q 436.010443 47.917577 436.279037 47.603983 
Q 436.547631 47.288983 436.547631 46.65617 
Q 436.547631 46.062733 436.280443 45.766014 
Q 436.014662 45.469295 435.588568 45.469295 
Q 435.057006 45.469295 434.635131 45.940389 
L 433.633881 45.795545 
L 434.266693 42.441639 
L 437.532006 42.441639 
L 437.532006 43.597577 
L 435.20185 43.597577 
L 435.009193 44.691639 
Q 435.422631 44.48492 435.852943 44.48492 
Q 436.674193 44.48492 437.245131 45.082577 
Q 437.817475 45.680233 437.817475 46.63367 
Q 437.817475 47.429608 437.356225 48.053983 
Q 436.727631 48.90617 435.611068 48.90617 
Q 434.719506 48.90617 434.157006 48.428045 
Q 433.594506 47.948514 433.483412 47.13992 
z
M 438.498627 47.307264 
L 439.693939 47.175077 
Q 439.737533 47.539295 439.921752 47.715077 
Q 440.105971 47.890858 440.409721 47.890858 
Q 440.792221 47.890858 441.059408 47.539295 
Q 441.328002 47.187733 441.402533 46.081014 
Q 440.937064 46.621014 440.238158 46.621014 
Q 439.478783 46.621014 438.926127 46.034608 
Q 438.374877 45.448202 438.374877 44.50742 
Q 438.374877 43.527264 438.957064 42.928202 
Q 439.539252 42.327733 440.440658 42.327733 
Q 441.420814 42.327733 442.049408 43.085702 
Q 442.678002 43.84367 442.678002 45.578983 
Q 442.678002 47.346639 442.022689 48.128514 
Q 441.367377 48.910389 440.316908 48.910389 
Q 439.561752 48.910389 439.094877 48.508202 
Q 438.629408 48.106014 438.498627 47.307264 
z
M 441.292846 44.60867 
Q 441.292846 44.011014 441.018627 43.681952 
Q 440.744408 43.351483 440.383002 43.351483 
Q 440.041283 43.351483 439.814877 43.621483 
Q 439.588471 43.891483 439.588471 44.50742 
Q 439.588471 45.131795 439.834564 45.424295 
Q 440.080658 45.715389 440.449096 45.715389 
Q 440.804877 45.715389 441.048158 45.434139 
Q 441.292846 45.152889 441.292846 44.60867 
z
M 443.503998 47.307264 
L 444.699311 47.175077 
Q 444.742904 47.539295 444.927123 47.715077 
Q 445.111342 47.890858 445.415092 47.890858 
Q 445.797592 47.890858 446.064779 47.539295 
Q 446.333373 47.187733 446.407904 46.081014 
Q 445.942436 46.621014 445.243529 46.621014 
Q 444.484154 46.621014 443.931498 46.034608 
Q 443.380248 45.448202 443.380248 44.50742 
Q 443.380248 43.527264 443.962436 42.928202 
Q 444.544623 42.327733 445.446029 42.327733 
Q 446.426186 42.327733 447.054779 43.085702 
Q 447.683373 43.84367 447.683373 45.578983 
Q 447.683373 47.346639 447.028061 48.128514 
Q 446.372748 48.910389 445.322279 48.910389 
Q 444.567123 48.910389 444.100248 48.508202 
Q 443.634779 48.106014 443.503998 47.307264 
z
M 446.298217 44.60867 
Q 446.298217 44.011014 446.023998 43.681952 
Q 445.749779 43.351483 445.388373 43.351483 
Q 445.046654 43.351483 444.820248 43.621483 
Q 444.593842 43.891483 444.593842 44.50742 
Q 444.593842 45.131795 444.839936 45.424295 
Q 445.086029 45.715389 445.454467 45.715389 
Q 445.810248 45.715389 446.053529 45.434139 
Q 446.298217 45.152889 446.298217 44.60867 
z
"/>
   </g>
   <g id="text_22">
    <path d="M 500.980645 90.13466 
L 502.211113 90.006691 
Q 502.264551 90.424348 502.523301 90.669035 
Q 502.783457 90.912316 503.120957 90.912316 
Q 503.507676 90.912316 503.77627 90.598723 
Q 504.044863 90.283723 504.044863 89.65091 
Q 504.044863 89.057473 503.777676 88.760754 
Q 503.511895 88.464035 503.085801 88.464035 
Q 502.554238 88.464035 502.132363 88.935129 
L 501.131113 88.790285 
L 501.763926 85.436379 
L 505.029238 85.436379 
L 505.029238 86.592316 
L 502.699082 86.592316 
L 502.506426 87.686379 
Q 502.919863 87.47966 503.350176 87.47966 
Q 504.171426 87.47966 504.742363 88.077316 
Q 505.314707 88.674973 505.314707 89.62841 
Q 505.314707 90.424348 504.853457 91.048723 
Q 504.224863 91.90091 503.108301 91.90091 
Q 502.216738 91.90091 501.654238 91.422785 
Q 501.091738 90.943254 500.980645 90.13466 
z
M 508.056016 85.322473 
Q 508.992578 85.322473 509.519922 85.990441 
Q 510.148516 86.780754 510.148516 88.614504 
Q 510.148516 90.442629 509.515703 91.241379 
Q 508.992578 91.90091 508.056016 91.90091 
Q 507.116641 91.90091 506.540078 91.178098 
Q 505.964922 90.455285 505.964922 88.600441 
Q 505.964922 86.780754 506.597735 85.982004 
Q 507.12086 85.322473 508.056016 85.322473 
z
M 508.056016 86.346223 
Q 507.832422 86.346223 507.656641 86.48966 
Q 507.48086 86.631691 507.383828 87.001535 
Q 507.257266 87.47966 507.257266 88.614504 
Q 507.257266 89.747941 507.371172 90.172629 
Q 507.485078 90.59591 507.658047 90.736535 
Q 507.832422 90.87716 508.056016 90.87716 
Q 508.281016 90.87716 508.456797 90.735129 
Q 508.632578 90.591691 508.728203 90.221848 
Q 508.856172 89.747941 508.856172 88.614504 
Q 508.856172 87.47966 508.742266 87.056379 
Q 508.62836 86.631691 508.453985 86.48966 
Q 508.281016 86.346223 508.056016 86.346223 
z
M 513.396074 91.791223 
L 513.396074 90.49466 
L 510.759356 90.49466 
L 510.759356 89.413254 
L 513.553574 85.322473 
L 514.591387 85.322473 
L 514.591387 89.409035 
L 515.391543 89.409035 
L 515.391543 90.49466 
L 514.591387 90.49466 
L 514.591387 91.791223 
L 513.396074 91.791223 
z
M 513.396074 89.409035 
L 513.396074 87.208254 
L 511.915293 89.409035 
L 513.396074 89.409035 
z
" style="stroke: #ffffff; stroke-width: 3"/>
    <path d="M 500.980645 90.13466 
L 502.211113 90.006691 
Q 502.264551 90.424348 502.523301 90.669035 
Q 502.783457 90.912316 503.120957 90.912316 
Q 503.507676 90.912316 503.77627 90.598723 
Q 504.044863 90.283723 504.044863 89.65091 
Q 504.044863 89.057473 503.777676 88.760754 
Q 503.511895 88.464035 503.085801 88.464035 
Q 502.554238 88.464035 502.132363 88.935129 
L 501.131113 88.790285 
L 501.763926 85.436379 
L 505.029238 85.436379 
L 505.029238 86.592316 
L 502.699082 86.592316 
L 502.506426 87.686379 
Q 502.919863 87.47966 503.350176 87.47966 
Q 504.171426 87.47966 504.742363 88.077316 
Q 505.314707 88.674973 505.314707 89.62841 
Q 505.314707 90.424348 504.853457 91.048723 
Q 504.224863 91.90091 503.108301 91.90091 
Q 502.216738 91.90091 501.654238 91.422785 
Q 501.091738 90.943254 500.980645 90.13466 
z
M 508.056016 85.322473 
Q 508.992578 85.322473 509.519922 85.990441 
Q 510.148516 86.780754 510.148516 88.614504 
Q 510.148516 90.442629 509.515703 91.241379 
Q 508.992578 91.90091 508.056016 91.90091 
Q 507.116641 91.90091 506.540078 91.178098 
Q 505.964922 90.455285 505.964922 88.600441 
Q 505.964922 86.780754 506.597735 85.982004 
Q 507.12086 85.322473 508.056016 85.322473 
z
M 508.056016 86.346223 
Q 507.832422 86.346223 507.656641 86.48966 
Q 507.48086 86.631691 507.383828 87.001535 
Q 507.257266 87.47966 507.257266 88.614504 
Q 507.257266 89.747941 507.371172 90.172629 
Q 507.485078 90.59591 507.658047 90.736535 
Q 507.832422 90.87716 508.056016 90.87716 
Q 508.281016 90.87716 508.456797 90.735129 
Q 508.632578 90.591691 508.728203 90.221848 
Q 508.856172 89.747941 508.856172 88.614504 
Q 508.856172 87.47966 508.742266 87.056379 
Q 508.62836 86.631691 508.453985 86.48966 
Q 508.281016 86.346223 508.056016 86.346223 
z
M 513.396074 91.791223 
L 513.396074 90.49466 
L 510.759356 90.49466 
L 510.759356 89.413254 
L 513.553574 85.322473 
L 514.591387 85.322473 
L 514.591387 89.409035 
L 515.391543 89.409035 
L 515.391543 90.49466 
L 514.591387 90.49466 
L 514.591387 91.791223 
L 513.396074 91.791223 
z
M 513.396074 89.409035 
L 513.396074 87.208254 
L 511.915293 89.409035 
L 513.396074 89.409035 
z
"/>
   </g>
   <g id="text_23">
    <!-- Daily Average: 565 -->
    <g style="fill: #ff0000" transform="translate(411.594135 59.529004) scale(0.1152 -0.1152)">
     <defs>
      <path id="ArialMT-44" d="M 494 0 
L 494 4581 
L 2072 4581 
Q 2606 4581 2888 4516 
Q 3281 4425 3559 4188 
Q 3922 3881 4101 3404 
Q 4281 2928 4281 2316 
Q 4281 1794 4159 1391 
Q 4038 988 3847 723 
Q 3656 459 3429 307 
Q 3203 156 2883 78 
Q 2563 0 2147 0 
L 494 0 
z
M 1100 541 
L 2078 541 
Q 2531 541 2789 625 
Q 3047 709 3200 863 
Q 3416 1078 3536 1442 
Q 3656 1806 3656 2325 
Q 3656 3044 3420 3430 
Q 3184 3816 2847 3947 
Q 2603 4041 2063 4041 
L 1100 4041 
L 1100 541 
z
" transform="scale(0.015625)"/>
      <path id="ArialMT-6c" d="M 409 0 
L 409 4581 
L 972 4581 
L 972 0 
L 409 0 
z
" transform="scale(0.015625)"/>
      <path id="ArialMT-41" d="M -9 0 
L 1750 4581 
L 2403 4581 
L 4278 0 
L 3588 0 
L 3053 1388 
L 1138 1388 
L 634 0 
L -9 0 
z
M 1313 1881 
L 2866 1881 
L 2388 3150 
Q 2169 3728 2063 4100 
Q 1975 3659 1816 3225 
L 1313 1881 
z
" transform="scale(0.015625)"/>
      <path id="ArialMT-76" d="M 1344 0 
L 81 3319 
L 675 3319 
L 1388 1331 
Q 1503 1009 1600 663 
Q 1675 925 1809 1294 
L 2547 3319 
L 3125 3319 
L 1869 0 
L 1344 0 
z
" transform="scale(0.015625)"/>
      <path id="ArialMT-67" d="M 319 -275 
L 866 -356 
Q 900 -609 1056 -725 
Q 1266 -881 1628 -881 
Q 2019 -881 2231 -725 
Q 2444 -569 2519 -288 
Q 2563 -116 2559 434 
Q 2191 0 1641 0 
Q 956 0 581 494 
Q 206 988 206 1678 
Q 206 2153 378 2554 
Q 550 2956 876 3175 
Q 1203 3394 1644 3394 
Q 2231 3394 2613 2919 
L 2613 3319 
L 3131 3319 
L 3131 450 
Q 3131 -325 2973 -648 
Q 2816 -972 2473 -1159 
Q 2131 -1347 1631 -1347 
Q 1038 -1347 672 -1080 
Q 306 -813 319 -275 
z
M 784 1719 
Q 784 1066 1043 766 
Q 1303 466 1694 466 
Q 2081 466 2343 764 
Q 2606 1063 2606 1700 
Q 2606 2309 2336 2618 
Q 2066 2928 1684 2928 
Q 1309 2928 1046 2623 
Q 784 2319 784 1719 
z
" transform="scale(0.015625)"/>
      <path id="ArialMT-3a" d="M 578 2678 
L 578 3319 
L 1219 3319 
L 1219 2678 
L 578 2678 
z
M 578 0 
L 578 641 
L 1219 641 
L 1219 0 
L 578 0 
z
" transform="scale(0.015625)"/>
     </defs>
     <use xlink:href="#ArialMT-44"/>
     <use xlink:href="#ArialMT-61" transform="translate(72.216797 0)"/>
     <use xlink:href="#ArialMT-69" transform="translate(127.832031 0)"/>
     <use xlink:href="#ArialMT-6c" transform="translate(150.048828 0)"/>
     <use xlink:href="#ArialMT-79" transform="translate(172.265625 0)"/>
     <use xlink:href="#ArialMT-20" transform="translate(222.265625 0)"/>
     <use xlink:href="#ArialMT-41" transform="translate(244.548828 0)"/>
     <use xlink:href="#ArialMT-76" transform="translate(309.498047 0)"/>
     <use xlink:href="#ArialMT-65" transform="translate(359.498047 0)"/>
     <use xlink:href="#ArialMT-72" transform="translate(415.113281 0)"/>
     <use xlink:href="#ArialMT-61" transform="translate(448.414062 0)"/>
     <use xlink:href="#ArialMT-67" transform="translate(504.029297 0)"/>
     <use xlink:href="#ArialMT-65" transform="translate(559.644531 0)"/>
     <use xlink:href="#ArialMT-3a" transform="translate(615.259766 0)"/>
     <use xlink:href="#ArialMT-20" transform="translate(643.042969 0)"/>
     <use xlink:href="#ArialMT-35" transform="translate(670.826172 0)"/>
     <use xlink:href="#ArialMT-36" transform="translate(726.441406 0)"/>
     <use xlink:href="#ArialMT-35" transform="translate(782.056641 0)"/>
    </g>
   </g>
   <g id="text_24">
    <!-- Security Incidents by Day of Week -->
    <g style="fill: #262626" transform="translate(191.7484 17.391562) scale(0.14 -0.14)">
     <defs>
      <path id="Arial-BoldMT-53" d="M 231 1491 
L 1131 1578 
Q 1213 1125 1461 912 
Q 1709 700 2131 700 
Q 2578 700 2804 889 
Q 3031 1078 3031 1331 
Q 3031 1494 2936 1608 
Q 2841 1722 2603 1806 
Q 2441 1863 1863 2006 
Q 1119 2191 819 2459 
Q 397 2838 397 3381 
Q 397 3731 595 4036 
Q 794 4341 1167 4500 
Q 1541 4659 2069 4659 
Q 2931 4659 3367 4281 
Q 3803 3903 3825 3272 
L 2900 3231 
Q 2841 3584 2645 3739 
Q 2450 3894 2059 3894 
Q 1656 3894 1428 3728 
Q 1281 3622 1281 3444 
Q 1281 3281 1419 3166 
Q 1594 3019 2269 2859 
Q 2944 2700 3267 2529 
Q 3591 2359 3773 2064 
Q 3956 1769 3956 1334 
Q 3956 941 3737 597 
Q 3519 253 3119 86 
Q 2719 -81 2122 -81 
Q 1253 -81 787 320 
Q 322 722 231 1491 
z
" transform="scale(0.015625)"/>
      <path id="Arial-BoldMT-65" d="M 2381 1056 
L 3256 909 
Q 3088 428 2723 176 
Q 2359 -75 1813 -75 
Q 947 -75 531 491 
Q 203 944 203 1634 
Q 203 2459 634 2926 
Q 1066 3394 1725 3394 
Q 2466 3394 2894 2905 
Q 3322 2416 3303 1406 
L 1103 1406 
Q 1113 1016 1316 798 
Q 1519 581 1822 581 
Q 2028 581 2168 693 
Q 2309 806 2381 1056 
z
M 2431 1944 
Q 2422 2325 2234 2523 
Q 2047 2722 1778 2722 
Q 1491 2722 1303 2513 
Q 1116 2303 1119 1944 
L 2431 1944 
z
" transform="scale(0.015625)"/>
      <path id="Arial-BoldMT-63" d="M 3353 2338 
L 2488 2181 
Q 2444 2441 2289 2572 
Q 2134 2703 1888 2703 
Q 1559 2703 1364 2476 
Q 1169 2250 1169 1719 
Q 1169 1128 1367 884 
Q 1566 641 1900 641 
Q 2150 641 2309 783 
Q 2469 925 2534 1272 
L 3397 1125 
Q 3263 531 2881 228 
Q 2500 -75 1859 -75 
Q 1131 -75 698 384 
Q 266 844 266 1656 
Q 266 2478 700 2936 
Q 1134 3394 1875 3394 
Q 2481 3394 2839 3133 
Q 3197 2872 3353 2338 
z
" transform="scale(0.015625)"/>
      <path id="Arial-BoldMT-75" d="M 2644 0 
L 2644 497 
Q 2463 231 2167 78 
Q 1872 -75 1544 -75 
Q 1209 -75 943 72 
Q 678 219 559 484 
Q 441 750 441 1219 
L 441 3319 
L 1319 3319 
L 1319 1794 
Q 1319 1094 1367 936 
Q 1416 778 1544 686 
Q 1672 594 1869 594 
Q 2094 594 2272 717 
Q 2450 841 2515 1023 
Q 2581 1206 2581 1919 
L 2581 3319 
L 3459 3319 
L 3459 0 
L 2644 0 
z
" transform="scale(0.015625)"/>
      <path id="Arial-BoldMT-72" d="M 1300 0 
L 422 0 
L 422 3319 
L 1238 3319 
L 1238 2847 
Q 1447 3181 1614 3287 
Q 1781 3394 1994 3394 
Q 2294 3394 2572 3228 
L 2300 2463 
Q 2078 2606 1888 2606 
Q 1703 2606 1575 2504 
Q 1447 2403 1373 2137 
Q 1300 1872 1300 1025 
L 1300 0 
z
" transform="scale(0.015625)"/>
      <path id="Arial-BoldMT-69" d="M 459 3769 
L 459 4581 
L 1338 4581 
L 1338 3769 
L 459 3769 
z
M 459 0 
L 459 3319 
L 1338 3319 
L 1338 0 
L 459 0 
z
" transform="scale(0.015625)"/>
      <path id="Arial-BoldMT-74" d="M 1981 3319 
L 1981 2619 
L 1381 2619 
L 1381 1281 
Q 1381 875 1398 808 
Q 1416 741 1477 697 
Q 1538 653 1625 653 
Q 1747 653 1978 738 
L 2053 56 
Q 1747 -75 1359 -75 
Q 1122 -75 931 4 
Q 741 84 652 211 
Q 563 338 528 553 
Q 500 706 500 1172 
L 500 2619 
L 97 2619 
L 97 3319 
L 500 3319 
L 500 3978 
L 1381 4491 
L 1381 3319 
L 1981 3319 
z
" transform="scale(0.015625)"/>
      <path id="Arial-BoldMT-79" d="M 44 3319 
L 978 3319 
L 1772 963 
L 2547 3319 
L 3456 3319 
L 2284 125 
L 2075 -453 
Q 1959 -744 1854 -897 
Q 1750 -1050 1614 -1145 
Q 1478 -1241 1279 -1294 
Q 1081 -1347 831 -1347 
Q 578 -1347 334 -1294 
L 256 -606 
Q 463 -647 628 -647 
Q 934 -647 1081 -467 
Q 1228 -288 1306 -9 
L 44 3319 
z
" transform="scale(0.015625)"/>
      <path id="Arial-BoldMT-20" transform="scale(0.015625)"/>
      <path id="Arial-BoldMT-49" d="M 438 0 
L 438 4581 
L 1363 4581 
L 1363 0 
L 438 0 
z
" transform="scale(0.015625)"/>
      <path id="Arial-BoldMT-6e" d="M 3478 0 
L 2600 0 
L 2600 1694 
Q 2600 2231 2544 2389 
Q 2488 2547 2361 2634 
Q 2234 2722 2056 2722 
Q 1828 2722 1647 2597 
Q 1466 2472 1398 2265 
Q 1331 2059 1331 1503 
L 1331 0 
L 453 0 
L 453 3319 
L 1269 3319 
L 1269 2831 
Q 1703 3394 2363 3394 
Q 2653 3394 2893 3289 
Q 3134 3184 3257 3021 
Q 3381 2859 3429 2653 
Q 3478 2447 3478 2063 
L 3478 0 
z
" transform="scale(0.015625)"/>
      <path id="Arial-BoldMT-64" d="M 3503 0 
L 2688 0 
L 2688 488 
Q 2484 203 2207 64 
Q 1931 -75 1650 -75 
Q 1078 -75 670 386 
Q 263 847 263 1672 
Q 263 2516 659 2955 
Q 1056 3394 1663 3394 
Q 2219 3394 2625 2931 
L 2625 4581 
L 3503 4581 
L 3503 0 
z
M 1159 1731 
Q 1159 1200 1306 963 
Q 1519 619 1900 619 
Q 2203 619 2415 876 
Q 2628 1134 2628 1647 
Q 2628 2219 2422 2470 
Q 2216 2722 1894 2722 
Q 1581 2722 1370 2473 
Q 1159 2225 1159 1731 
z
" transform="scale(0.015625)"/>
      <path id="Arial-BoldMT-73" d="M 150 947 
L 1031 1081 
Q 1088 825 1259 692 
Q 1431 559 1741 559 
Q 2081 559 2253 684 
Q 2369 772 2369 919 
Q 2369 1019 2306 1084 
Q 2241 1147 2013 1200 
Q 950 1434 666 1628 
Q 272 1897 272 2375 
Q 272 2806 612 3100 
Q 953 3394 1669 3394 
Q 2350 3394 2681 3172 
Q 3013 2950 3138 2516 
L 2309 2363 
Q 2256 2556 2107 2659 
Q 1959 2763 1684 2763 
Q 1338 2763 1188 2666 
Q 1088 2597 1088 2488 
Q 1088 2394 1175 2328 
Q 1294 2241 1995 2081 
Q 2697 1922 2975 1691 
Q 3250 1456 3250 1038 
Q 3250 581 2869 253 
Q 2488 -75 1741 -75 
Q 1063 -75 667 200 
Q 272 475 150 947 
z
" transform="scale(0.015625)"/>
      <path id="Arial-BoldMT-62" d="M 422 0 
L 422 4581 
L 1300 4581 
L 1300 2931 
Q 1706 3394 2263 3394 
Q 2869 3394 3266 2955 
Q 3663 2516 3663 1694 
Q 3663 844 3258 384 
Q 2853 -75 2275 -75 
Q 1991 -75 1714 67 
Q 1438 209 1238 488 
L 1238 0 
L 422 0 
z
M 1294 1731 
Q 1294 1216 1456 969 
Q 1684 619 2063 619 
Q 2353 619 2558 867 
Q 2763 1116 2763 1650 
Q 2763 2219 2556 2470 
Q 2350 2722 2028 2722 
Q 1713 2722 1503 2476 
Q 1294 2231 1294 1731 
z
" transform="scale(0.015625)"/>
      <path id="Arial-BoldMT-44" d="M 463 4581 
L 2153 4581 
Q 2725 4581 3025 4494 
Q 3428 4375 3715 4072 
Q 4003 3769 4153 3330 
Q 4303 2891 4303 2247 
Q 4303 1681 4163 1272 
Q 3991 772 3672 463 
Q 3431 228 3022 97 
Q 2716 0 2203 0 
L 463 0 
L 463 4581 
z
M 1388 3806 
L 1388 772 
L 2078 772 
Q 2466 772 2638 816 
Q 2863 872 3011 1006 
Q 3159 1141 3253 1448 
Q 3347 1756 3347 2288 
Q 3347 2819 3253 3103 
Q 3159 3388 2990 3547 
Q 2822 3706 2563 3763 
Q 2369 3806 1803 3806 
L 1388 3806 
z
" transform="scale(0.015625)"/>
      <path id="Arial-BoldMT-61" d="M 1116 2306 
L 319 2450 
Q 453 2931 781 3162 
Q 1109 3394 1756 3394 
Q 2344 3394 2631 3255 
Q 2919 3116 3036 2902 
Q 3153 2688 3153 2116 
L 3144 1091 
Q 3144 653 3186 445 
Q 3228 238 3344 0 
L 2475 0 
Q 2441 88 2391 259 
Q 2369 338 2359 363 
Q 2134 144 1878 34 
Q 1622 -75 1331 -75 
Q 819 -75 523 203 
Q 228 481 228 906 
Q 228 1188 362 1408 
Q 497 1628 739 1745 
Q 981 1863 1438 1950 
Q 2053 2066 2291 2166 
L 2291 2253 
Q 2291 2506 2166 2614 
Q 2041 2722 1694 2722 
Q 1459 2722 1328 2630 
Q 1197 2538 1116 2306 
z
M 2291 1594 
Q 2122 1538 1756 1459 
Q 1391 1381 1278 1306 
Q 1106 1184 1106 997 
Q 1106 813 1243 678 
Q 1381 544 1594 544 
Q 1831 544 2047 700 
Q 2206 819 2256 991 
Q 2291 1103 2291 1419 
L 2291 1594 
z
" transform="scale(0.015625)"/>
      <path id="Arial-BoldMT-6f" d="M 256 1706 
Q 256 2144 472 2553 
Q 688 2963 1083 3178 
Q 1478 3394 1966 3394 
Q 2719 3394 3200 2905 
Q 3681 2416 3681 1669 
Q 3681 916 3195 420 
Q 2709 -75 1972 -75 
Q 1516 -75 1102 131 
Q 688 338 472 736 
Q 256 1134 256 1706 
z
M 1156 1659 
Q 1156 1166 1390 903 
Q 1625 641 1969 641 
Q 2313 641 2545 903 
Q 2778 1166 2778 1666 
Q 2778 2153 2545 2415 
Q 2313 2678 1969 2678 
Q 1625 2678 1390 2415 
Q 1156 2153 1156 1659 
z
" transform="scale(0.015625)"/>
      <path id="Arial-BoldMT-66" d="M 75 3319 
L 563 3319 
L 563 3569 
Q 563 3988 652 4194 
Q 741 4400 980 4529 
Q 1219 4659 1584 4659 
Q 1959 4659 2319 4547 
L 2200 3934 
Q 1991 3984 1797 3984 
Q 1606 3984 1523 3895 
Q 1441 3806 1441 3553 
L 1441 3319 
L 2097 3319 
L 2097 2628 
L 1441 2628 
L 1441 0 
L 563 0 
L 563 2628 
L 75 2628 
L 75 3319 
z
" transform="scale(0.015625)"/>
      <path id="Arial-BoldMT-57" d="M 1116 0 
L 22 4581 
L 969 4581 
L 1659 1434 
L 2497 4581 
L 3597 4581 
L 4400 1381 
L 5103 4581 
L 6034 4581 
L 4922 0 
L 3941 0 
L 3028 3425 
L 2119 0 
L 1116 0 
z
" transform="scale(0.015625)"/>
      <path id="Arial-BoldMT-6b" d="M 428 0 
L 428 4581 
L 1306 4581 
L 1306 2150 
L 2334 3319 
L 3416 3319 
L 2281 2106 
L 3497 0 
L 2550 0 
L 1716 1491 
L 1306 1063 
L 1306 0 
L 428 0 
z
" transform="scale(0.015625)"/>
     </defs>
     <use xlink:href="#Arial-BoldMT-53"/>
     <use xlink:href="#Arial-BoldMT-65" transform="translate(66.699219 0)"/>
     <use xlink:href="#Arial-BoldMT-63" transform="translate(122.314453 0)"/>
     <use xlink:href="#Arial-BoldMT-75" transform="translate(177.929688 0)"/>
     <use xlink:href="#Arial-BoldMT-72" transform="translate(239.013672 0)"/>
     <use xlink:href="#Arial-BoldMT-69" transform="translate(277.929688 0)"/>
     <use xlink:href="#Arial-BoldMT-74" transform="translate(305.712891 0)"/>
     <use xlink:href="#Arial-BoldMT-79" transform="translate(339.013672 0)"/>
     <use xlink:href="#Arial-BoldMT-20" transform="translate(394.628906 0)"/>
     <use xlink:href="#Arial-BoldMT-49" transform="translate(422.412109 0)"/>
     <use xlink:href="#Arial-BoldMT-6e" transform="translate(450.195312 0)"/>
     <use xlink:href="#Arial-BoldMT-63" transform="translate(511.279297 0)"/>
     <use xlink:href="#Arial-BoldMT-69" transform="translate(566.894531 0)"/>
     <use xlink:href="#Arial-BoldMT-64" transform="translate(594.677734 0)"/>
     <use xlink:href="#Arial-BoldMT-65" transform="translate(655.761719 0)"/>
     <use xlink:href="#Arial-BoldMT-6e" transform="translate(711.376953 0)"/>
     <use xlink:href="#Arial-BoldMT-74" transform="translate(772.460938 0)"/>
     <use xlink:href="#Arial-BoldMT-73" transform="translate(805.761719 0)"/>
     <use xlink:href="#Arial-BoldMT-20" transform="translate(861.376953 0)"/>
     <use xlink:href="#Arial-BoldMT-62" transform="translate(889.160156 0)"/>
     <use xlink:href="#Arial-BoldMT-79" transform="translate(950.244141 0)"/>
     <use xlink:href="#Arial-BoldMT-20" transform="translate(1005.859375 0)"/>
     <use xlink:href="#Arial-BoldMT-44" transform="translate(1033.642578 0)"/>
     <use xlink:href="#Arial-BoldMT-61" transform="translate(1105.859375 0)"/>
     <use xlink:href="#Arial-BoldMT-79" transform="translate(1161.474609 0)"/>
     <use xlink:href="#Arial-BoldMT-20" transform="translate(1217.089844 0)"/>
     <use xlink:href="#Arial-BoldMT-6f" transform="translate(1244.873047 0)"/>
     <use xlink:href="#Arial-BoldMT-66" transform="translate(1305.957031 0)"/>
     <use xlink:href="#Arial-BoldMT-20" transform="translate(1339.257812 0)"/>
     <use xlink:href="#Arial-BoldMT-57" transform="translate(1367.041016 0)"/>
     <use xlink:href="#Arial-BoldMT-65" transform="translate(1459.675781 0)"/>
     <use xlink:href="#Arial-BoldMT-65" transform="translate(1515.291016 0)"/>
     <use xlink:href="#Arial-BoldMT-6b" transform="translate(1570.90625 0)"/>
    </g>
   </g>
  </g>
 </g>
 <defs>
  <clipPath id="p27ea4bdfd7">
   <rect x="53.157188" y="37.391562" width="504.8793" height="287.023831"/>
  </clipPath>
 </defs>
</svg>
