<?xml version="1.0" encoding="utf-8" standalone="no"?>
<!DOCTYPE svg PUBLIC "-//W3C//DTD SVG 1.1//EN"
  "http://www.w3.org/Graphics/SVG/1.1/DTD/svg11.dtd">
<svg xmlns:xlink="http://www.w3.org/1999/xlink" width="563.544904pt" height="349.07805pt" viewBox="0 0 563.544904 349.07805" xmlns="http://www.w3.org/2000/svg" version="1.1">
 <metadata>
  <rdf:RDF xmlns:dc="http://purl.org/dc/elements/1.1/" xmlns:cc="http://creativecommons.org/ns#" xmlns:rdf="http://www.w3.org/1999/02/22-rdf-syntax-ns#">
   <cc:Work>
    <dc:type rdf:resource="http://purl.org/dc/dcmitype/StillImage"/>
    <dc:date>2025-04-07T20:52:34.713679</dc:date>
    <dc:format>image/svg+xml</dc:format>
    <dc:creator>
     <cc:Agent>
      <dc:title>Matplotlib v3.10.0, https://matplotlib.org/</dc:title>
     </cc:Agent>
    </dc:creator>
   </cc:Work>
  </rdf:RDF>
 </metadata>
 <defs>
  <style type="text/css">*{stroke-linejoin: round; stroke-linecap: butt}</style>
 </defs>
 <g id="figure_1">
  <g id="patch_1">
   <path d="M 0 349.07805 
L 563.544904 349.07805 
L 563.544904 0 
L 0 0 
z
" style="fill: #ffffff"/>
  </g>
  <g id="axes_1">
   <g id="patch_2">
    <path d="M 63.31875 303.458362 
L 468.16679 303.458362 
L 468.16679 37.391562 
L 63.31875 37.391562 
z
" style="fill: #ffffff"/>
   </g>
   <g id="matplotlib.axis_1">
    <g id="xtick_1">
     <g id="line2d_1">
      <path d="M 63.31875 303.458362 
L 63.31875 37.391562 
" clip-path="url(#p2fd44e7e6b)" style="fill: none; stroke: #cccccc; stroke-width: 0.8; stroke-linecap: round"/>
     </g>
     <g id="text_1">
      <!-- 0 -->
      <g style="fill: #262626" transform="translate(60.538281 318.916175) scale(0.1 -0.1)">
       <defs>
        <path id="ArialMT-30" d="M 266 2259 
Q 266 3072 433 3567 
Q 600 4063 929 4331 
Q 1259 4600 1759 4600 
Q 2128 4600 2406 4451 
Q 2684 4303 2865 4023 
Q 3047 3744 3150 3342 
Q 3253 2941 3253 2259 
Q 3253 1453 3087 958 
Q 2922 463 2592 192 
Q 2263 -78 1759 -78 
Q 1097 -78 719 397 
Q 266 969 266 2259 
z
M 844 2259 
Q 844 1131 1108 757 
Q 1372 384 1759 384 
Q 2147 384 2411 759 
Q 2675 1134 2675 2259 
Q 2675 3391 2411 3762 
Q 2147 4134 1753 4134 
Q 1366 4134 1134 3806 
Q 844 3388 844 2259 
z
" transform="scale(0.015625)"/>
       </defs>
       <use xlink:href="#ArialMT-30"/>
      </g>
     </g>
    </g>
    <g id="xtick_2">
     <g id="line2d_2">
      <path d="M 132.047727 303.458362 
L 132.047727 37.391562 
" clip-path="url(#p2fd44e7e6b)" style="fill: none; stroke: #cccccc; stroke-width: 0.8; stroke-linecap: round"/>
     </g>
     <g id="text_2">
      <!-- 500 -->
      <g style="fill: #262626" transform="translate(123.706321 318.916175) scale(0.1 -0.1)">
       <defs>
        <path id="ArialMT-35" d="M 266 1200 
L 856 1250 
Q 922 819 1161 601 
Q 1400 384 1738 384 
Q 2144 384 2425 690 
Q 2706 997 2706 1503 
Q 2706 1984 2436 2262 
Q 2166 2541 1728 2541 
Q 1456 2541 1237 2417 
Q 1019 2294 894 2097 
L 366 2166 
L 809 4519 
L 3088 4519 
L 3088 3981 
L 1259 3981 
L 1013 2750 
Q 1425 3038 1878 3038 
Q 2478 3038 2890 2622 
Q 3303 2206 3303 1553 
Q 3303 931 2941 478 
Q 2500 -78 1738 -78 
Q 1113 -78 717 272 
Q 322 622 266 1200 
z
" transform="scale(0.015625)"/>
       </defs>
       <use xlink:href="#ArialMT-35"/>
       <use xlink:href="#ArialMT-30" transform="translate(55.615234 0)"/>
       <use xlink:href="#ArialMT-30" transform="translate(111.230469 0)"/>
      </g>
     </g>
    </g>
    <g id="xtick_3">
     <g id="line2d_3">
      <path d="M 200.776704 303.458362 
L 200.776704 37.391562 
" clip-path="url(#p2fd44e7e6b)" style="fill: none; stroke: #cccccc; stroke-width: 0.8; stroke-linecap: round"/>
     </g>
     <g id="text_3">
      <!-- 1000 -->
      <g style="fill: #262626" transform="translate(189.654829 318.916175) scale(0.1 -0.1)">
       <defs>
        <path id="ArialMT-31" d="M 2384 0 
L 1822 0 
L 1822 3584 
Q 1619 3391 1289 3197 
Q 959 3003 697 2906 
L 697 3450 
Q 1169 3672 1522 3987 
Q 1875 4303 2022 4600 
L 2384 4600 
L 2384 0 
z
" transform="scale(0.015625)"/>
       </defs>
       <use xlink:href="#ArialMT-31"/>
       <use xlink:href="#ArialMT-30" transform="translate(55.615234 0)"/>
       <use xlink:href="#ArialMT-30" transform="translate(111.230469 0)"/>
       <use xlink:href="#ArialMT-30" transform="translate(166.845703 0)"/>
      </g>
     </g>
    </g>
    <g id="xtick_4">
     <g id="line2d_4">
      <path d="M 269.505682 303.458362 
L 269.505682 37.391562 
" clip-path="url(#p2fd44e7e6b)" style="fill: none; stroke: #cccccc; stroke-width: 0.8; stroke-linecap: round"/>
     </g>
     <g id="text_4">
      <!-- 1500 -->
      <g style="fill: #262626" transform="translate(258.383807 318.916175) scale(0.1 -0.1)">
       <use xlink:href="#ArialMT-31"/>
       <use xlink:href="#ArialMT-35" transform="translate(55.615234 0)"/>
       <use xlink:href="#ArialMT-30" transform="translate(111.230469 0)"/>
       <use xlink:href="#ArialMT-30" transform="translate(166.845703 0)"/>
      </g>
     </g>
    </g>
    <g id="xtick_5">
     <g id="line2d_5">
      <path d="M 338.234659 303.458362 
L 338.234659 37.391562 
" clip-path="url(#p2fd44e7e6b)" style="fill: none; stroke: #cccccc; stroke-width: 0.8; stroke-linecap: round"/>
     </g>
     <g id="text_5">
      <!-- 2000 -->
      <g style="fill: #262626" transform="translate(327.112784 318.916175) scale(0.1 -0.1)">
       <defs>
        <path id="ArialMT-32" d="M 3222 541 
L 3222 0 
L 194 0 
Q 188 203 259 391 
Q 375 700 629 1000 
Q 884 1300 1366 1694 
Q 2113 2306 2375 2664 
Q 2638 3022 2638 3341 
Q 2638 3675 2398 3904 
Q 2159 4134 1775 4134 
Q 1369 4134 1125 3890 
Q 881 3647 878 3216 
L 300 3275 
Q 359 3922 746 4261 
Q 1134 4600 1788 4600 
Q 2447 4600 2831 4234 
Q 3216 3869 3216 3328 
Q 3216 3053 3103 2787 
Q 2991 2522 2730 2228 
Q 2469 1934 1863 1422 
Q 1356 997 1212 845 
Q 1069 694 975 541 
L 3222 541 
z
" transform="scale(0.015625)"/>
       </defs>
       <use xlink:href="#ArialMT-32"/>
       <use xlink:href="#ArialMT-30" transform="translate(55.615234 0)"/>
       <use xlink:href="#ArialMT-30" transform="translate(111.230469 0)"/>
       <use xlink:href="#ArialMT-30" transform="translate(166.845703 0)"/>
      </g>
     </g>
    </g>
    <g id="xtick_6">
     <g id="line2d_6">
      <path d="M 406.963636 303.458362 
L 406.963636 37.391562 
" clip-path="url(#p2fd44e7e6b)" style="fill: none; stroke: #cccccc; stroke-width: 0.8; stroke-linecap: round"/>
     </g>
     <g id="text_6">
      <!-- 2500 -->
      <g style="fill: #262626" transform="translate(395.841761 318.916175) scale(0.1 -0.1)">
       <use xlink:href="#ArialMT-32"/>
       <use xlink:href="#ArialMT-35" transform="translate(55.615234 0)"/>
       <use xlink:href="#ArialMT-30" transform="translate(111.230469 0)"/>
       <use xlink:href="#ArialMT-30" transform="translate(166.845703 0)"/>
      </g>
     </g>
    </g>
    <g id="text_7">
     <!-- Number of Casualties -->
     <g style="fill: #262626" transform="translate(208.054645 339.49305) scale(0.12 -0.12)">
      <defs>
       <path id="ArialMT-4e" d="M 488 0 
L 488 4581 
L 1109 4581 
L 3516 984 
L 3516 4581 
L 4097 4581 
L 4097 0 
L 3475 0 
L 1069 3600 
L 1069 0 
L 488 0 
z
" transform="scale(0.015625)"/>
       <path id="ArialMT-75" d="M 2597 0 
L 2597 488 
Q 2209 -75 1544 -75 
Q 1250 -75 995 37 
Q 741 150 617 320 
Q 494 491 444 738 
Q 409 903 409 1263 
L 409 3319 
L 972 3319 
L 972 1478 
Q 972 1038 1006 884 
Q 1059 663 1231 536 
Q 1403 409 1656 409 
Q 1909 409 2131 539 
Q 2353 669 2445 892 
Q 2538 1116 2538 1541 
L 2538 3319 
L 3100 3319 
L 3100 0 
L 2597 0 
z
" transform="scale(0.015625)"/>
       <path id="ArialMT-6d" d="M 422 0 
L 422 3319 
L 925 3319 
L 925 2853 
Q 1081 3097 1340 3245 
Q 1600 3394 1931 3394 
Q 2300 3394 2536 3241 
Q 2772 3088 2869 2813 
Q 3263 3394 3894 3394 
Q 4388 3394 4653 3120 
Q 4919 2847 4919 2278 
L 4919 0 
L 4359 0 
L 4359 2091 
Q 4359 2428 4304 2576 
Q 4250 2725 4106 2815 
Q 3963 2906 3769 2906 
Q 3419 2906 3187 2673 
Q 2956 2441 2956 1928 
L 2956 0 
L 2394 0 
L 2394 2156 
Q 2394 2531 2256 2718 
Q 2119 2906 1806 2906 
Q 1569 2906 1367 2781 
Q 1166 2656 1075 2415 
Q 984 2175 984 1722 
L 984 0 
L 422 0 
z
" transform="scale(0.015625)"/>
       <path id="ArialMT-62" d="M 941 0 
L 419 0 
L 419 4581 
L 981 4581 
L 981 2947 
Q 1338 3394 1891 3394 
Q 2197 3394 2470 3270 
Q 2744 3147 2920 2923 
Q 3097 2700 3197 2384 
Q 3297 2069 3297 1709 
Q 3297 856 2875 390 
Q 2453 -75 1863 -75 
Q 1275 -75 941 416 
L 941 0 
z
M 934 1684 
Q 934 1088 1097 822 
Q 1363 388 1816 388 
Q 2184 388 2453 708 
Q 2722 1028 2722 1663 
Q 2722 2313 2464 2622 
Q 2206 2931 1841 2931 
Q 1472 2931 1203 2611 
Q 934 2291 934 1684 
z
" transform="scale(0.015625)"/>
       <path id="ArialMT-65" d="M 2694 1069 
L 3275 997 
Q 3138 488 2766 206 
Q 2394 -75 1816 -75 
Q 1088 -75 661 373 
Q 234 822 234 1631 
Q 234 2469 665 2931 
Q 1097 3394 1784 3394 
Q 2450 3394 2872 2941 
Q 3294 2488 3294 1666 
Q 3294 1616 3291 1516 
L 816 1516 
Q 847 969 1125 678 
Q 1403 388 1819 388 
Q 2128 388 2347 550 
Q 2566 713 2694 1069 
z
M 847 1978 
L 2700 1978 
Q 2663 2397 2488 2606 
Q 2219 2931 1791 2931 
Q 1403 2931 1139 2672 
Q 875 2413 847 1978 
z
" transform="scale(0.015625)"/>
       <path id="ArialMT-72" d="M 416 0 
L 416 3319 
L 922 3319 
L 922 2816 
Q 1116 3169 1280 3281 
Q 1444 3394 1641 3394 
Q 1925 3394 2219 3213 
L 2025 2691 
Q 1819 2813 1613 2813 
Q 1428 2813 1281 2702 
Q 1134 2591 1072 2394 
Q 978 2094 978 1738 
L 978 0 
L 416 0 
z
" transform="scale(0.015625)"/>
       <path id="ArialMT-20" transform="scale(0.015625)"/>
       <path id="ArialMT-6f" d="M 213 1659 
Q 213 2581 725 3025 
Q 1153 3394 1769 3394 
Q 2453 3394 2887 2945 
Q 3322 2497 3322 1706 
Q 3322 1066 3130 698 
Q 2938 331 2570 128 
Q 2203 -75 1769 -75 
Q 1072 -75 642 372 
Q 213 819 213 1659 
z
M 791 1659 
Q 791 1022 1069 705 
Q 1347 388 1769 388 
Q 2188 388 2466 706 
Q 2744 1025 2744 1678 
Q 2744 2294 2464 2611 
Q 2184 2928 1769 2928 
Q 1347 2928 1069 2612 
Q 791 2297 791 1659 
z
" transform="scale(0.015625)"/>
       <path id="ArialMT-66" d="M 556 0 
L 556 2881 
L 59 2881 
L 59 3319 
L 556 3319 
L 556 3672 
Q 556 4006 616 4169 
Q 697 4388 901 4523 
Q 1106 4659 1475 4659 
Q 1713 4659 2000 4603 
L 1916 4113 
Q 1741 4144 1584 4144 
Q 1328 4144 1222 4034 
Q 1116 3925 1116 3625 
L 1116 3319 
L 1763 3319 
L 1763 2881 
L 1116 2881 
L 1116 0 
L 556 0 
z
" transform="scale(0.015625)"/>
       <path id="ArialMT-43" d="M 3763 1606 
L 4369 1453 
Q 4178 706 3683 314 
Q 3188 -78 2472 -78 
Q 1731 -78 1267 223 
Q 803 525 561 1097 
Q 319 1669 319 2325 
Q 319 3041 592 3573 
Q 866 4106 1370 4382 
Q 1875 4659 2481 4659 
Q 3169 4659 3637 4309 
Q 4106 3959 4291 3325 
L 3694 3184 
Q 3534 3684 3231 3912 
Q 2928 4141 2469 4141 
Q 1941 4141 1586 3887 
Q 1231 3634 1087 3207 
Q 944 2781 944 2328 
Q 944 1744 1114 1308 
Q 1284 872 1643 656 
Q 2003 441 2422 441 
Q 2931 441 3284 734 
Q 3638 1028 3763 1606 
z
" transform="scale(0.015625)"/>
       <path id="ArialMT-61" d="M 2588 409 
Q 2275 144 1986 34 
Q 1697 -75 1366 -75 
Q 819 -75 525 192 
Q 231 459 231 875 
Q 231 1119 342 1320 
Q 453 1522 633 1644 
Q 813 1766 1038 1828 
Q 1203 1872 1538 1913 
Q 2219 1994 2541 2106 
Q 2544 2222 2544 2253 
Q 2544 2597 2384 2738 
Q 2169 2928 1744 2928 
Q 1347 2928 1158 2789 
Q 969 2650 878 2297 
L 328 2372 
Q 403 2725 575 2942 
Q 747 3159 1072 3276 
Q 1397 3394 1825 3394 
Q 2250 3394 2515 3294 
Q 2781 3194 2906 3042 
Q 3031 2891 3081 2659 
Q 3109 2516 3109 2141 
L 3109 1391 
Q 3109 606 3145 398 
Q 3181 191 3288 0 
L 2700 0 
Q 2613 175 2588 409 
z
M 2541 1666 
Q 2234 1541 1622 1453 
Q 1275 1403 1131 1340 
Q 988 1278 909 1158 
Q 831 1038 831 891 
Q 831 666 1001 516 
Q 1172 366 1500 366 
Q 1825 366 2078 508 
Q 2331 650 2450 897 
Q 2541 1088 2541 1459 
L 2541 1666 
z
" transform="scale(0.015625)"/>
       <path id="ArialMT-73" d="M 197 991 
L 753 1078 
Q 800 744 1014 566 
Q 1228 388 1613 388 
Q 2000 388 2187 545 
Q 2375 703 2375 916 
Q 2375 1106 2209 1216 
Q 2094 1291 1634 1406 
Q 1016 1563 777 1677 
Q 538 1791 414 1992 
Q 291 2194 291 2438 
Q 291 2659 392 2848 
Q 494 3038 669 3163 
Q 800 3259 1026 3326 
Q 1253 3394 1513 3394 
Q 1903 3394 2198 3281 
Q 2494 3169 2634 2976 
Q 2775 2784 2828 2463 
L 2278 2388 
Q 2241 2644 2061 2787 
Q 1881 2931 1553 2931 
Q 1166 2931 1000 2803 
Q 834 2675 834 2503 
Q 834 2394 903 2306 
Q 972 2216 1119 2156 
Q 1203 2125 1616 2013 
Q 2213 1853 2448 1751 
Q 2684 1650 2818 1456 
Q 2953 1263 2953 975 
Q 2953 694 2789 445 
Q 2625 197 2315 61 
Q 2006 -75 1616 -75 
Q 969 -75 630 194 
Q 291 463 197 991 
z
" transform="scale(0.015625)"/>
       <path id="ArialMT-6c" d="M 409 0 
L 409 4581 
L 972 4581 
L 972 0 
L 409 0 
z
" transform="scale(0.015625)"/>
       <path id="ArialMT-74" d="M 1650 503 
L 1731 6 
Q 1494 -44 1306 -44 
Q 1000 -44 831 53 
Q 663 150 594 308 
Q 525 466 525 972 
L 525 2881 
L 113 2881 
L 113 3319 
L 525 3319 
L 525 4141 
L 1084 4478 
L 1084 3319 
L 1650 3319 
L 1650 2881 
L 1084 2881 
L 1084 941 
Q 1084 700 1114 631 
Q 1144 563 1211 522 
Q 1278 481 1403 481 
Q 1497 481 1650 503 
z
" transform="scale(0.015625)"/>
       <path id="ArialMT-69" d="M 425 3934 
L 425 4581 
L 988 4581 
L 988 3934 
L 425 3934 
z
M 425 0 
L 425 3319 
L 988 3319 
L 988 0 
L 425 0 
z
" transform="scale(0.015625)"/>
      </defs>
      <use xlink:href="#ArialMT-4e"/>
      <use xlink:href="#ArialMT-75" transform="translate(72.216797 0)"/>
      <use xlink:href="#ArialMT-6d" transform="translate(127.832031 0)"/>
      <use xlink:href="#ArialMT-62" transform="translate(211.132812 0)"/>
      <use xlink:href="#ArialMT-65" transform="translate(266.748047 0)"/>
      <use xlink:href="#ArialMT-72" transform="translate(322.363281 0)"/>
      <use xlink:href="#ArialMT-20" transform="translate(355.664062 0)"/>
      <use xlink:href="#ArialMT-6f" transform="translate(383.447266 0)"/>
      <use xlink:href="#ArialMT-66" transform="translate(439.0625 0)"/>
      <use xlink:href="#ArialMT-20" transform="translate(466.845703 0)"/>
      <use xlink:href="#ArialMT-43" transform="translate(494.628906 0)"/>
      <use xlink:href="#ArialMT-61" transform="translate(566.845703 0)"/>
      <use xlink:href="#ArialMT-73" transform="translate(622.460938 0)"/>
      <use xlink:href="#ArialMT-75" transform="translate(672.460938 0)"/>
      <use xlink:href="#ArialMT-61" transform="translate(728.076172 0)"/>
      <use xlink:href="#ArialMT-6c" transform="translate(783.691406 0)"/>
      <use xlink:href="#ArialMT-74" transform="translate(805.908203 0)"/>
      <use xlink:href="#ArialMT-69" transform="translate(833.691406 0)"/>
      <use xlink:href="#ArialMT-65" transform="translate(855.908203 0)"/>
      <use xlink:href="#ArialMT-73" transform="translate(911.523438 0)"/>
     </g>
    </g>
   </g>
   <g id="matplotlib.axis_2">
    <g id="ytick_1">
     <g id="line2d_7">
      <path d="M 63.31875 259.113896 
L 468.16679 259.113896 
" clip-path="url(#p2fd44e7e6b)" style="fill: none; stroke-dasharray: 2.96,1.28; stroke-dashoffset: 0; stroke: #cccccc; stroke-opacity: 0.7; stroke-width: 0.8"/>
     </g>
     <g id="text_8">
      <!-- Killed -->
      <g style="fill: #262626" transform="translate(30.560937 262.692802) scale(0.1 -0.1)">
       <defs>
        <path id="ArialMT-4b" d="M 469 0 
L 469 4581 
L 1075 4581 
L 1075 2309 
L 3350 4581 
L 4172 4581 
L 2250 2725 
L 4256 0 
L 3456 0 
L 1825 2319 
L 1075 1588 
L 1075 0 
L 469 0 
z
" transform="scale(0.015625)"/>
        <path id="ArialMT-64" d="M 2575 0 
L 2575 419 
Q 2259 -75 1647 -75 
Q 1250 -75 917 144 
Q 584 363 401 755 
Q 219 1147 219 1656 
Q 219 2153 384 2558 
Q 550 2963 881 3178 
Q 1213 3394 1622 3394 
Q 1922 3394 2156 3267 
Q 2391 3141 2538 2938 
L 2538 4581 
L 3097 4581 
L 3097 0 
L 2575 0 
z
M 797 1656 
Q 797 1019 1065 703 
Q 1334 388 1700 388 
Q 2069 388 2326 689 
Q 2584 991 2584 1609 
Q 2584 2291 2321 2609 
Q 2059 2928 1675 2928 
Q 1300 2928 1048 2622 
Q 797 2316 797 1656 
z
" transform="scale(0.015625)"/>
       </defs>
       <use xlink:href="#ArialMT-4b"/>
       <use xlink:href="#ArialMT-69" transform="translate(66.699219 0)"/>
       <use xlink:href="#ArialMT-6c" transform="translate(88.916016 0)"/>
       <use xlink:href="#ArialMT-6c" transform="translate(111.132812 0)"/>
       <use xlink:href="#ArialMT-65" transform="translate(133.349609 0)"/>
       <use xlink:href="#ArialMT-64" transform="translate(188.964844 0)"/>
      </g>
     </g>
    </g>
    <g id="ytick_2">
     <g id="line2d_8">
      <path d="M 63.31875 170.424962 
L 468.16679 170.424962 
" clip-path="url(#p2fd44e7e6b)" style="fill: none; stroke-dasharray: 2.96,1.28; stroke-dashoffset: 0; stroke: #cccccc; stroke-opacity: 0.7; stroke-width: 0.8"/>
     </g>
     <g id="text_9">
      <!-- Wounded -->
      <g style="fill: #262626" transform="translate(12.389062 174.003869) scale(0.1 -0.1)">
       <defs>
        <path id="ArialMT-57" d="M 1294 0 
L 78 4581 
L 700 4581 
L 1397 1578 
Q 1509 1106 1591 641 
Q 1766 1375 1797 1488 
L 2669 4581 
L 3400 4581 
L 4056 2263 
Q 4303 1400 4413 641 
Q 4500 1075 4641 1638 
L 5359 4581 
L 5969 4581 
L 4713 0 
L 4128 0 
L 3163 3491 
Q 3041 3928 3019 4028 
Q 2947 3713 2884 3491 
L 1913 0 
L 1294 0 
z
" transform="scale(0.015625)"/>
        <path id="ArialMT-6e" d="M 422 0 
L 422 3319 
L 928 3319 
L 928 2847 
Q 1294 3394 1984 3394 
Q 2284 3394 2536 3286 
Q 2788 3178 2913 3003 
Q 3038 2828 3088 2588 
Q 3119 2431 3119 2041 
L 3119 0 
L 2556 0 
L 2556 2019 
Q 2556 2363 2490 2533 
Q 2425 2703 2258 2804 
Q 2091 2906 1866 2906 
Q 1506 2906 1245 2678 
Q 984 2450 984 1813 
L 984 0 
L 422 0 
z
" transform="scale(0.015625)"/>
       </defs>
       <use xlink:href="#ArialMT-57"/>
       <use xlink:href="#ArialMT-6f" transform="translate(92.634766 0)"/>
       <use xlink:href="#ArialMT-75" transform="translate(148.25 0)"/>
       <use xlink:href="#ArialMT-6e" transform="translate(203.865234 0)"/>
       <use xlink:href="#ArialMT-64" transform="translate(259.480469 0)"/>
       <use xlink:href="#ArialMT-65" transform="translate(315.095703 0)"/>
       <use xlink:href="#ArialMT-64" transform="translate(370.710938 0)"/>
      </g>
     </g>
    </g>
    <g id="ytick_3">
     <g id="line2d_9">
      <path d="M 63.31875 81.736029 
L 468.16679 81.736029 
" clip-path="url(#p2fd44e7e6b)" style="fill: none; stroke-dasharray: 2.96,1.28; stroke-dashoffset: 0; stroke: #cccccc; stroke-opacity: 0.7; stroke-width: 0.8"/>
     </g>
     <g id="text_10">
      <!-- Kidnapped -->
      <g style="fill: #262626" transform="translate(7.2 85.314935) scale(0.1 -0.1)">
       <defs>
        <path id="ArialMT-70" d="M 422 -1272 
L 422 3319 
L 934 3319 
L 934 2888 
Q 1116 3141 1344 3267 
Q 1572 3394 1897 3394 
Q 2322 3394 2647 3175 
Q 2972 2956 3137 2557 
Q 3303 2159 3303 1684 
Q 3303 1175 3120 767 
Q 2938 359 2589 142 
Q 2241 -75 1856 -75 
Q 1575 -75 1351 44 
Q 1128 163 984 344 
L 984 -1272 
L 422 -1272 
z
M 931 1641 
Q 931 1000 1190 694 
Q 1450 388 1819 388 
Q 2194 388 2461 705 
Q 2728 1022 2728 1688 
Q 2728 2322 2467 2637 
Q 2206 2953 1844 2953 
Q 1484 2953 1207 2617 
Q 931 2281 931 1641 
z
" transform="scale(0.015625)"/>
       </defs>
       <use xlink:href="#ArialMT-4b"/>
       <use xlink:href="#ArialMT-69" transform="translate(66.699219 0)"/>
       <use xlink:href="#ArialMT-64" transform="translate(88.916016 0)"/>
       <use xlink:href="#ArialMT-6e" transform="translate(144.53125 0)"/>
       <use xlink:href="#ArialMT-61" transform="translate(200.146484 0)"/>
       <use xlink:href="#ArialMT-70" transform="translate(255.761719 0)"/>
       <use xlink:href="#ArialMT-70" transform="translate(311.376953 0)"/>
       <use xlink:href="#ArialMT-65" transform="translate(366.992188 0)"/>
       <use xlink:href="#ArialMT-64" transform="translate(422.607422 0)"/>
      </g>
     </g>
    </g>
   </g>
   <g id="patch_3">
    <path d="M 63.31875 281.286129 
L 448.888312 281.286129 
L 448.888312 259.113896 
L 63.31875 259.113896 
z
" clip-path="url(#p2fd44e7e6b)" style="fill: #58a1cf; stroke: #ffffff; stroke-width: 0.8; stroke-linejoin: miter"/>
   </g>
   <g id="patch_4">
    <path d="M 63.31875 192.597196 
L 437.754218 192.597196 
L 437.754218 170.424962 
L 63.31875 170.424962 
z
" clip-path="url(#p2fd44e7e6b)" style="fill: #58a1cf; stroke: #ffffff; stroke-width: 0.8; stroke-linejoin: miter"/>
   </g>
   <g id="patch_5">
    <path d="M 63.31875 103.908262 
L 307.031703 103.908262 
L 307.031703 81.736029 
L 63.31875 81.736029 
z
" clip-path="url(#p2fd44e7e6b)" style="fill: #58a1cf; stroke: #ffffff; stroke-width: 0.8; stroke-linejoin: miter"/>
   </g>
   <g id="patch_6">
    <path d="M 63.31875 259.113896 
L 96.583575 259.113896 
L 96.583575 236.941662 
L 63.31875 236.941662 
z
" clip-path="url(#p2fd44e7e6b)" style="fill: #fb7c5c; stroke: #ffffff; stroke-width: 0.8; stroke-linejoin: miter"/>
   </g>
   <g id="patch_7">
    <path d="M 63.31875 170.424962 
L 101.669519 170.424962 
L 101.669519 148.252729 
L 63.31875 148.252729 
z
" clip-path="url(#p2fd44e7e6b)" style="fill: #fb7c5c; stroke: #ffffff; stroke-width: 0.8; stroke-linejoin: miter"/>
   </g>
   <g id="patch_8">
    <path d="M 63.31875 81.736029 
L 113.215987 81.736029 
L 113.215987 59.563796 
L 63.31875 59.563796 
z
" clip-path="url(#p2fd44e7e6b)" style="fill: #fb7c5c; stroke: #ffffff; stroke-width: 0.8; stroke-linejoin: miter"/>
   </g>
   <g id="patch_9">
    <path d="M 63.31875 303.458362 
L 63.31875 37.391562 
" style="fill: none; stroke: #cccccc; stroke-linejoin: miter; stroke-linecap: square"/>
   </g>
   <g id="patch_10">
    <path d="M 63.31875 303.458362 
L 468.16679 303.458362 
" style="fill: none; stroke: #cccccc; stroke-linejoin: miter; stroke-linecap: square"/>
   </g>
   <g id="text_11">
    <path d="M 249.119531 260.631296 
L 249.119531 262.100096 
L 243.577331 262.100096 
Q 243.667331 261.266696 244.117331 260.521496 
Q 244.567331 259.776296 245.895731 258.545096 
Q 246.964931 257.549696 247.206131 257.195096 
Q 247.531931 256.705496 247.531931 256.226696 
Q 247.531931 255.699296 247.247531 255.414896 
Q 246.964931 255.130496 246.464531 255.130496 
Q 245.969531 255.130496 245.676131 255.429296 
Q 245.384531 255.726296 245.339531 256.419296 
L 243.764531 256.260896 
Q 243.904931 254.955896 244.646531 254.388896 
Q 245.389931 253.820096 246.502331 253.820096 
Q 247.724531 253.820096 248.421131 254.478896 
Q 249.119531 255.135896 249.119531 256.115096 
Q 249.119531 256.671296 248.919731 257.175296 
Q 248.719931 257.679296 248.286131 258.230096 
Q 247.999931 258.595496 247.251131 259.283096 
Q 246.502331 259.968896 246.302531 260.193896 
Q 246.104531 260.418896 245.980331 260.631296 
L 249.119531 260.631296 
z
M 251.543006 257.650496 
Q 250.929206 257.391296 250.650206 256.939496 
Q 250.373006 256.485896 250.373006 255.945896 
Q 250.373006 255.024296 251.017406 254.423096 
Q 251.661806 253.820096 252.848006 253.820096 
Q 254.023406 253.820096 254.673206 254.423096 
Q 255.323006 255.024296 255.323006 255.945896 
Q 255.323006 256.520096 255.024206 256.968296 
Q 254.727206 257.414696 254.187206 257.650496 
Q 254.873006 257.925896 255.229406 258.455096 
Q 255.587606 258.984296 255.587606 259.675496 
Q 255.587606 260.816696 254.858606 261.531296 
Q 254.131406 262.245896 252.921806 262.245896 
Q 251.796806 262.245896 251.048006 261.655496 
Q 250.164206 260.958896 250.164206 259.743896 
Q 250.164206 259.074296 250.495406 258.514496 
Q 250.828406 257.954696 251.543006 257.650496 
z
M 251.868806 256.059296 
Q 251.868806 256.530896 252.135206 256.795496 
Q 252.403406 257.060096 252.848006 257.060096 
Q 253.298006 257.060096 253.568006 256.793696 
Q 253.838006 256.525496 253.838006 256.053896 
Q 253.838006 255.609296 253.569806 255.342896 
Q 253.303406 255.074696 252.864206 255.074696 
Q 252.408806 255.074696 252.138806 255.344696 
Q 251.868806 255.614696 251.868806 256.059296 
z
M 251.723006 259.590896 
Q 251.723006 260.244296 252.057806 260.609696 
Q 252.392606 260.975096 252.893006 260.975096 
Q 253.382606 260.975096 253.703006 260.624096 
Q 254.023406 260.271296 254.023406 259.608896 
Q 254.023406 259.029296 253.697606 258.678296 
Q 253.371806 258.325496 252.871406 258.325496 
Q 252.291806 258.325496 252.007406 258.725096 
Q 251.723006 259.124696 251.723006 259.590896 
z
M 259.265681 253.820096 
Q 260.464481 253.820096 261.139481 254.675096 
Q 261.944081 255.686696 261.944081 258.033896 
Q 261.944081 260.373896 261.134081 261.396296 
Q 260.464481 262.240496 259.265681 262.240496 
Q 258.063281 262.240496 257.325281 261.315296 
Q 256.589081 260.390096 256.589081 258.015896 
Q 256.589081 255.686696 257.399081 254.664296 
Q 258.068681 253.820096 259.265681 253.820096 
z
M 259.265681 255.130496 
Q 258.979481 255.130496 258.754481 255.314096 
Q 258.529481 255.495896 258.405281 255.969296 
Q 258.243281 256.581296 258.243281 258.033896 
Q 258.243281 259.484696 258.389081 260.028296 
Q 258.534881 260.570096 258.756281 260.750096 
Q 258.979481 260.930096 259.265681 260.930096 
Q 259.553681 260.930096 259.778681 260.748296 
Q 260.003681 260.564696 260.126081 260.091296 
Q 260.289881 259.484696 260.289881 258.033896 
Q 260.289881 256.581296 260.144081 256.039496 
Q 259.998281 255.495896 259.775081 255.314096 
Q 259.553681 255.130496 259.265681 255.130496 
z
M 263.022956 259.979696 
L 264.597956 259.815896 
Q 264.666356 260.350496 264.997556 260.663696 
Q 265.330556 260.975096 265.762556 260.975096 
Q 266.257556 260.975096 266.601356 260.573696 
Q 266.945156 260.170496 266.945156 259.360496 
Q 266.945156 258.600896 266.603156 258.221096 
Q 266.262956 257.841296 265.717556 257.841296 
Q 265.037156 257.841296 264.497156 258.444296 
L 263.215556 258.258896 
L 264.025556 253.965896 
L 268.205156 253.965896 
L 268.205156 255.445496 
L 265.222556 255.445496 
L 264.975956 256.845896 
Q 265.505156 256.581296 266.055956 256.581296 
Q 267.107156 256.581296 267.837956 257.346296 
Q 268.570556 258.111296 268.570556 259.331696 
Q 268.570556 260.350496 267.980156 261.149696 
Q 267.175556 262.240496 265.746356 262.240496 
Q 264.605156 262.240496 263.885156 261.628496 
Q 263.165156 261.014696 263.022956 259.979696 
z
" style="fill: #ffffff; stroke: #000000; stroke-width: 3"/>
    <path d="M 249.119531 260.631296 
L 249.119531 262.100096 
L 243.577331 262.100096 
Q 243.667331 261.266696 244.117331 260.521496 
Q 244.567331 259.776296 245.895731 258.545096 
Q 246.964931 257.549696 247.206131 257.195096 
Q 247.531931 256.705496 247.531931 256.226696 
Q 247.531931 255.699296 247.247531 255.414896 
Q 246.964931 255.130496 246.464531 255.130496 
Q 245.969531 255.130496 245.676131 255.429296 
Q 245.384531 255.726296 245.339531 256.419296 
L 243.764531 256.260896 
Q 243.904931 254.955896 244.646531 254.388896 
Q 245.389931 253.820096 246.502331 253.820096 
Q 247.724531 253.820096 248.421131 254.478896 
Q 249.119531 255.135896 249.119531 256.115096 
Q 249.119531 256.671296 248.919731 257.175296 
Q 248.719931 257.679296 248.286131 258.230096 
Q 247.999931 258.595496 247.251131 259.283096 
Q 246.502331 259.968896 246.302531 260.193896 
Q 246.104531 260.418896 245.980331 260.631296 
L 249.119531 260.631296 
z
M 251.543006 257.650496 
Q 250.929206 257.391296 250.650206 256.939496 
Q 250.373006 256.485896 250.373006 255.945896 
Q 250.373006 255.024296 251.017406 254.423096 
Q 251.661806 253.820096 252.848006 253.820096 
Q 254.023406 253.820096 254.673206 254.423096 
Q 255.323006 255.024296 255.323006 255.945896 
Q 255.323006 256.520096 255.024206 256.968296 
Q 254.727206 257.414696 254.187206 257.650496 
Q 254.873006 257.925896 255.229406 258.455096 
Q 255.587606 258.984296 255.587606 259.675496 
Q 255.587606 260.816696 254.858606 261.531296 
Q 254.131406 262.245896 252.921806 262.245896 
Q 251.796806 262.245896 251.048006 261.655496 
Q 250.164206 260.958896 250.164206 259.743896 
Q 250.164206 259.074296 250.495406 258.514496 
Q 250.828406 257.954696 251.543006 257.650496 
z
M 251.868806 256.059296 
Q 251.868806 256.530896 252.135206 256.795496 
Q 252.403406 257.060096 252.848006 257.060096 
Q 253.298006 257.060096 253.568006 256.793696 
Q 253.838006 256.525496 253.838006 256.053896 
Q 253.838006 255.609296 253.569806 255.342896 
Q 253.303406 255.074696 252.864206 255.074696 
Q 252.408806 255.074696 252.138806 255.344696 
Q 251.868806 255.614696 251.868806 256.059296 
z
M 251.723006 259.590896 
Q 251.723006 260.244296 252.057806 260.609696 
Q 252.392606 260.975096 252.893006 260.975096 
Q 253.382606 260.975096 253.703006 260.624096 
Q 254.023406 260.271296 254.023406 259.608896 
Q 254.023406 259.029296 253.697606 258.678296 
Q 253.371806 258.325496 252.871406 258.325496 
Q 252.291806 258.325496 252.007406 258.725096 
Q 251.723006 259.124696 251.723006 259.590896 
z
M 259.265681 253.820096 
Q 260.464481 253.820096 261.139481 254.675096 
Q 261.944081 255.686696 261.944081 258.033896 
Q 261.944081 260.373896 261.134081 261.396296 
Q 260.464481 262.240496 259.265681 262.240496 
Q 258.063281 262.240496 257.325281 261.315296 
Q 256.589081 260.390096 256.589081 258.015896 
Q 256.589081 255.686696 257.399081 254.664296 
Q 258.068681 253.820096 259.265681 253.820096 
z
M 259.265681 255.130496 
Q 258.979481 255.130496 258.754481 255.314096 
Q 258.529481 255.495896 258.405281 255.969296 
Q 258.243281 256.581296 258.243281 258.033896 
Q 258.243281 259.484696 258.389081 260.028296 
Q 258.534881 260.570096 258.756281 260.750096 
Q 258.979481 260.930096 259.265681 260.930096 
Q 259.553681 260.930096 259.778681 260.748296 
Q 260.003681 260.564696 260.126081 260.091296 
Q 260.289881 259.484696 260.289881 258.033896 
Q 260.289881 256.581296 260.144081 256.039496 
Q 259.998281 255.495896 259.775081 255.314096 
Q 259.553681 255.130496 259.265681 255.130496 
z
M 263.022956 259.979696 
L 264.597956 259.815896 
Q 264.666356 260.350496 264.997556 260.663696 
Q 265.330556 260.975096 265.762556 260.975096 
Q 266.257556 260.975096 266.601356 260.573696 
Q 266.945156 260.170496 266.945156 259.360496 
Q 266.945156 258.600896 266.603156 258.221096 
Q 266.262956 257.841296 265.717556 257.841296 
Q 265.037156 257.841296 264.497156 258.444296 
L 263.215556 258.258896 
L 264.025556 253.965896 
L 268.205156 253.965896 
L 268.205156 255.445496 
L 265.222556 255.445496 
L 264.975956 256.845896 
Q 265.505156 256.581296 266.055956 256.581296 
Q 267.107156 256.581296 267.837956 257.346296 
Q 268.570556 258.111296 268.570556 259.331696 
Q 268.570556 260.350496 267.980156 261.149696 
Q 267.175556 262.240496 265.746356 262.240496 
Q 264.605156 262.240496 263.885156 261.628496 
Q 263.165156 261.014696 263.022956 259.979696 
z
" style="fill: #ffffff"/>
   </g>
   <g id="text_12">
    <path d="M 461.739825 260.631296 
L 461.739825 262.100096 
L 456.197625 262.100096 
Q 456.287625 261.266696 456.737625 260.521496 
Q 457.187625 259.776296 458.516025 258.545096 
Q 459.585225 257.549696 459.826425 257.195096 
Q 460.152225 256.705496 460.152225 256.226696 
Q 460.152225 255.699296 459.867825 255.414896 
Q 459.585225 255.130496 459.084825 255.130496 
Q 458.589825 255.130496 458.296425 255.429296 
Q 458.004825 255.726296 457.959825 256.419296 
L 456.384825 256.260896 
Q 456.525225 254.955896 457.266825 254.388896 
Q 458.010225 253.820096 459.122625 253.820096 
Q 460.344825 253.820096 461.041425 254.478896 
Q 461.739825 255.135896 461.739825 256.115096 
Q 461.739825 256.671296 461.540025 257.175296 
Q 461.340225 257.679296 460.906425 258.230096 
Q 460.620225 258.595496 459.871425 259.283096 
Q 459.122625 259.968896 458.922825 260.193896 
Q 458.724825 260.418896 458.600625 260.631296 
L 461.739825 260.631296 
z
M 465.9075 262.100096 
L 465.9075 260.440496 
L 462.5325 260.440496 
L 462.5325 259.056296 
L 466.1091 253.820096 
L 467.4375 253.820096 
L 467.4375 259.050896 
L 468.4617 259.050896 
L 468.4617 260.440496 
L 467.4375 260.440496 
L 467.4375 262.100096 
L 465.9075 262.100096 
z
M 465.9075 259.050896 
L 465.9075 256.233896 
L 464.0121 259.050896 
L 465.9075 259.050896 
z
M 474.553575 260.631296 
L 474.553575 262.100096 
L 469.011375 262.100096 
Q 469.101375 261.266696 469.551375 260.521496 
Q 470.001375 259.776296 471.329775 258.545096 
Q 472.398975 257.549696 472.640175 257.195096 
Q 472.965975 256.705496 472.965975 256.226696 
Q 472.965975 255.699296 472.681575 255.414896 
Q 472.398975 255.130496 471.898575 255.130496 
Q 471.403575 255.130496 471.110175 255.429296 
Q 470.818575 255.726296 470.773575 256.419296 
L 469.198575 256.260896 
Q 469.338975 254.955896 470.080575 254.388896 
Q 470.823975 253.820096 471.936375 253.820096 
Q 473.158575 253.820096 473.855175 254.478896 
Q 474.553575 255.135896 474.553575 256.115096 
Q 474.553575 256.671296 474.353775 257.175296 
Q 474.153975 257.679296 473.720175 258.230096 
Q 473.433975 258.595496 472.685175 259.283096 
Q 471.936375 259.968896 471.736575 260.193896 
Q 471.538575 260.418896 471.414375 260.631296 
L 474.553575 260.631296 
z
" style="fill: #ffffff; stroke: #000000; stroke-width: 3"/>
    <path d="M 461.739825 260.631296 
L 461.739825 262.100096 
L 456.197625 262.100096 
Q 456.287625 261.266696 456.737625 260.521496 
Q 457.187625 259.776296 458.516025 258.545096 
Q 459.585225 257.549696 459.826425 257.195096 
Q 460.152225 256.705496 460.152225 256.226696 
Q 460.152225 255.699296 459.867825 255.414896 
Q 459.585225 255.130496 459.084825 255.130496 
Q 458.589825 255.130496 458.296425 255.429296 
Q 458.004825 255.726296 457.959825 256.419296 
L 456.384825 256.260896 
Q 456.525225 254.955896 457.266825 254.388896 
Q 458.010225 253.820096 459.122625 253.820096 
Q 460.344825 253.820096 461.041425 254.478896 
Q 461.739825 255.135896 461.739825 256.115096 
Q 461.739825 256.671296 461.540025 257.175296 
Q 461.340225 257.679296 460.906425 258.230096 
Q 460.620225 258.595496 459.871425 259.283096 
Q 459.122625 259.968896 458.922825 260.193896 
Q 458.724825 260.418896 458.600625 260.631296 
L 461.739825 260.631296 
z
M 465.9075 262.100096 
L 465.9075 260.440496 
L 462.5325 260.440496 
L 462.5325 259.056296 
L 466.1091 253.820096 
L 467.4375 253.820096 
L 467.4375 259.050896 
L 468.4617 259.050896 
L 468.4617 260.440496 
L 467.4375 260.440496 
L 467.4375 262.100096 
L 465.9075 262.100096 
z
M 465.9075 259.050896 
L 465.9075 256.233896 
L 464.0121 259.050896 
L 465.9075 259.050896 
z
M 474.553575 260.631296 
L 474.553575 262.100096 
L 469.011375 262.100096 
Q 469.101375 261.266696 469.551375 260.521496 
Q 470.001375 259.776296 471.329775 258.545096 
Q 472.398975 257.549696 472.640175 257.195096 
Q 472.965975 256.705496 472.965975 256.226696 
Q 472.965975 255.699296 472.681575 255.414896 
Q 472.398975 255.130496 471.898575 255.130496 
Q 471.403575 255.130496 471.110175 255.429296 
Q 470.818575 255.726296 470.773575 256.419296 
L 469.198575 256.260896 
Q 469.338975 254.955896 470.080575 254.388896 
Q 470.823975 253.820096 471.936375 253.820096 
Q 473.158575 253.820096 473.855175 254.478896 
Q 474.553575 255.135896 474.553575 256.115096 
Q 474.553575 256.671296 474.353775 257.175296 
Q 474.153975 257.679296 473.720175 258.230096 
Q 473.433975 258.595496 472.685175 259.283096 
Q 471.936375 259.968896 471.736575 260.193896 
Q 471.538575 260.418896 471.414375 260.631296 
L 474.553575 260.631296 
z
" style="fill: #ffffff"/>
   </g>
   <g id="text_13">
    <!-- (92.1% national) -->
    <g transform="translate(483.527717 261.701396) scale(0.1 -0.1)">
     <defs>
      <path id="ArialMT-28" d="M 1497 -1347 
Q 1031 -759 709 28 
Q 388 816 388 1659 
Q 388 2403 628 3084 
Q 909 3875 1497 4659 
L 1900 4659 
Q 1522 4009 1400 3731 
Q 1209 3300 1100 2831 
Q 966 2247 966 1656 
Q 966 153 1900 -1347 
L 1497 -1347 
z
" transform="scale(0.015625)"/>
      <path id="ArialMT-39" d="M 350 1059 
L 891 1109 
Q 959 728 1153 556 
Q 1347 384 1650 384 
Q 1909 384 2104 503 
Q 2300 622 2425 820 
Q 2550 1019 2634 1356 
Q 2719 1694 2719 2044 
Q 2719 2081 2716 2156 
Q 2547 1888 2255 1720 
Q 1963 1553 1622 1553 
Q 1053 1553 659 1965 
Q 266 2378 266 3053 
Q 266 3750 677 4175 
Q 1088 4600 1706 4600 
Q 2153 4600 2523 4359 
Q 2894 4119 3086 3673 
Q 3278 3228 3278 2384 
Q 3278 1506 3087 986 
Q 2897 466 2520 194 
Q 2144 -78 1638 -78 
Q 1100 -78 759 220 
Q 419 519 350 1059 
z
M 2653 3081 
Q 2653 3566 2395 3850 
Q 2138 4134 1775 4134 
Q 1400 4134 1122 3828 
Q 844 3522 844 3034 
Q 844 2597 1108 2323 
Q 1372 2050 1759 2050 
Q 2150 2050 2401 2323 
Q 2653 2597 2653 3081 
z
" transform="scale(0.015625)"/>
      <path id="ArialMT-2e" d="M 581 0 
L 581 641 
L 1222 641 
L 1222 0 
L 581 0 
z
" transform="scale(0.015625)"/>
      <path id="ArialMT-25" d="M 372 3481 
Q 372 3972 619 4315 
Q 866 4659 1334 4659 
Q 1766 4659 2048 4351 
Q 2331 4044 2331 3447 
Q 2331 2866 2045 2552 
Q 1759 2238 1341 2238 
Q 925 2238 648 2547 
Q 372 2856 372 3481 
z
M 1350 4272 
Q 1141 4272 1002 4090 
Q 863 3909 863 3425 
Q 863 2984 1003 2804 
Q 1144 2625 1350 2625 
Q 1563 2625 1702 2806 
Q 1841 2988 1841 3469 
Q 1841 3913 1700 4092 
Q 1559 4272 1350 4272 
z
M 1353 -169 
L 3859 4659 
L 4316 4659 
L 1819 -169 
L 1353 -169 
z
M 3334 1075 
Q 3334 1569 3581 1911 
Q 3828 2253 4300 2253 
Q 4731 2253 5014 1945 
Q 5297 1638 5297 1041 
Q 5297 459 5011 145 
Q 4725 -169 4303 -169 
Q 3888 -169 3611 142 
Q 3334 453 3334 1075 
z
M 4316 1866 
Q 4103 1866 3964 1684 
Q 3825 1503 3825 1019 
Q 3825 581 3965 400 
Q 4106 219 4313 219 
Q 4528 219 4667 400 
Q 4806 581 4806 1063 
Q 4806 1506 4665 1686 
Q 4525 1866 4316 1866 
z
" transform="scale(0.015625)"/>
      <path id="ArialMT-29" d="M 791 -1347 
L 388 -1347 
Q 1322 153 1322 1656 
Q 1322 2244 1188 2822 
Q 1081 3291 891 3722 
Q 769 4003 388 4659 
L 791 4659 
Q 1378 3875 1659 3084 
Q 1900 2403 1900 1659 
Q 1900 816 1576 28 
Q 1253 -759 791 -1347 
z
" transform="scale(0.015625)"/>
     </defs>
     <use xlink:href="#ArialMT-28"/>
     <use xlink:href="#ArialMT-39" transform="translate(33.300781 0)"/>
     <use xlink:href="#ArialMT-32" transform="translate(88.916016 0)"/>
     <use xlink:href="#ArialMT-2e" transform="translate(144.53125 0)"/>
     <use xlink:href="#ArialMT-31" transform="translate(172.314453 0)"/>
     <use xlink:href="#ArialMT-25" transform="translate(227.929688 0)"/>
     <use xlink:href="#ArialMT-20" transform="translate(316.845703 0)"/>
     <use xlink:href="#ArialMT-6e" transform="translate(344.628906 0)"/>
     <use xlink:href="#ArialMT-61" transform="translate(400.244141 0)"/>
     <use xlink:href="#ArialMT-74" transform="translate(455.859375 0)"/>
     <use xlink:href="#ArialMT-69" transform="translate(483.642578 0)"/>
     <use xlink:href="#ArialMT-6f" transform="translate(505.859375 0)"/>
     <use xlink:href="#ArialMT-6e" transform="translate(561.474609 0)"/>
     <use xlink:href="#ArialMT-61" transform="translate(617.089844 0)"/>
     <use xlink:href="#ArialMT-6c" transform="translate(672.705078 0)"/>
     <use xlink:href="#ArialMT-29" transform="translate(694.921875 0)"/>
    </g>
   </g>
   <g id="text_14">
    <path d="M 243.552484 171.942362 
L 243.552484 173.411162 
L 238.010284 173.411162 
Q 238.100284 172.577762 238.550284 171.832562 
Q 239.000284 171.087362 240.328684 169.856162 
Q 241.397884 168.860762 241.639084 168.506162 
Q 241.964884 168.016562 241.964884 167.537762 
Q 241.964884 167.010362 241.680484 166.725962 
Q 241.397884 166.441562 240.897484 166.441562 
Q 240.402484 166.441562 240.109084 166.740362 
Q 239.817484 167.037362 239.772484 167.730362 
L 238.197484 167.571962 
Q 238.337884 166.266962 239.079484 165.699962 
Q 239.822884 165.131162 240.935284 165.131162 
Q 242.157484 165.131162 242.854084 165.789962 
Q 243.552484 166.446962 243.552484 167.426162 
Q 243.552484 167.982362 243.352684 168.486362 
Q 243.152884 168.990362 242.719084 169.541162 
Q 242.432884 169.906562 241.684084 170.594162 
Q 240.935284 171.279962 240.735484 171.504962 
Q 240.537484 171.729962 240.413284 171.942362 
L 243.552484 171.942362 
z
M 244.620559 166.745762 
L 244.620559 165.276962 
L 250.025959 165.276962 
L 250.025959 166.425362 
Q 249.356359 167.082362 248.663359 168.315362 
Q 247.972159 169.546562 247.608559 170.934362 
Q 247.246759 172.320362 247.252159 173.411162 
L 245.729359 173.411162 
Q 245.767159 171.701162 246.433159 169.924562 
Q 247.100959 168.146162 248.215159 166.745762 
L 244.620559 166.745762 
z
M 256.366234 171.942362 
L 256.366234 173.411162 
L 250.824034 173.411162 
Q 250.914034 172.577762 251.364034 171.832562 
Q 251.814034 171.087362 253.142434 169.856162 
Q 254.211634 168.860762 254.452834 168.506162 
Q 254.778634 168.016562 254.778634 167.537762 
Q 254.778634 167.010362 254.494234 166.725962 
Q 254.211634 166.441562 253.711234 166.441562 
Q 253.216234 166.441562 252.922834 166.740362 
Q 252.631234 167.037362 252.586234 167.730362 
L 251.011234 167.571962 
Q 251.151634 166.266962 251.893234 165.699962 
Q 252.636634 165.131162 253.749034 165.131162 
Q 254.971234 165.131162 255.667834 165.789962 
Q 256.366234 166.446962 256.366234 167.426162 
Q 256.366234 167.982362 256.166434 168.486362 
Q 255.966634 168.990362 255.532834 169.541162 
Q 255.246634 169.906562 254.497834 170.594162 
Q 253.749034 171.279962 253.549234 171.504962 
Q 253.351234 171.729962 253.227034 171.942362 
L 256.366234 171.942362 
z
M 260.533909 173.411162 
L 260.533909 171.751562 
L 257.158909 171.751562 
L 257.158909 170.367362 
L 260.735509 165.131162 
L 262.063909 165.131162 
L 262.063909 170.361962 
L 263.088109 170.361962 
L 263.088109 171.751562 
L 262.063909 171.751562 
L 262.063909 173.411162 
L 260.533909 173.411162 
z
M 260.533909 170.361962 
L 260.533909 167.544962 
L 258.638509 170.361962 
L 260.533909 170.361962 
z
" style="fill: #ffffff; stroke: #000000; stroke-width: 3"/>
    <path d="M 243.552484 171.942362 
L 243.552484 173.411162 
L 238.010284 173.411162 
Q 238.100284 172.577762 238.550284 171.832562 
Q 239.000284 171.087362 240.328684 169.856162 
Q 241.397884 168.860762 241.639084 168.506162 
Q 241.964884 168.016562 241.964884 167.537762 
Q 241.964884 167.010362 241.680484 166.725962 
Q 241.397884 166.441562 240.897484 166.441562 
Q 240.402484 166.441562 240.109084 166.740362 
Q 239.817484 167.037362 239.772484 167.730362 
L 238.197484 167.571962 
Q 238.337884 166.266962 239.079484 165.699962 
Q 239.822884 165.131162 240.935284 165.131162 
Q 242.157484 165.131162 242.854084 165.789962 
Q 243.552484 166.446962 243.552484 167.426162 
Q 243.552484 167.982362 243.352684 168.486362 
Q 243.152884 168.990362 242.719084 169.541162 
Q 242.432884 169.906562 241.684084 170.594162 
Q 240.935284 171.279962 240.735484 171.504962 
Q 240.537484 171.729962 240.413284 171.942362 
L 243.552484 171.942362 
z
M 244.620559 166.745762 
L 244.620559 165.276962 
L 250.025959 165.276962 
L 250.025959 166.425362 
Q 249.356359 167.082362 248.663359 168.315362 
Q 247.972159 169.546562 247.608559 170.934362 
Q 247.246759 172.320362 247.252159 173.411162 
L 245.729359 173.411162 
Q 245.767159 171.701162 246.433159 169.924562 
Q 247.100959 168.146162 248.215159 166.745762 
L 244.620559 166.745762 
z
M 256.366234 171.942362 
L 256.366234 173.411162 
L 250.824034 173.411162 
Q 250.914034 172.577762 251.364034 171.832562 
Q 251.814034 171.087362 253.142434 169.856162 
Q 254.211634 168.860762 254.452834 168.506162 
Q 254.778634 168.016562 254.778634 167.537762 
Q 254.778634 167.010362 254.494234 166.725962 
Q 254.211634 166.441562 253.711234 166.441562 
Q 253.216234 166.441562 252.922834 166.740362 
Q 252.631234 167.037362 252.586234 167.730362 
L 251.011234 167.571962 
Q 251.151634 166.266962 251.893234 165.699962 
Q 252.636634 165.131162 253.749034 165.131162 
Q 254.971234 165.131162 255.667834 165.789962 
Q 256.366234 166.446962 256.366234 167.426162 
Q 256.366234 167.982362 256.166434 168.486362 
Q 255.966634 168.990362 255.532834 169.541162 
Q 255.246634 169.906562 254.497834 170.594162 
Q 253.749034 171.279962 253.549234 171.504962 
Q 253.351234 171.729962 253.227034 171.942362 
L 256.366234 171.942362 
z
M 260.533909 173.411162 
L 260.533909 171.751562 
L 257.158909 171.751562 
L 257.158909 170.367362 
L 260.735509 165.131162 
L 262.063909 165.131162 
L 262.063909 170.361962 
L 263.088109 170.361962 
L 263.088109 171.751562 
L 262.063909 171.751562 
L 262.063909 173.411162 
L 260.533909 173.411162 
z
M 260.533909 170.361962 
L 260.533909 167.544962 
L 258.638509 170.361962 
L 260.533909 170.361962 
z
" style="fill: #ffffff"/>
   </g>
   <g id="text_15">
    <path d="M 453.148703 171.942362 
L 453.148703 173.411162 
L 447.606503 173.411162 
Q 447.696503 172.577762 448.146503 171.832562 
Q 448.596503 171.087362 449.924903 169.856162 
Q 450.994103 168.860762 451.235303 168.506162 
Q 451.561103 168.016562 451.561103 167.537762 
Q 451.561103 167.010362 451.276703 166.725962 
Q 450.994103 166.441562 450.493703 166.441562 
Q 449.998703 166.441562 449.705303 166.740362 
Q 449.413703 167.037362 449.368703 167.730362 
L 447.793703 167.571962 
Q 447.934103 166.266962 448.675703 165.699962 
Q 449.419103 165.131162 450.531503 165.131162 
Q 451.753703 165.131162 452.450303 165.789962 
Q 453.148703 166.446962 453.148703 167.426162 
Q 453.148703 167.982362 452.948903 168.486362 
Q 452.749103 168.990362 452.315303 169.541162 
Q 452.029103 169.906562 451.280303 170.594162 
Q 450.531503 171.279962 450.331703 171.504962 
Q 450.133703 171.729962 450.009503 171.942362 
L 453.148703 171.942362 
z
M 454.216778 166.745762 
L 454.216778 165.276962 
L 459.622178 165.276962 
L 459.622178 166.425362 
Q 458.952578 167.082362 458.259578 168.315362 
Q 457.568378 169.546562 457.204778 170.934362 
Q 456.842978 172.320362 456.848378 173.411162 
L 455.325578 173.411162 
Q 455.363378 171.701162 456.029378 169.924562 
Q 456.697178 168.146162 457.811378 166.745762 
L 454.216778 166.745762 
z
M 460.657853 171.504962 
L 462.187853 171.335762 
Q 462.243653 171.801962 462.479453 172.026962 
Q 462.715253 172.251962 463.104053 172.251962 
Q 463.593653 172.251962 463.935653 171.801962 
Q 464.279453 171.351962 464.374853 169.935362 
Q 463.779053 170.626562 462.884453 170.626562 
Q 461.912453 170.626562 461.205053 169.875962 
Q 460.499453 169.125362 460.499453 167.921162 
Q 460.499453 166.666562 461.244653 165.899762 
Q 461.989853 165.131162 463.143653 165.131162 
Q 464.398253 165.131162 465.202853 166.101362 
Q 466.007453 167.071562 466.007453 169.292762 
Q 466.007453 171.555362 465.168653 172.556162 
Q 464.329853 173.556962 462.985253 173.556962 
Q 462.018653 173.556962 461.421053 173.042162 
Q 460.825253 172.527362 460.657853 171.504962 
z
M 464.234453 168.050762 
Q 464.234453 167.285762 463.883453 166.864562 
Q 463.532453 166.441562 463.069853 166.441562 
Q 462.632453 166.441562 462.342653 166.787162 
Q 462.052853 167.132762 462.052853 167.921162 
Q 462.052853 168.720362 462.367853 169.094762 
Q 462.682853 169.467362 463.154453 169.467362 
Q 463.609853 169.467362 463.921253 169.107362 
Q 464.234453 168.747362 464.234453 168.050762 
z
" style="fill: #ffffff; stroke: #000000; stroke-width: 3"/>
    <path d="M 453.148703 171.942362 
L 453.148703 173.411162 
L 447.606503 173.411162 
Q 447.696503 172.577762 448.146503 171.832562 
Q 448.596503 171.087362 449.924903 169.856162 
Q 450.994103 168.860762 451.235303 168.506162 
Q 451.561103 168.016562 451.561103 167.537762 
Q 451.561103 167.010362 451.276703 166.725962 
Q 450.994103 166.441562 450.493703 166.441562 
Q 449.998703 166.441562 449.705303 166.740362 
Q 449.413703 167.037362 449.368703 167.730362 
L 447.793703 167.571962 
Q 447.934103 166.266962 448.675703 165.699962 
Q 449.419103 165.131162 450.531503 165.131162 
Q 451.753703 165.131162 452.450303 165.789962 
Q 453.148703 166.446962 453.148703 167.426162 
Q 453.148703 167.982362 452.948903 168.486362 
Q 452.749103 168.990362 452.315303 169.541162 
Q 452.029103 169.906562 451.280303 170.594162 
Q 450.531503 171.279962 450.331703 171.504962 
Q 450.133703 171.729962 450.009503 171.942362 
L 453.148703 171.942362 
z
M 454.216778 166.745762 
L 454.216778 165.276962 
L 459.622178 165.276962 
L 459.622178 166.425362 
Q 458.952578 167.082362 458.259578 168.315362 
Q 457.568378 169.546562 457.204778 170.934362 
Q 456.842978 172.320362 456.848378 173.411162 
L 455.325578 173.411162 
Q 455.363378 171.701162 456.029378 169.924562 
Q 456.697178 168.146162 457.811378 166.745762 
L 454.216778 166.745762 
z
M 460.657853 171.504962 
L 462.187853 171.335762 
Q 462.243653 171.801962 462.479453 172.026962 
Q 462.715253 172.251962 463.104053 172.251962 
Q 463.593653 172.251962 463.935653 171.801962 
Q 464.279453 171.351962 464.374853 169.935362 
Q 463.779053 170.626562 462.884453 170.626562 
Q 461.912453 170.626562 461.205053 169.875962 
Q 460.499453 169.125362 460.499453 167.921162 
Q 460.499453 166.666562 461.244653 165.899762 
Q 461.989853 165.131162 463.143653 165.131162 
Q 464.398253 165.131162 465.202853 166.101362 
Q 466.007453 167.071562 466.007453 169.292762 
Q 466.007453 171.555362 465.168653 172.556162 
Q 464.329853 173.556962 462.985253 173.556962 
Q 462.018653 173.556962 461.421053 173.042162 
Q 460.825253 172.527362 460.657853 171.504962 
z
M 464.234453 168.050762 
Q 464.234453 167.285762 463.883453 166.864562 
Q 463.532453 166.441562 463.069853 166.441562 
Q 462.632453 166.441562 462.342653 166.787162 
Q 462.052853 167.132762 462.052853 167.921162 
Q 462.052853 168.720362 462.367853 169.094762 
Q 462.682853 169.467362 463.154453 169.467362 
Q 463.609853 169.467362 463.921253 169.107362 
Q 464.234453 168.747362 464.234453 168.050762 
z
" style="fill: #ffffff"/>
   </g>
   <g id="text_16">
    <!-- (90.7% national) -->
    <g transform="translate(477.479567 173.012462) scale(0.1 -0.1)">
     <defs>
      <path id="ArialMT-37" d="M 303 3981 
L 303 4522 
L 3269 4522 
L 3269 4084 
Q 2831 3619 2401 2847 
Q 1972 2075 1738 1259 
Q 1569 684 1522 0 
L 944 0 
Q 953 541 1156 1306 
Q 1359 2072 1739 2783 
Q 2119 3494 2547 3981 
L 303 3981 
z
" transform="scale(0.015625)"/>
     </defs>
     <use xlink:href="#ArialMT-28"/>
     <use xlink:href="#ArialMT-39" transform="translate(33.300781 0)"/>
     <use xlink:href="#ArialMT-30" transform="translate(88.916016 0)"/>
     <use xlink:href="#ArialMT-2e" transform="translate(144.53125 0)"/>
     <use xlink:href="#ArialMT-37" transform="translate(172.314453 0)"/>
     <use xlink:href="#ArialMT-25" transform="translate(227.929688 0)"/>
     <use xlink:href="#ArialMT-20" transform="translate(316.845703 0)"/>
     <use xlink:href="#ArialMT-6e" transform="translate(344.628906 0)"/>
     <use xlink:href="#ArialMT-61" transform="translate(400.244141 0)"/>
     <use xlink:href="#ArialMT-74" transform="translate(455.859375 0)"/>
     <use xlink:href="#ArialMT-69" transform="translate(483.642578 0)"/>
     <use xlink:href="#ArialMT-6f" transform="translate(505.859375 0)"/>
     <use xlink:href="#ArialMT-6e" transform="translate(561.474609 0)"/>
     <use xlink:href="#ArialMT-61" transform="translate(617.089844 0)"/>
     <use xlink:href="#ArialMT-6c" transform="translate(672.705078 0)"/>
     <use xlink:href="#ArialMT-29" transform="translate(694.921875 0)"/>
    </g>
   </g>
   <g id="text_17">
    <path d="M 176.897027 84.722229 
L 175.316627 84.722229 
L 175.316627 78.766029 
Q 174.449027 79.576029 173.273627 79.963029 
L 173.273627 78.528429 
Q 173.892827 78.326829 174.618227 77.761629 
Q 175.343627 77.196429 175.613627 76.442229 
L 176.897027 76.442229 
L 176.897027 84.722229 
z
M 179.259302 78.056829 
L 179.259302 76.588029 
L 184.664702 76.588029 
L 184.664702 77.736429 
Q 183.995102 78.393429 183.302102 79.626429 
Q 182.610902 80.857629 182.247302 82.245429 
Q 181.885502 83.631429 181.890902 84.722229 
L 180.368102 84.722229 
Q 180.405902 83.012229 181.071902 81.235629 
Q 181.739702 79.457229 182.853902 78.056829 
L 179.259302 78.056829 
z
M 185.666177 78.056829 
L 185.666177 76.588029 
L 191.071577 76.588029 
L 191.071577 77.736429 
Q 190.401977 78.393429 189.708977 79.626429 
Q 189.017777 80.857629 188.654177 82.245429 
Q 188.292377 83.631429 188.297777 84.722229 
L 186.774977 84.722229 
Q 186.812777 83.012229 187.478777 81.235629 
Q 188.146577 79.457229 189.260777 78.056829 
L 185.666177 78.056829 
z
M 192.017252 82.533429 
L 193.547252 82.348029 
Q 193.619252 82.933029 193.939652 83.242629 
Q 194.261852 83.552229 194.717252 83.552229 
Q 195.206852 83.552229 195.539852 83.181429 
Q 195.874652 82.808829 195.874652 82.178829 
Q 195.874652 81.583029 195.554252 81.235629 
Q 195.233852 80.886429 194.773052 80.886429 
Q 194.468852 80.886429 194.047652 81.003429 
L 194.222252 79.716429 
Q 194.863052 79.732629 195.199652 79.437429 
Q 195.538052 79.142229 195.538052 78.652629 
Q 195.538052 78.236829 195.289652 77.990229 
Q 195.043052 77.741829 194.632652 77.741829 
Q 194.227652 77.741829 193.939652 78.022629 
Q 193.653452 78.303429 193.592252 78.843429 
L 192.134252 78.596829 
Q 192.287252 77.848029 192.593252 77.401629 
Q 192.899252 76.953429 193.448252 76.697829 
Q 193.997252 76.442229 194.677652 76.442229 
Q 195.842252 76.442229 196.544252 77.183829 
Q 197.123852 77.792229 197.123852 78.557229 
Q 197.123852 79.642629 195.937652 80.288829 
Q 196.646852 80.441829 197.069852 80.971029 
Q 197.494652 81.498429 197.494652 82.247229 
Q 197.494652 83.332629 196.700852 84.097629 
Q 195.908852 84.862629 194.728052 84.862629 
Q 193.608452 84.862629 192.870452 84.218229 
Q 192.134252 83.573829 192.017252 82.533429 
z
" style="fill: #ffffff; stroke: #000000; stroke-width: 3"/>
    <path d="M 176.897027 84.722229 
L 175.316627 84.722229 
L 175.316627 78.766029 
Q 174.449027 79.576029 173.273627 79.963029 
L 173.273627 78.528429 
Q 173.892827 78.326829 174.618227 77.761629 
Q 175.343627 77.196429 175.613627 76.442229 
L 176.897027 76.442229 
L 176.897027 84.722229 
z
M 179.259302 78.056829 
L 179.259302 76.588029 
L 184.664702 76.588029 
L 184.664702 77.736429 
Q 183.995102 78.393429 183.302102 79.626429 
Q 182.610902 80.857629 182.247302 82.245429 
Q 181.885502 83.631429 181.890902 84.722229 
L 180.368102 84.722229 
Q 180.405902 83.012229 181.071902 81.235629 
Q 181.739702 79.457229 182.853902 78.056829 
L 179.259302 78.056829 
z
M 185.666177 78.056829 
L 185.666177 76.588029 
L 191.071577 76.588029 
L 191.071577 77.736429 
Q 190.401977 78.393429 189.708977 79.626429 
Q 189.017777 80.857629 188.654177 82.245429 
Q 188.292377 83.631429 188.297777 84.722229 
L 186.774977 84.722229 
Q 186.812777 83.012229 187.478777 81.235629 
Q 188.146577 79.457229 189.260777 78.056829 
L 185.666177 78.056829 
z
M 192.017252 82.533429 
L 193.547252 82.348029 
Q 193.619252 82.933029 193.939652 83.242629 
Q 194.261852 83.552229 194.717252 83.552229 
Q 195.206852 83.552229 195.539852 83.181429 
Q 195.874652 82.808829 195.874652 82.178829 
Q 195.874652 81.583029 195.554252 81.235629 
Q 195.233852 80.886429 194.773052 80.886429 
Q 194.468852 80.886429 194.047652 81.003429 
L 194.222252 79.716429 
Q 194.863052 79.732629 195.199652 79.437429 
Q 195.538052 79.142229 195.538052 78.652629 
Q 195.538052 78.236829 195.289652 77.990229 
Q 195.043052 77.741829 194.632652 77.741829 
Q 194.227652 77.741829 193.939652 78.022629 
Q 193.653452 78.303429 193.592252 78.843429 
L 192.134252 78.596829 
Q 192.287252 77.848029 192.593252 77.401629 
Q 192.899252 76.953429 193.448252 76.697829 
Q 193.997252 76.442229 194.677652 76.442229 
Q 195.842252 76.442229 196.544252 77.183829 
Q 197.123852 77.792229 197.123852 78.557229 
Q 197.123852 79.642629 195.937652 80.288829 
Q 196.646852 80.441829 197.069852 80.971029 
Q 197.494652 81.498429 197.494652 82.247229 
Q 197.494652 83.332629 196.700852 84.097629 
Q 195.908852 84.862629 194.728052 84.862629 
Q 193.608452 84.862629 192.870452 84.218229 
Q 192.134252 83.573829 192.017252 82.533429 
z
" style="fill: #ffffff"/>
   </g>
   <g id="text_18">
    <path d="M 322.804822 82.533429 
L 324.334822 82.348029 
Q 324.406822 82.933029 324.727222 83.242629 
Q 325.049422 83.552229 325.504822 83.552229 
Q 325.994422 83.552229 326.327422 83.181429 
Q 326.662222 82.808829 326.662222 82.178829 
Q 326.662222 81.583029 326.341822 81.235629 
Q 326.021422 80.886429 325.560622 80.886429 
Q 325.256422 80.886429 324.835222 81.003429 
L 325.009822 79.716429 
Q 325.650622 79.732629 325.987222 79.437429 
Q 326.325622 79.142229 326.325622 78.652629 
Q 326.325622 78.236829 326.077222 77.990229 
Q 325.830622 77.741829 325.420222 77.741829 
Q 325.015222 77.741829 324.727222 78.022629 
Q 324.441022 78.303429 324.379822 78.843429 
L 322.921822 78.596829 
Q 323.074822 77.848029 323.380822 77.401629 
Q 323.686822 76.953429 324.235822 76.697829 
Q 324.784822 76.442229 325.465222 76.442229 
Q 326.629822 76.442229 327.331822 77.183829 
Q 327.911422 77.792229 327.911422 78.557229 
Q 327.911422 79.642629 326.725222 80.288829 
Q 327.434422 80.441829 327.857422 80.971029 
Q 328.282222 81.498429 328.282222 82.247229 
Q 328.282222 83.332629 327.488422 84.097629 
Q 326.696422 84.862629 325.515622 84.862629 
Q 324.396022 84.862629 323.658022 84.218229 
Q 322.921822 83.573829 322.804822 82.533429 
z
M 334.622497 78.496029 
L 333.092497 78.663429 
Q 333.036697 78.191829 332.799097 77.966829 
Q 332.563297 77.741829 332.187097 77.741829 
Q 331.686697 77.741829 331.339297 78.191829 
Q 330.993697 78.641829 330.903697 80.063829 
Q 331.494097 79.367229 332.372497 79.367229 
Q 333.362497 79.367229 334.068097 80.121429 
Q 334.773697 80.873829 334.773697 82.067229 
Q 334.773697 83.332629 334.030297 84.097629 
Q 333.288697 84.862629 332.124097 84.862629 
Q 330.876697 84.862629 330.072097 83.892429 
Q 329.267497 82.922229 329.267497 80.711829 
Q 329.267497 78.443829 330.104497 77.443029 
Q 330.943297 76.442229 332.282497 76.442229 
Q 333.222097 76.442229 333.837697 76.967829 
Q 334.453297 77.493429 334.622497 78.496029 
z
M 331.038697 81.943029 
Q 331.038697 82.713429 331.393297 83.132829 
Q 331.747897 83.552229 332.203297 83.552229 
Q 332.642497 83.552229 332.934097 83.210229 
Q 333.227497 82.866429 333.227497 82.083429 
Q 333.227497 81.278829 332.912497 80.906229 
Q 332.597497 80.531829 332.124097 80.531829 
Q 331.668697 80.531829 331.353697 80.890029 
Q 331.038697 81.246429 331.038697 81.943029 
z
M 335.618572 82.533429 
L 337.148572 82.348029 
Q 337.220572 82.933029 337.540972 83.242629 
Q 337.863172 83.552229 338.318572 83.552229 
Q 338.808172 83.552229 339.141172 83.181429 
Q 339.475972 82.808829 339.475972 82.178829 
Q 339.475972 81.583029 339.155572 81.235629 
Q 338.835172 80.886429 338.374372 80.886429 
Q 338.070172 80.886429 337.648972 81.003429 
L 337.823572 79.716429 
Q 338.464372 79.732629 338.800972 79.437429 
Q 339.139372 79.142229 339.139372 78.652629 
Q 339.139372 78.236829 338.890972 77.990229 
Q 338.644372 77.741829 338.233972 77.741829 
Q 337.828972 77.741829 337.540972 78.022629 
Q 337.254772 78.303429 337.193572 78.843429 
L 335.735572 78.596829 
Q 335.888572 77.848029 336.194572 77.401629 
Q 336.500572 76.953429 337.049572 76.697829 
Q 337.598572 76.442229 338.278972 76.442229 
Q 339.443572 76.442229 340.145572 77.183829 
Q 340.725172 77.792229 340.725172 78.557229 
Q 340.725172 79.642629 339.538972 80.288829 
Q 340.248172 80.441829 340.671172 80.971029 
Q 341.095972 81.498429 341.095972 82.247229 
Q 341.095972 83.332629 340.302172 84.097629 
Q 339.510172 84.862629 338.329372 84.862629 
Q 337.209772 84.862629 336.471772 84.218229 
Q 335.735572 83.573829 335.618572 82.533429 
z
" style="fill: #ffffff; stroke: #000000; stroke-width: 3"/>
    <path d="M 322.804822 82.533429 
L 324.334822 82.348029 
Q 324.406822 82.933029 324.727222 83.242629 
Q 325.049422 83.552229 325.504822 83.552229 
Q 325.994422 83.552229 326.327422 83.181429 
Q 326.662222 82.808829 326.662222 82.178829 
Q 326.662222 81.583029 326.341822 81.235629 
Q 326.021422 80.886429 325.560622 80.886429 
Q 325.256422 80.886429 324.835222 81.003429 
L 325.009822 79.716429 
Q 325.650622 79.732629 325.987222 79.437429 
Q 326.325622 79.142229 326.325622 78.652629 
Q 326.325622 78.236829 326.077222 77.990229 
Q 325.830622 77.741829 325.420222 77.741829 
Q 325.015222 77.741829 324.727222 78.022629 
Q 324.441022 78.303429 324.379822 78.843429 
L 322.921822 78.596829 
Q 323.074822 77.848029 323.380822 77.401629 
Q 323.686822 76.953429 324.235822 76.697829 
Q 324.784822 76.442229 325.465222 76.442229 
Q 326.629822 76.442229 327.331822 77.183829 
Q 327.911422 77.792229 327.911422 78.557229 
Q 327.911422 79.642629 326.725222 80.288829 
Q 327.434422 80.441829 327.857422 80.971029 
Q 328.282222 81.498429 328.282222 82.247229 
Q 328.282222 83.332629 327.488422 84.097629 
Q 326.696422 84.862629 325.515622 84.862629 
Q 324.396022 84.862629 323.658022 84.218229 
Q 322.921822 83.573829 322.804822 82.533429 
z
M 334.622497 78.496029 
L 333.092497 78.663429 
Q 333.036697 78.191829 332.799097 77.966829 
Q 332.563297 77.741829 332.187097 77.741829 
Q 331.686697 77.741829 331.339297 78.191829 
Q 330.993697 78.641829 330.903697 80.063829 
Q 331.494097 79.367229 332.372497 79.367229 
Q 333.362497 79.367229 334.068097 80.121429 
Q 334.773697 80.873829 334.773697 82.067229 
Q 334.773697 83.332629 334.030297 84.097629 
Q 333.288697 84.862629 332.124097 84.862629 
Q 330.876697 84.862629 330.072097 83.892429 
Q 329.267497 82.922229 329.267497 80.711829 
Q 329.267497 78.443829 330.104497 77.443029 
Q 330.943297 76.442229 332.282497 76.442229 
Q 333.222097 76.442229 333.837697 76.967829 
Q 334.453297 77.493429 334.622497 78.496029 
z
M 331.038697 81.943029 
Q 331.038697 82.713429 331.393297 83.132829 
Q 331.747897 83.552229 332.203297 83.552229 
Q 332.642497 83.552229 332.934097 83.210229 
Q 333.227497 82.866429 333.227497 82.083429 
Q 333.227497 81.278829 332.912497 80.906229 
Q 332.597497 80.531829 332.124097 80.531829 
Q 331.668697 80.531829 331.353697 80.890029 
Q 331.038697 81.246429 331.038697 81.943029 
z
M 335.618572 82.533429 
L 337.148572 82.348029 
Q 337.220572 82.933029 337.540972 83.242629 
Q 337.863172 83.552229 338.318572 83.552229 
Q 338.808172 83.552229 339.141172 83.181429 
Q 339.475972 82.808829 339.475972 82.178829 
Q 339.475972 81.583029 339.155572 81.235629 
Q 338.835172 80.886429 338.374372 80.886429 
Q 338.070172 80.886429 337.648972 81.003429 
L 337.823572 79.716429 
Q 338.464372 79.732629 338.800972 79.437429 
Q 339.139372 79.142229 339.139372 78.652629 
Q 339.139372 78.236829 338.890972 77.990229 
Q 338.644372 77.741829 338.233972 77.741829 
Q 337.828972 77.741829 337.540972 78.022629 
Q 337.254772 78.303429 337.193572 78.843429 
L 335.735572 78.596829 
Q 335.888572 77.848029 336.194572 77.401629 
Q 336.500572 76.953429 337.049572 76.697829 
Q 337.598572 76.442229 338.278972 76.442229 
Q 339.443572 76.442229 340.145572 77.183829 
Q 340.725172 77.792229 340.725172 78.557229 
Q 340.725172 79.642629 339.538972 80.288829 
Q 340.248172 80.441829 340.671172 80.971029 
Q 341.095972 81.498429 341.095972 82.247229 
Q 341.095972 83.332629 340.302172 84.097629 
Q 339.510172 84.862629 338.329372 84.862629 
Q 337.209772 84.862629 336.471772 84.218229 
Q 335.735572 83.573829 335.618572 82.533429 
z
" style="fill: #ffffff"/>
   </g>
   <g id="text_19">
    <!-- (83.0% national) -->
    <g transform="translate(358.30352 84.323529) scale(0.1 -0.1)">
     <defs>
      <path id="ArialMT-38" d="M 1131 2484 
Q 781 2613 612 2850 
Q 444 3088 444 3419 
Q 444 3919 803 4259 
Q 1163 4600 1759 4600 
Q 2359 4600 2725 4251 
Q 3091 3903 3091 3403 
Q 3091 3084 2923 2848 
Q 2756 2613 2416 2484 
Q 2838 2347 3058 2040 
Q 3278 1734 3278 1309 
Q 3278 722 2862 322 
Q 2447 -78 1769 -78 
Q 1091 -78 675 323 
Q 259 725 259 1325 
Q 259 1772 486 2073 
Q 713 2375 1131 2484 
z
M 1019 3438 
Q 1019 3113 1228 2906 
Q 1438 2700 1772 2700 
Q 2097 2700 2305 2904 
Q 2513 3109 2513 3406 
Q 2513 3716 2298 3927 
Q 2084 4138 1766 4138 
Q 1444 4138 1231 3931 
Q 1019 3725 1019 3438 
z
M 838 1322 
Q 838 1081 952 856 
Q 1066 631 1291 507 
Q 1516 384 1775 384 
Q 2178 384 2440 643 
Q 2703 903 2703 1303 
Q 2703 1709 2433 1975 
Q 2163 2241 1756 2241 
Q 1359 2241 1098 1978 
Q 838 1716 838 1322 
z
" transform="scale(0.015625)"/>
      <path id="ArialMT-33" d="M 269 1209 
L 831 1284 
Q 928 806 1161 595 
Q 1394 384 1728 384 
Q 2125 384 2398 659 
Q 2672 934 2672 1341 
Q 2672 1728 2419 1979 
Q 2166 2231 1775 2231 
Q 1616 2231 1378 2169 
L 1441 2663 
Q 1497 2656 1531 2656 
Q 1891 2656 2178 2843 
Q 2466 3031 2466 3422 
Q 2466 3731 2256 3934 
Q 2047 4138 1716 4138 
Q 1388 4138 1169 3931 
Q 950 3725 888 3313 
L 325 3413 
Q 428 3978 793 4289 
Q 1159 4600 1703 4600 
Q 2078 4600 2393 4439 
Q 2709 4278 2876 4000 
Q 3044 3722 3044 3409 
Q 3044 3113 2884 2869 
Q 2725 2625 2413 2481 
Q 2819 2388 3044 2092 
Q 3269 1797 3269 1353 
Q 3269 753 2831 336 
Q 2394 -81 1725 -81 
Q 1122 -81 723 278 
Q 325 638 269 1209 
z
" transform="scale(0.015625)"/>
     </defs>
     <use xlink:href="#ArialMT-28"/>
     <use xlink:href="#ArialMT-38" transform="translate(33.300781 0)"/>
     <use xlink:href="#ArialMT-33" transform="translate(88.916016 0)"/>
     <use xlink:href="#ArialMT-2e" transform="translate(144.53125 0)"/>
     <use xlink:href="#ArialMT-30" transform="translate(172.314453 0)"/>
     <use xlink:href="#ArialMT-25" transform="translate(227.929688 0)"/>
     <use xlink:href="#ArialMT-20" transform="translate(316.845703 0)"/>
     <use xlink:href="#ArialMT-6e" transform="translate(344.628906 0)"/>
     <use xlink:href="#ArialMT-61" transform="translate(400.244141 0)"/>
     <use xlink:href="#ArialMT-74" transform="translate(455.859375 0)"/>
     <use xlink:href="#ArialMT-69" transform="translate(483.642578 0)"/>
     <use xlink:href="#ArialMT-6f" transform="translate(505.859375 0)"/>
     <use xlink:href="#ArialMT-6e" transform="translate(561.474609 0)"/>
     <use xlink:href="#ArialMT-61" transform="translate(617.089844 0)"/>
     <use xlink:href="#ArialMT-6c" transform="translate(672.705078 0)"/>
     <use xlink:href="#ArialMT-29" transform="translate(694.921875 0)"/>
    </g>
   </g>
   <g id="text_20">
    <!-- Casualties by Staff Type (1997-2024) -->
    <g style="fill: #262626" transform="translate(145.273864 17.391562) scale(0.14 -0.14)">
     <defs>
      <path id="Arial-BoldMT-43" d="M 3397 1684 
L 4294 1400 
Q 4088 650 3608 286 
Q 3128 -78 2391 -78 
Q 1478 -78 890 545 
Q 303 1169 303 2250 
Q 303 3394 893 4026 
Q 1484 4659 2447 4659 
Q 3288 4659 3813 4163 
Q 4125 3869 4281 3319 
L 3366 3100 
Q 3284 3456 3026 3662 
Q 2769 3869 2400 3869 
Q 1891 3869 1573 3503 
Q 1256 3138 1256 2319 
Q 1256 1450 1568 1081 
Q 1881 713 2381 713 
Q 2750 713 3015 947 
Q 3281 1181 3397 1684 
z
" transform="scale(0.015625)"/>
      <path id="Arial-BoldMT-61" d="M 1116 2306 
L 319 2450 
Q 453 2931 781 3162 
Q 1109 3394 1756 3394 
Q 2344 3394 2631 3255 
Q 2919 3116 3036 2902 
Q 3153 2688 3153 2116 
L 3144 1091 
Q 3144 653 3186 445 
Q 3228 238 3344 0 
L 2475 0 
Q 2441 88 2391 259 
Q 2369 338 2359 363 
Q 2134 144 1878 34 
Q 1622 -75 1331 -75 
Q 819 -75 523 203 
Q 228 481 228 906 
Q 228 1188 362 1408 
Q 497 1628 739 1745 
Q 981 1863 1438 1950 
Q 2053 2066 2291 2166 
L 2291 2253 
Q 2291 2506 2166 2614 
Q 2041 2722 1694 2722 
Q 1459 2722 1328 2630 
Q 1197 2538 1116 2306 
z
M 2291 1594 
Q 2122 1538 1756 1459 
Q 1391 1381 1278 1306 
Q 1106 1184 1106 997 
Q 1106 813 1243 678 
Q 1381 544 1594 544 
Q 1831 544 2047 700 
Q 2206 819 2256 991 
Q 2291 1103 2291 1419 
L 2291 1594 
z
" transform="scale(0.015625)"/>
      <path id="Arial-BoldMT-73" d="M 150 947 
L 1031 1081 
Q 1088 825 1259 692 
Q 1431 559 1741 559 
Q 2081 559 2253 684 
Q 2369 772 2369 919 
Q 2369 1019 2306 1084 
Q 2241 1147 2013 1200 
Q 950 1434 666 1628 
Q 272 1897 272 2375 
Q 272 2806 612 3100 
Q 953 3394 1669 3394 
Q 2350 3394 2681 3172 
Q 3013 2950 3138 2516 
L 2309 2363 
Q 2256 2556 2107 2659 
Q 1959 2763 1684 2763 
Q 1338 2763 1188 2666 
Q 1088 2597 1088 2488 
Q 1088 2394 1175 2328 
Q 1294 2241 1995 2081 
Q 2697 1922 2975 1691 
Q 3250 1456 3250 1038 
Q 3250 581 2869 253 
Q 2488 -75 1741 -75 
Q 1063 -75 667 200 
Q 272 475 150 947 
z
" transform="scale(0.015625)"/>
      <path id="Arial-BoldMT-75" d="M 2644 0 
L 2644 497 
Q 2463 231 2167 78 
Q 1872 -75 1544 -75 
Q 1209 -75 943 72 
Q 678 219 559 484 
Q 441 750 441 1219 
L 441 3319 
L 1319 3319 
L 1319 1794 
Q 1319 1094 1367 936 
Q 1416 778 1544 686 
Q 1672 594 1869 594 
Q 2094 594 2272 717 
Q 2450 841 2515 1023 
Q 2581 1206 2581 1919 
L 2581 3319 
L 3459 3319 
L 3459 0 
L 2644 0 
z
" transform="scale(0.015625)"/>
      <path id="Arial-BoldMT-6c" d="M 459 0 
L 459 4581 
L 1338 4581 
L 1338 0 
L 459 0 
z
" transform="scale(0.015625)"/>
      <path id="Arial-BoldMT-74" d="M 1981 3319 
L 1981 2619 
L 1381 2619 
L 1381 1281 
Q 1381 875 1398 808 
Q 1416 741 1477 697 
Q 1538 653 1625 653 
Q 1747 653 1978 738 
L 2053 56 
Q 1747 -75 1359 -75 
Q 1122 -75 931 4 
Q 741 84 652 211 
Q 563 338 528 553 
Q 500 706 500 1172 
L 500 2619 
L 97 2619 
L 97 3319 
L 500 3319 
L 500 3978 
L 1381 4491 
L 1381 3319 
L 1981 3319 
z
" transform="scale(0.015625)"/>
      <path id="Arial-BoldMT-69" d="M 459 3769 
L 459 4581 
L 1338 4581 
L 1338 3769 
L 459 3769 
z
M 459 0 
L 459 3319 
L 1338 3319 
L 1338 0 
L 459 0 
z
" transform="scale(0.015625)"/>
      <path id="Arial-BoldMT-65" d="M 2381 1056 
L 3256 909 
Q 3088 428 2723 176 
Q 2359 -75 1813 -75 
Q 947 -75 531 491 
Q 203 944 203 1634 
Q 203 2459 634 2926 
Q 1066 3394 1725 3394 
Q 2466 3394 2894 2905 
Q 3322 2416 3303 1406 
L 1103 1406 
Q 1113 1016 1316 798 
Q 1519 581 1822 581 
Q 2028 581 2168 693 
Q 2309 806 2381 1056 
z
M 2431 1944 
Q 2422 2325 2234 2523 
Q 2047 2722 1778 2722 
Q 1491 2722 1303 2513 
Q 1116 2303 1119 1944 
L 2431 1944 
z
" transform="scale(0.015625)"/>
      <path id="Arial-BoldMT-20" transform="scale(0.015625)"/>
      <path id="Arial-BoldMT-62" d="M 422 0 
L 422 4581 
L 1300 4581 
L 1300 2931 
Q 1706 3394 2263 3394 
Q 2869 3394 3266 2955 
Q 3663 2516 3663 1694 
Q 3663 844 3258 384 
Q 2853 -75 2275 -75 
Q 1991 -75 1714 67 
Q 1438 209 1238 488 
L 1238 0 
L 422 0 
z
M 1294 1731 
Q 1294 1216 1456 969 
Q 1684 619 2063 619 
Q 2353 619 2558 867 
Q 2763 1116 2763 1650 
Q 2763 2219 2556 2470 
Q 2350 2722 2028 2722 
Q 1713 2722 1503 2476 
Q 1294 2231 1294 1731 
z
" transform="scale(0.015625)"/>
      <path id="Arial-BoldMT-79" d="M 44 3319 
L 978 3319 
L 1772 963 
L 2547 3319 
L 3456 3319 
L 2284 125 
L 2075 -453 
Q 1959 -744 1854 -897 
Q 1750 -1050 1614 -1145 
Q 1478 -1241 1279 -1294 
Q 1081 -1347 831 -1347 
Q 578 -1347 334 -1294 
L 256 -606 
Q 463 -647 628 -647 
Q 934 -647 1081 -467 
Q 1228 -288 1306 -9 
L 44 3319 
z
" transform="scale(0.015625)"/>
      <path id="Arial-BoldMT-53" d="M 231 1491 
L 1131 1578 
Q 1213 1125 1461 912 
Q 1709 700 2131 700 
Q 2578 700 2804 889 
Q 3031 1078 3031 1331 
Q 3031 1494 2936 1608 
Q 2841 1722 2603 1806 
Q 2441 1863 1863 2006 
Q 1119 2191 819 2459 
Q 397 2838 397 3381 
Q 397 3731 595 4036 
Q 794 4341 1167 4500 
Q 1541 4659 2069 4659 
Q 2931 4659 3367 4281 
Q 3803 3903 3825 3272 
L 2900 3231 
Q 2841 3584 2645 3739 
Q 2450 3894 2059 3894 
Q 1656 3894 1428 3728 
Q 1281 3622 1281 3444 
Q 1281 3281 1419 3166 
Q 1594 3019 2269 2859 
Q 2944 2700 3267 2529 
Q 3591 2359 3773 2064 
Q 3956 1769 3956 1334 
Q 3956 941 3737 597 
Q 3519 253 3119 86 
Q 2719 -81 2122 -81 
Q 1253 -81 787 320 
Q 322 722 231 1491 
z
" transform="scale(0.015625)"/>
      <path id="Arial-BoldMT-66" d="M 75 3319 
L 563 3319 
L 563 3569 
Q 563 3988 652 4194 
Q 741 4400 980 4529 
Q 1219 4659 1584 4659 
Q 1959 4659 2319 4547 
L 2200 3934 
Q 1991 3984 1797 3984 
Q 1606 3984 1523 3895 
Q 1441 3806 1441 3553 
L 1441 3319 
L 2097 3319 
L 2097 2628 
L 1441 2628 
L 1441 0 
L 563 0 
L 563 2628 
L 75 2628 
L 75 3319 
z
" transform="scale(0.015625)"/>
      <path id="Arial-BoldMT-54" d="M 1497 0 
L 1497 3806 
L 138 3806 
L 138 4581 
L 3778 4581 
L 3778 3806 
L 2422 3806 
L 2422 0 
L 1497 0 
z
" transform="scale(0.015625)"/>
      <path id="Arial-BoldMT-70" d="M 434 3319 
L 1253 3319 
L 1253 2831 
Q 1413 3081 1684 3237 
Q 1956 3394 2288 3394 
Q 2866 3394 3269 2941 
Q 3672 2488 3672 1678 
Q 3672 847 3265 386 
Q 2859 -75 2281 -75 
Q 2006 -75 1782 34 
Q 1559 144 1313 409 
L 1313 -1263 
L 434 -1263 
L 434 3319 
z
M 1303 1716 
Q 1303 1156 1525 889 
Q 1747 622 2066 622 
Q 2372 622 2575 867 
Q 2778 1113 2778 1672 
Q 2778 2194 2568 2447 
Q 2359 2700 2050 2700 
Q 1728 2700 1515 2451 
Q 1303 2203 1303 1716 
z
" transform="scale(0.015625)"/>
      <path id="Arial-BoldMT-28" d="M 1916 -1347 
L 1313 -1347 
Q 834 -625 584 153 
Q 334 931 334 1659 
Q 334 2563 644 3369 
Q 913 4069 1325 4659 
L 1925 4659 
Q 1497 3713 1336 3048 
Q 1175 2384 1175 1641 
Q 1175 1128 1270 590 
Q 1366 53 1531 -431 
Q 1641 -750 1916 -1347 
z
" transform="scale(0.015625)"/>
      <path id="Arial-BoldMT-31" d="M 2519 0 
L 1641 0 
L 1641 3309 
Q 1159 2859 506 2644 
L 506 3441 
Q 850 3553 1253 3867 
Q 1656 4181 1806 4600 
L 2519 4600 
L 2519 0 
z
" transform="scale(0.015625)"/>
      <path id="Arial-BoldMT-39" d="M 291 1059 
L 1141 1153 
Q 1172 894 1303 769 
Q 1434 644 1650 644 
Q 1922 644 2112 894 
Q 2303 1144 2356 1931 
Q 2025 1547 1528 1547 
Q 988 1547 595 1964 
Q 203 2381 203 3050 
Q 203 3747 617 4173 
Q 1031 4600 1672 4600 
Q 2369 4600 2816 4061 
Q 3263 3522 3263 2288 
Q 3263 1031 2797 475 
Q 2331 -81 1584 -81 
Q 1047 -81 715 205 
Q 384 491 291 1059 
z
M 2278 2978 
Q 2278 3403 2083 3637 
Q 1888 3872 1631 3872 
Q 1388 3872 1227 3680 
Q 1066 3488 1066 3050 
Q 1066 2606 1241 2398 
Q 1416 2191 1678 2191 
Q 1931 2191 2104 2391 
Q 2278 2591 2278 2978 
z
" transform="scale(0.015625)"/>
      <path id="Arial-BoldMT-37" d="M 272 3703 
L 272 4519 
L 3275 4519 
L 3275 3881 
Q 2903 3516 2518 2831 
Q 2134 2147 1932 1376 
Q 1731 606 1734 0 
L 888 0 
Q 909 950 1279 1937 
Q 1650 2925 2269 3703 
L 272 3703 
z
" transform="scale(0.015625)"/>
      <path id="Arial-BoldMT-2d" d="M 359 1222 
L 359 2100 
L 2084 2100 
L 2084 1222 
L 359 1222 
z
" transform="scale(0.015625)"/>
      <path id="Arial-BoldMT-32" d="M 3238 816 
L 3238 0 
L 159 0 
Q 209 463 459 877 
Q 709 1291 1447 1975 
Q 2041 2528 2175 2725 
Q 2356 2997 2356 3263 
Q 2356 3556 2198 3714 
Q 2041 3872 1763 3872 
Q 1488 3872 1325 3706 
Q 1163 3541 1138 3156 
L 263 3244 
Q 341 3969 753 4284 
Q 1166 4600 1784 4600 
Q 2463 4600 2850 4234 
Q 3238 3869 3238 3325 
Q 3238 3016 3127 2736 
Q 3016 2456 2775 2150 
Q 2616 1947 2200 1565 
Q 1784 1184 1673 1059 
Q 1563 934 1494 816 
L 3238 816 
z
" transform="scale(0.015625)"/>
      <path id="Arial-BoldMT-30" d="M 1756 4600 
Q 2422 4600 2797 4125 
Q 3244 3563 3244 2259 
Q 3244 959 2794 391 
Q 2422 -78 1756 -78 
Q 1088 -78 678 436 
Q 269 950 269 2269 
Q 269 3563 719 4131 
Q 1091 4600 1756 4600 
z
M 1756 3872 
Q 1597 3872 1472 3770 
Q 1347 3669 1278 3406 
Q 1188 3066 1188 2259 
Q 1188 1453 1269 1151 
Q 1350 850 1473 750 
Q 1597 650 1756 650 
Q 1916 650 2041 751 
Q 2166 853 2234 1116 
Q 2325 1453 2325 2259 
Q 2325 3066 2244 3367 
Q 2163 3669 2039 3770 
Q 1916 3872 1756 3872 
z
" transform="scale(0.015625)"/>
      <path id="Arial-BoldMT-34" d="M 1994 0 
L 1994 922 
L 119 922 
L 119 1691 
L 2106 4600 
L 2844 4600 
L 2844 1694 
L 3413 1694 
L 3413 922 
L 2844 922 
L 2844 0 
L 1994 0 
z
M 1994 1694 
L 1994 3259 
L 941 1694 
L 1994 1694 
z
" transform="scale(0.015625)"/>
      <path id="Arial-BoldMT-29" d="M 216 -1347 
Q 475 -791 581 -494 
Q 688 -197 778 190 
Q 869 578 912 926 
Q 956 1275 956 1641 
Q 956 2384 797 3048 
Q 638 3713 209 4659 
L 806 4659 
Q 1278 3988 1539 3234 
Q 1800 2481 1800 1706 
Q 1800 1053 1594 306 
Q 1359 -531 822 -1347 
L 216 -1347 
z
" transform="scale(0.015625)"/>
     </defs>
     <use xlink:href="#Arial-BoldMT-43"/>
     <use xlink:href="#Arial-BoldMT-61" transform="translate(72.216797 0)"/>
     <use xlink:href="#Arial-BoldMT-73" transform="translate(127.832031 0)"/>
     <use xlink:href="#Arial-BoldMT-75" transform="translate(183.447266 0)"/>
     <use xlink:href="#Arial-BoldMT-61" transform="translate(244.53125 0)"/>
     <use xlink:href="#Arial-BoldMT-6c" transform="translate(300.146484 0)"/>
     <use xlink:href="#Arial-BoldMT-74" transform="translate(327.929688 0)"/>
     <use xlink:href="#Arial-BoldMT-69" transform="translate(361.230469 0)"/>
     <use xlink:href="#Arial-BoldMT-65" transform="translate(389.013672 0)"/>
     <use xlink:href="#Arial-BoldMT-73" transform="translate(444.628906 0)"/>
     <use xlink:href="#Arial-BoldMT-20" transform="translate(500.244141 0)"/>
     <use xlink:href="#Arial-BoldMT-62" transform="translate(528.027344 0)"/>
     <use xlink:href="#Arial-BoldMT-79" transform="translate(589.111328 0)"/>
     <use xlink:href="#Arial-BoldMT-20" transform="translate(644.726562 0)"/>
     <use xlink:href="#Arial-BoldMT-53" transform="translate(672.509766 0)"/>
     <use xlink:href="#Arial-BoldMT-74" transform="translate(739.208984 0)"/>
     <use xlink:href="#Arial-BoldMT-61" transform="translate(772.509766 0)"/>
     <use xlink:href="#Arial-BoldMT-66" transform="translate(828.125 0)"/>
     <use xlink:href="#Arial-BoldMT-66" transform="translate(861.425781 0)"/>
     <use xlink:href="#Arial-BoldMT-20" transform="translate(894.726562 0)"/>
     <use xlink:href="#Arial-BoldMT-54" transform="translate(922.509766 0)"/>
     <use xlink:href="#Arial-BoldMT-79" transform="translate(976.21875 0)"/>
     <use xlink:href="#Arial-BoldMT-70" transform="translate(1031.833984 0)"/>
     <use xlink:href="#Arial-BoldMT-65" transform="translate(1092.917969 0)"/>
     <use xlink:href="#Arial-BoldMT-20" transform="translate(1148.533203 0)"/>
     <use xlink:href="#Arial-BoldMT-28" transform="translate(1176.316406 0)"/>
     <use xlink:href="#Arial-BoldMT-31" transform="translate(1209.617188 0)"/>
     <use xlink:href="#Arial-BoldMT-39" transform="translate(1265.232422 0)"/>
     <use xlink:href="#Arial-BoldMT-39" transform="translate(1320.847656 0)"/>
     <use xlink:href="#Arial-BoldMT-37" transform="translate(1376.462891 0)"/>
     <use xlink:href="#Arial-BoldMT-2d" transform="translate(1432.078125 0)"/>
     <use xlink:href="#Arial-BoldMT-32" transform="translate(1465.378906 0)"/>
     <use xlink:href="#Arial-BoldMT-30" transform="translate(1520.994141 0)"/>
     <use xlink:href="#Arial-BoldMT-32" transform="translate(1576.609375 0)"/>
     <use xlink:href="#Arial-BoldMT-34" transform="translate(1632.224609 0)"/>
     <use xlink:href="#Arial-BoldMT-29" transform="translate(1687.839844 0)"/>
    </g>
   </g>
   <g id="legend_1">
    <g id="patch_11">
     <path d="M 346.51229 54.454212 
L 367.63229 54.454212 
L 367.63229 47.062212 
L 346.51229 47.062212 
z
" style="fill: #58a1cf; stroke: #ffffff; stroke-width: 0.8; stroke-linejoin: miter"/>
    </g>
    <g id="text_21">
     <!-- National Staff -->
     <g style="fill: #262626" transform="translate(376.08029 54.454212) scale(0.1056 -0.1056)">
      <defs>
       <path id="ArialMT-53" d="M 288 1472 
L 859 1522 
Q 900 1178 1048 958 
Q 1197 738 1509 602 
Q 1822 466 2213 466 
Q 2559 466 2825 569 
Q 3091 672 3220 851 
Q 3350 1031 3350 1244 
Q 3350 1459 3225 1620 
Q 3100 1781 2813 1891 
Q 2628 1963 1997 2114 
Q 1366 2266 1113 2400 
Q 784 2572 623 2826 
Q 463 3081 463 3397 
Q 463 3744 659 4045 
Q 856 4347 1234 4503 
Q 1613 4659 2075 4659 
Q 2584 4659 2973 4495 
Q 3363 4331 3572 4012 
Q 3781 3694 3797 3291 
L 3216 3247 
Q 3169 3681 2898 3903 
Q 2628 4125 2100 4125 
Q 1550 4125 1298 3923 
Q 1047 3722 1047 3438 
Q 1047 3191 1225 3031 
Q 1400 2872 2139 2705 
Q 2878 2538 3153 2413 
Q 3553 2228 3743 1945 
Q 3934 1663 3934 1294 
Q 3934 928 3725 604 
Q 3516 281 3123 101 
Q 2731 -78 2241 -78 
Q 1619 -78 1198 103 
Q 778 284 539 648 
Q 300 1013 288 1472 
z
" transform="scale(0.015625)"/>
      </defs>
      <use xlink:href="#ArialMT-4e"/>
      <use xlink:href="#ArialMT-61" transform="translate(72.216797 0)"/>
      <use xlink:href="#ArialMT-74" transform="translate(127.832031 0)"/>
      <use xlink:href="#ArialMT-69" transform="translate(155.615234 0)"/>
      <use xlink:href="#ArialMT-6f" transform="translate(177.832031 0)"/>
      <use xlink:href="#ArialMT-6e" transform="translate(233.447266 0)"/>
      <use xlink:href="#ArialMT-61" transform="translate(289.0625 0)"/>
      <use xlink:href="#ArialMT-6c" transform="translate(344.677734 0)"/>
      <use xlink:href="#ArialMT-20" transform="translate(366.894531 0)"/>
      <use xlink:href="#ArialMT-53" transform="translate(394.677734 0)"/>
      <use xlink:href="#ArialMT-74" transform="translate(461.376953 0)"/>
      <use xlink:href="#ArialMT-61" transform="translate(489.160156 0)"/>
      <use xlink:href="#ArialMT-66" transform="translate(544.775391 0)"/>
      <use xlink:href="#ArialMT-66" transform="translate(570.808594 0)"/>
     </g>
    </g>
    <g id="patch_12">
     <path d="M 346.51229 69.391662 
L 367.63229 69.391662 
L 367.63229 61.999662 
L 346.51229 61.999662 
z
" style="fill: #fb7c5c; stroke: #ffffff; stroke-width: 0.8; stroke-linejoin: miter"/>
    </g>
    <g id="text_22">
     <!-- International Staff -->
     <g style="fill: #262626" transform="translate(376.08029 69.391662) scale(0.1056 -0.1056)">
      <defs>
       <path id="ArialMT-49" d="M 597 0 
L 597 4581 
L 1203 4581 
L 1203 0 
L 597 0 
z
" transform="scale(0.015625)"/>
      </defs>
      <use xlink:href="#ArialMT-49"/>
      <use xlink:href="#ArialMT-6e" transform="translate(27.783203 0)"/>
      <use xlink:href="#ArialMT-74" transform="translate(83.398438 0)"/>
      <use xlink:href="#ArialMT-65" transform="translate(111.181641 0)"/>
      <use xlink:href="#ArialMT-72" transform="translate(166.796875 0)"/>
      <use xlink:href="#ArialMT-6e" transform="translate(200.097656 0)"/>
      <use xlink:href="#ArialMT-61" transform="translate(255.712891 0)"/>
      <use xlink:href="#ArialMT-74" transform="translate(311.328125 0)"/>
      <use xlink:href="#ArialMT-69" transform="translate(339.111328 0)"/>
      <use xlink:href="#ArialMT-6f" transform="translate(361.328125 0)"/>
      <use xlink:href="#ArialMT-6e" transform="translate(416.943359 0)"/>
      <use xlink:href="#ArialMT-61" transform="translate(472.558594 0)"/>
      <use xlink:href="#ArialMT-6c" transform="translate(528.173828 0)"/>
      <use xlink:href="#ArialMT-20" transform="translate(550.390625 0)"/>
      <use xlink:href="#ArialMT-53" transform="translate(578.173828 0)"/>
      <use xlink:href="#ArialMT-74" transform="translate(644.873047 0)"/>
      <use xlink:href="#ArialMT-61" transform="translate(672.65625 0)"/>
      <use xlink:href="#ArialMT-66" transform="translate(728.271484 0)"/>
      <use xlink:href="#ArialMT-66" transform="translate(754.304688 0)"/>
     </g>
    </g>
   </g>
  </g>
 </g>
 <defs>
  <clipPath id="p2fd44e7e6b">
   <rect x="63.31875" y="37.391562" width="404.84804" height="266.0668"/>
  </clipPath>
 </defs>
</svg>
